<?xml version="1.0" ?><!DOCTYPE svg  PUBLIC '-//W3C//DTD SVG 1.1//EN'  'http://www.w3.org/Graphics/SVG/1.1/DTD/svg11.dtd'><svg enable-background="new 0 0 91 91" height="91px" id="Layer_1" version="1.1" viewBox="0 0 91 91" width="91px" xml:space="preserve" xmlns="http://www.w3.org/2000/svg" xmlns:xlink="http://www.w3.org/1999/xlink"><g><g><g><path d="M68.561,37.856c0-4.514,1.76-8.611,4.613-11.674c-8.684-3.938-19.766-2.08-23.922,0.912     c-2.994,2.018-6.344,0-6.344,0c-7.213-5.193-35.301-7-35.477,19.037C7.258,70.938,22.51,83.521,27.988,87.27     c5.482,3.748,14.92-1.621,14.92-1.621s2.566-1.684,6.344,0c0,0,9.436,5.369,14.918,1.621     c4.791-3.273,17.047-13.311,19.939-32.354C75.389,54.117,68.561,46.787,68.561,37.856z" fill="#F16A6D"/><path d="M33.338,2.403c-3.473,4.363-4.379,10.48-1.76,15.809c2.627,5.334,8.025,8.35,13.598,8.262     c3.475-4.359,4.373-10.475,1.754-15.811C44.311,5.329,38.912,2.313,33.338,2.403z" fill="#ACD263"/><path d="M84.316,52.656c-7.689-0.703-13.488-7.067-13.488-14.8c0-3.76,1.422-7.355,4.006-10.129l2.15-2.309     l-2.873-1.303c-3.527-1.6-7.703-2.443-12.076-2.443c-4.908,0-9.804,1.1-12.922,2.833c1.502-3.707,4.691-8.896,10.969-9.881     l-0.703-4.48c-3.767,0.591-6.671,2.237-8.905,4.292c-0.262-1.637-0.759-3.247-1.507-4.772c-2.889-5.879-8.785-9.529-15.389-9.529     L32.23,0.151l-0.666,0.84c-4.123,5.18-4.916,12.334-2.021,18.223c0.431,0.875,0.936,1.694,1.492,2.466     c-0.311-0.009-0.622-0.015-0.934-0.015c-11.977,0-24.816,6.424-24.938,24.451C4.984,71.523,20.17,84.67,26.709,89.143     c1.674,1.145,3.725,1.725,6.096,1.725c5.455,0,10.992-3.115,11.305-3.295c0.027-0.018,0.699-0.404,1.818-0.404     c0.744,0,1.523,0.172,2.314,0.514c0.846,0.465,6.016,3.184,11.111,3.186c2.371,0,4.422-0.58,6.096-1.725     c5.285-3.611,17.904-14.145,20.902-33.887l0.361-2.379L84.316,52.656z M33.613,17.212c-1.996-4.063-1.652-8.764,0.854-12.514     c4.496,0.307,8.439,2.916,10.428,6.965c1.998,4.072,1.658,8.773-0.846,12.514c-0.998-0.068-1.961-0.267-2.89-0.552     c-0.368-0.147-0.749-0.288-1.142-0.421C37.271,22.059,34.979,19.984,33.613,17.212z M62.889,85.398     c-0.904,0.619-2.094,0.932-3.535,0.932c-4.236,0-8.936-2.629-8.98-2.654l-0.199-0.1c-1.406-0.627-2.834-0.945-4.246-0.945     c-2.254,0-3.746,0.801-4.18,1.068c-1.34,0.754-5.436,2.631-8.943,2.631c-1.439,0-2.631-0.313-3.535-0.932     C23.33,81.336,9.537,69.377,9.699,46.147C9.82,28.146,24.008,26.2,30.102,26.2c3.122,0,5.921,0.497,8.071,1.175     c0.521,0.22,1.054,0.413,1.598,0.582c0.745,0.317,1.358,0.65,1.813,0.978l0.154,0.102c0.129,0.078,0.91,0.531,2.067,0.863     c-3.16,1.98-6.474,0.994-6.976,0.822c-1.178-0.412-2.465,0.203-2.885,1.381c-0.42,1.18,0.195,2.477,1.375,2.896     c1.053,0.375,2.482,0.658,4.09,0.658c3.725,0,8.397-1.532,11.526-6.946c2.027-1.28,6.092-2.503,11.099-2.503     c2.625,0,5.15,0.35,7.441,1.021c-2.07,3.145-3.184,6.82-3.184,10.627c0,9.263,6.375,17.019,15.186,18.944     C78.186,73.352,67.484,82.258,62.889,85.398z" fill="#434B56"/></g><path d="M19.395,59.713c-0.84,0-1.648-0.471-2.041-1.277c-2.471-5.076-3.002-16.446,1.355-21.155    c0.848-0.918,2.283-0.975,3.205-0.123c0.918,0.852,0.975,2.285,0.123,3.205c-2.617,2.826-2.594,12.003-0.605,16.089    c0.549,1.127,0.08,2.484-1.047,3.031C20.066,59.639,19.729,59.713,19.395,59.713z" fill="#FFFFFF"/><path d="M21.887,66.713c-0.6,0-1.189-0.24-1.609-0.67c-0.42-0.42-0.66-1-0.66-1.6c0-0.602,0.24-1.182,0.66-1.602    c0.85-0.85,2.359-0.85,3.211,0c0.42,0.42,0.67,1,0.67,1.602c0,0.6-0.25,1.18-0.67,1.6C23.068,66.473,22.479,66.713,21.887,66.713z    " fill="#FFFFFF"/></g></g></svg>