<?xml version="1.0" ?><!DOCTYPE svg  PUBLIC '-//W3C//DTD SVG 1.1//EN'  'http://www.w3.org/Graphics/SVG/1.1/DTD/svg11.dtd'><svg enable-background="new 0 0 91 91" height="91px" id="Layer_1" version="1.1" viewBox="0 0 91 91" width="91px" xml:space="preserve" xmlns="http://www.w3.org/2000/svg" xmlns:xlink="http://www.w3.org/1999/xlink"><g><g><g><g><path d="M88.616,66.505c0,14.737-19.288,14.359-43.077,14.359c-23.794,0-43.083,0.378-43.083-14.359      c0-14.741,19.288-26.686,43.083-26.686C69.328,39.819,88.616,51.764,88.616,66.505z" fill="#DABE92"/><path d="M48.992,83.109h-3.453h-3.453c-11.869,0-21.521-0.147-28.692-1.993      C4.525,78.83,0.212,74.051,0.212,66.505c0-15.953,20.334-28.931,45.327-28.931c24.991,0,45.322,12.978,45.322,28.931      C90.861,83.109,70.522,83.109,48.992,83.109z M45.539,78.619l3.453,0.002c23.257,0,37.38-0.816,37.38-12.116      c0-13.479-18.318-24.442-40.833-24.442c-22.519,0-40.838,10.963-40.838,24.442c0,5.421,2.936,8.492,9.813,10.265      c6.662,1.714,16.024,1.852,27.572,1.852L45.539,78.619z" fill="#434B56"/></g><path d="M58.263,68.354c-1.238,0-2.243-1.006-2.243-2.245c0-11.499,8.862-20.855,19.757-20.855     c1.241,0,2.245,1.006,2.245,2.244c0,1.241-1.004,2.246-2.245,2.246c-8.418,0-15.269,7.34-15.269,16.365     C60.508,67.349,59.504,68.354,58.263,68.354z" fill="#434B56"/><path d="M16.775,65.357c-1.199,0-2.194-0.948-2.241-2.156c-0.463-11.81,6.455-21.757,16.822-24.191     c1.208-0.286,2.414,0.464,2.698,1.672c0.282,1.206-0.466,2.414-1.672,2.699c-8.244,1.935-13.74,10.013-13.361,19.643     c0.048,1.239-0.917,2.283-2.156,2.331C16.834,65.357,16.806,65.357,16.775,65.357z" fill="#434B56"/><path d="M35.127,64.87c-1.241,0-2.244-1.004-2.244-2.243c0-13.642,9.963-24.326,22.681-24.326     c1.241,0,2.244,1.005,2.244,2.244c0,1.241-1.003,2.247-2.244,2.247c-10.201,0-18.192,8.712-18.192,19.835     C37.372,63.866,36.367,64.87,35.127,64.87z" fill="#434B56"/><path d="M31.23,24.108c-0.419,0-0.845-0.118-1.222-0.364c-0.145-0.095-0.284-0.21-0.408-0.338     c-4.075-4.102-4.068-10.759,0.025-14.857c0.875-0.877,2.299-0.877,3.174-0.002c0.877,0.875,0.879,2.298,0.002,3.174     c-2.353,2.357-2.353,6.186,0,8.537c0.75,0.732,0.904,1.916,0.311,2.828C32.684,23.747,31.965,24.108,31.23,24.108z" fill="#434B56"/><path d="M31.238,35.823c-0.574,0-1.15-0.218-1.587-0.659c-0.878-0.875-0.876-2.298,0.002-3.174     c2.349-2.347,2.343-6.178-0.014-8.542c-0.874-0.877-0.872-2.299,0.006-3.174s2.298-0.872,3.174,0.006     c4.102,4.115,4.104,10.794,0.006,14.889C32.386,35.604,31.813,35.823,31.238,35.823z" fill="#434B56"/><path d="M45.547,24.108c-0.499,0-1-0.165-1.415-0.502c-0.05-0.042-0.101-0.087-0.15-0.136     c-0.012-0.012-0.025-0.025-0.039-0.037c-4.104-4.1-4.104-10.777-0.002-14.885c0.876-0.875,2.299-0.877,3.174-0.002     c0.878,0.877,0.88,2.298,0.002,3.176c-2.347,2.349-2.354,6.163-0.021,8.514c0.01,0.01,0.019,0.02,0.028,0.027     c0.814,0.802,0.901,2.109,0.165,3.016C46.847,23.824,46.199,24.108,45.547,24.108z" fill="#434B56"/><path d="M45.555,35.823c-0.574,0-1.148-0.218-1.587-0.657c-0.878-0.877-0.876-2.298,0.002-3.176     c2.35-2.347,2.344-6.178-0.014-8.542c-0.876-0.877-0.874-2.299,0.004-3.174c0.877-0.875,2.301-0.874,3.174,0.004     c4.104,4.114,4.108,10.794,0.008,14.889C46.703,35.604,46.129,35.823,45.555,35.823z" fill="#434B56"/><path d="M59.862,24.108c-0.362,0-0.729-0.087-1.068-0.272c-0.214-0.116-0.411-0.269-0.581-0.451     c-1.96-1.981-3.039-4.605-3.039-7.392c0-2.811,1.096-5.453,3.085-7.444c0.876-0.875,2.297-0.877,3.175,0     c0.878,0.875,0.878,2.296,0.001,3.174c-1.142,1.143-1.771,2.658-1.771,4.271c0,1.61,0.628,3.124,1.771,4.263     c0.011,0.013,0.024,0.027,0.036,0.039c0.669,0.686,0.847,1.751,0.368,2.637C61.432,23.683,60.659,24.108,59.862,24.108z" fill="#434B56"/><path d="M59.87,35.823c-0.574,0-1.15-0.22-1.59-0.659c-0.875-0.877-0.873-2.298,0.004-3.174     c2.352-2.345,2.346-6.178-0.012-8.542c-0.873-0.877-0.871-2.301,0.006-3.174c0.878-0.875,2.299-0.872,3.174,0.006     c4.103,4.115,4.104,10.796,0.004,14.889C61.018,35.604,60.443,35.823,59.87,35.823z" fill="#434B56"/></g></g></g></svg>