<?xml version="1.0" ?><!DOCTYPE svg  PUBLIC '-//W3C//DTD SVG 1.1//EN'  'http://www.w3.org/Graphics/SVG/1.1/DTD/svg11.dtd'><svg enable-background="new 0 0 91 91" height="91px" id="Layer_1" version="1.1" viewBox="0 0 91 91" width="91px" xml:space="preserve" xmlns="http://www.w3.org/2000/svg" xmlns:xlink="http://www.w3.org/1999/xlink"><g><g><g><path d="M63.43,31.305c4.074,0,7.543,2.611,8.842,6.242l15.225-1.672c-7.93-27.953-46.972-23.523-50.386-23.08     L19.27,28.162c1.016,1.07,1.602,2.5,1.602,3.982c0,3.207-2.609,5.818-5.816,5.818c-1.266,0-2.471-0.404-3.469-1.152L4.477,45     l49.634-5.453C54.684,34.91,58.639,31.305,63.43,31.305z" fill="#FAE58F"/><path d="M72.697,39.189c0.08,0.494,0.133,0.996,0.133,1.512c0,5.182-4.217,9.398-9.4,9.398     c-4.998,0-9.086-3.926-9.369-8.855L3.278,46.822v7.869c0,0,0.012,0,0.018,0c4.863,0,8.818,3.953,8.818,8.811     c0,4.859-3.955,8.814-8.818,8.814c-0.006,0-0.012,0-0.012,0l-0.006,6.883l37.865-4.158c-0.037-0.33-0.057-0.656-0.057-0.982     c0-4.859,3.951-8.811,8.81-8.811c4.535,0,8.283,3.451,8.758,7.869l29.066-3.195V37.541L72.697,39.189z" fill="#FAE58F"/><path d="M63.43,32.984c-4.256,0-7.717,3.463-7.717,7.717c0,4.256,3.461,7.719,7.717,7.719     s7.721-3.463,7.721-7.719C71.15,36.447,67.686,32.984,63.43,32.984z" fill="#DABE92"/></g><g><g><circle cx="31.779" cy="54.092" fill="#DABE92" r="4.974"/><path d="M31.776,61.334c-3.99,0-7.238-3.248-7.238-7.242s3.248-7.242,7.238-7.242      c3.996,0,7.244,3.248,7.244,7.242S35.772,61.334,31.776,61.334z M31.776,51.385c-1.49,0-2.703,1.215-2.703,2.707      s1.213,2.707,2.703,2.707c1.494,0,2.709-1.215,2.709-2.707S33.27,51.385,31.776,51.385z" fill="#434B56"/></g><g><path d="M50.477,24.398c0,2.75-2.23,4.975-4.974,4.975c-2.75,0-4.977-2.225-4.977-4.975      c0-2.746,2.227-4.975,4.977-4.975C48.246,19.424,50.477,21.652,50.477,24.398z" fill="#DABE92"/><path d="M45.502,31.643c-3.994,0-7.244-3.25-7.244-7.244s3.25-7.242,7.244-7.242      c3.992,0,7.242,3.248,7.242,7.242S49.494,31.643,45.502,31.643z M45.502,21.691c-1.494,0-2.709,1.215-2.709,2.707      s1.215,2.707,2.709,2.707c1.492,0,2.707-1.215,2.707-2.707S46.994,21.691,45.502,21.691z" fill="#434B56"/></g><path d="M63.43,51.383c-5.967,0-10.822-4.855-10.822-10.826c0-5.969,4.855-10.824,10.822-10.824     c5.973,0,10.83,4.855,10.83,10.824C74.26,46.527,69.402,51.383,63.43,51.383z M63.43,34.27c-3.467,0-6.287,2.82-6.287,6.287     c0,3.469,2.82,6.291,6.287,6.291c3.471,0,6.295-2.822,6.295-6.291C69.725,37.09,66.9,34.27,63.43,34.27z" fill="#434B56"/><path d="M2.44,82.26c-0.557,0-1.096-0.205-1.514-0.578c-0.48-0.432-0.754-1.045-0.754-1.689v-8.746     c0-0.646,0.275-1.262,0.758-1.693c0.482-0.43,1.121-0.635,1.768-0.561l0.279,0.035c0.105,0.016,0.211,0.035,0.32,0.035     c3.148,0,5.711-2.559,5.711-5.705c0-3.145-2.563-5.701-5.711-5.701c-0.102,0-0.199,0.02-0.297,0.033L2.698,57.73     C2.051,57.801,1.413,57.6,0.93,57.17c-0.482-0.432-0.758-1.047-0.758-1.693v-9.553c0-1.252,1.014-2.268,2.268-2.268     c1.252,0,2.268,1.016,2.268,2.268v7.293c4.984,0.688,8.836,4.975,8.836,10.141c0,5.17-3.852,9.457-8.836,10.145v3.959     l34.957-3.838c0.154-5.512,4.686-9.947,10.234-9.947c4.775,0,8.803,3.295,9.924,7.73l26.473-2.908V36.459     c0-1.252,1.016-2.268,2.268-2.268c1.254,0,2.268,1.016,2.268,2.268v34.072c0,1.156-0.869,2.127-2.02,2.254l-30.695,3.373     c-0.643,0.074-1.279-0.135-1.76-0.564S55.6,74.551,55.6,73.908c-0.006-3.141-2.563-5.697-5.701-5.697     c-3.145,0-5.703,2.559-5.703,5.703c0,0.398,0.047,0.803,0.141,1.234c0.139,0.629,0.002,1.285-0.373,1.809     s-0.955,0.861-1.594,0.932L2.688,82.246C2.604,82.256,2.522,82.26,2.44,82.26z" fill="#434B56"/><path d="M2.436,48.193c-0.836,0-1.613-0.463-2.008-1.217c-0.434-0.826-0.314-1.834,0.297-2.539l9.068-10.443     c0.416-0.479,1.012-0.762,1.646-0.781c0.637-0.018,1.244,0.229,1.688,0.682c0.516,0.525,1.201,0.816,1.93,0.816     c1.494,0,2.709-1.217,2.709-2.711c0-0.855-0.406-1.646-1.113-2.166c-0.557-0.41-0.896-1.051-0.922-1.74     c-0.027-0.689,0.264-1.354,0.785-1.805l18.756-16.154c0.324-0.279,0.721-0.461,1.143-0.525     c0.459-0.068,46.052-6.551,54.347,26.295c0.16,0.637,0.037,1.311-0.338,1.85c-0.373,0.539-0.963,0.889-1.615,0.961l-16.883,1.852     c-1.234,0.139-2.363-0.762-2.502-2.006c-0.135-1.246,0.764-2.365,2.008-2.502l14.182-1.557     C77.23,10.281,42.809,13.408,37.717,14.014L21.221,28.223c0.695,1.127,1.08,2.434,1.08,3.777c0,3.996-3.25,7.246-7.244,7.246     c-1.121,0-2.201-0.254-3.18-0.734l-3.93,4.525l46.638-5.123c1.252-0.133,2.365,0.762,2.502,2.008     c0.137,1.244-0.762,2.365-2.006,2.502L2.686,48.18C2.602,48.188,2.52,48.193,2.436,48.193z" fill="#434B56"/></g></g></g></svg>