<?xml version="1.0" ?><!DOCTYPE svg  PUBLIC '-//W3C//DTD SVG 1.1//EN'  'http://www.w3.org/Graphics/SVG/1.1/DTD/svg11.dtd'><svg enable-background="new 0 0 91 91" height="91px" id="Layer_1" version="1.1" viewBox="0 0 91 91" width="91px" xml:space="preserve" xmlns="http://www.w3.org/2000/svg" xmlns:xlink="http://www.w3.org/1999/xlink"><g><g><g><path d="M47.774,49.453l4.861-26.651L52.608,22.8l1.118-19.168h-6.47l-1.693,25.952l-0.33,19.87     c0.416,0.012,0.822,0.036,1.245,0.036C46.921,49.489,47.342,49.463,47.774,49.453z" fill="#F9BA8F"/><path d="M55.021,48.671l6.364-30.683L55.38,17.01l-5.904,32.385C51.431,49.273,53.276,49.026,55.021,48.671z" fill="#FAE58F"/><path d="M66.158,43.792l8.644-24.566l-4.472-1.688L58.717,47.695C61.571,46.751,64.062,45.439,66.158,43.792z" fill="#FAE58F"/><path d="M37.115,48.485c0.216,0.05,0.429,0.103,0.649,0.146l-5.481-45.25l-4.396,0.433l4.38,30.777L37.115,48.485     z" fill="#F9BA8F"/><path d="M43.573,49.4l0.649-39.136h-5.29l0.612,38.688C40.84,49.157,42.175,49.317,43.573,49.4z" fill="#FAE58F"/><path d="M75.18,31.583C72.941,44.031,62.525,51.15,46.479,51.15c-16.044,0-26.458-7.119-28.701-19.567h-4.479     l11.14,56.402h40.099c2.113,0,3.832-1.721,3.832-3.838l0.018-0.176l11.254-52.388H75.18z" fill="#F16A6D"/><path d="M35.181,47.983l-10.75-30.806l-5.309,2.297l7.69,24.327C29.134,45.621,31.938,47.027,35.181,47.983z" fill="#FAE58F"/></g><g><path d="M64.528,91H21.901L9.55,28.452h10.849l0.292,1.903c2.438,15.942,18.84,17.663,25.778,17.663     c6.941,0,23.346-1.721,25.781-17.662l0.29-1.904h10.896L71.43,84.349C71.292,88.039,68.248,91,64.528,91z M25.588,86.516h38.94     c1.335,0,2.42-1.09,2.42-2.428l0.051-0.472l10.887-50.68h-1.563c-2.793,12.294-13.8,19.567-29.854,19.567     c-16.05,0-27.055-7.273-29.852-19.567h-1.609L25.588,86.516z" fill="#434B56"/><path d="M59.607,49.225l-4.186-1.61l12.326-32.009c0.444-1.151,1.734-1.726,2.886-1.292l6.003,2.266     c1.139,0.43,1.729,1.692,1.322,2.842l-9.002,25.593l-4.231-1.489l8.275-23.524l-1.867-0.705L59.607,49.225z" fill="#434B56"/><polygon fill="#434B56" points="39.737,51.498 39.032,50.366 38.787,51.212 39.022,50.351 38.992,50.299 38.671,51.18      38.503,51.112 38.917,50.179 37.366,47.691 38.996,46.617 40.261,46.984 44.68,48.594    "/><path d="M36.776,49.161c-0.266-0.373-0.417-0.824-0.423-1.28L35.836,9.405c-0.008-0.6,0.224-1.178,0.647-1.605     c0.421-0.427,0.997-0.668,1.595-0.668h6.98c0.599,0,1.173,0.239,1.594,0.665c0.421,0.425,0.654,1.001,0.648,1.599l-0.363,39.048     l-4.485-0.04l0.342-36.786h-2.443l0.487,36.202l-2.235,0.029L36.776,49.161z" fill="#434B56"/><path d="M57.912,49.762l-4.393-0.909l6.173-29.766L56.5,18.566L50.663,49.72l-4.409-0.825l6.24-33.307     c0.225-1.198,1.361-2,2.565-1.8l7.665,1.249c0.604,0.098,1.142,0.439,1.487,0.942c0.346,0.504,0.473,1.127,0.348,1.726     L57.912,49.762z" fill="#434B56"/><path d="M34.36,49.179L23.604,19.011l-2.762,1.195l7.396,23.387l-4.276,1.352l-8.005-25.317     c-0.346-1.097,0.193-2.277,1.248-2.734l6.816-2.951c0.572-0.245,1.217-0.246,1.785,0.001c0.57,0.248,1.012,0.72,1.221,1.304     l11.561,32.424L34.36,49.179z" fill="#434B56"/><path d="M35.852,45.945l-4.823-41.08L29.48,5.018l4.003,28.476l-4.442,0.625L24.713,3.328     c-0.085-0.605,0.079-1.219,0.458-1.698c0.379-0.48,0.935-0.786,1.543-0.846l6.064-0.598c1.201-0.124,2.306,0.755,2.449,1.97     l5.08,43.267L35.852,45.945z" fill="#434B56"/><g><circle cx="46.468" cy="69.415" fill="#FFFFFF" r="10.822"/><path d="M46.469,82.479c-7.205,0-13.064-5.859-13.064-13.063c0-7.202,5.86-13.063,13.064-13.063      c7.204,0,13.063,5.861,13.063,13.063C59.532,76.619,53.673,82.479,46.469,82.479z M46.469,60.838c-4.73,0-8.58,3.848-8.58,8.577      c0,4.73,3.849,8.579,8.58,8.579c4.729,0,8.579-3.849,8.579-8.579C55.048,64.686,51.198,60.838,46.469,60.838z" fill="#434B56"/></g><path d="M47.121,28.209l-4.477-0.28l1.585-25.326C44.305,1.421,45.284,0.5,46.469,0.5h8.129     c0.618,0,1.209,0.254,1.632,0.704s0.644,1.053,0.606,1.67l-1.17,20.047l-4.478-0.262L52.22,4.986h-3.645L47.121,28.209z" fill="#434B56"/></g></g></g></svg>