<?xml version="1.0" ?><!DOCTYPE svg  PUBLIC '-//W3C//DTD SVG 1.1//EN'  'http://www.w3.org/Graphics/SVG/1.1/DTD/svg11.dtd'><svg enable-background="new 0 0 91 91" height="91px" id="Layer_1" version="1.1" viewBox="0 0 91 91" width="91px" xml:space="preserve" xmlns="http://www.w3.org/2000/svg" xmlns:xlink="http://www.w3.org/1999/xlink"><g><g><g><path d="M34.228,36.35c0.02,0.061,0.037,0.121,0.055,0.182c0.016-0.059,0.027-0.113,0.043-0.17     C34.294,36.358,34.261,36.356,34.228,36.35z" fill="#BAA1B6"/><path d="M26.435,28.415c1.049,0.338,2.025,0.824,2.934,1.422c0.178,0.117,0.355,0.236,0.527,0.361     c0.225,0.166,0.447,0.328,0.658,0.51c0.379,0.318,0.734,0.662,1.072,1.025c0.115,0.127,0.227,0.258,0.338,0.391     c0.359,0.426,0.699,0.867,0.996,1.342c0.041,0.064,0.072,0.135,0.113,0.199c0.164,0.275,0.328,0.555,0.471,0.846     c0.467,0.115,0.934,0.197,1.395,0.246c0.008-0.02,0.018-0.033,0.025-0.051c0.178-0.381,0.375-0.754,0.592-1.117     c0.025-0.041,0.047-0.082,0.07-0.123c0.057-0.09,0.104-0.184,0.16-0.271c0.701-1.078,1.559-2.01,2.531-2.793     c0.021-0.02,0.045-0.033,0.066-0.053c0.318-0.254,0.65-0.49,0.996-0.707c0.064-0.045,0.133-0.084,0.203-0.127     c0.303-0.186,0.615-0.357,0.936-0.516c0.094-0.045,0.186-0.092,0.281-0.137c0.313-0.143,0.631-0.27,0.955-0.389     c0.102-0.035,0.197-0.076,0.301-0.111c0.42-0.137,0.848-0.258,1.285-0.352c0.791-0.168,1.596-0.252,2.396-0.258     c0.568-1.723,0.674-3.553,0.297-5.328c-1.002-4.729-5.232-8.162-10.061-8.162c-0.715,0-1.434,0.076-2.141,0.225     c-5.549,1.178-9.109,6.654-7.938,12.203C26.019,27.258,26.194,27.827,26.435,28.415z" fill="#806875"/><path d="M43.688,29.653c-0.592,0.127-1.156,0.32-1.705,0.541c-0.137,0.055-0.275,0.107-0.41,0.17     c-0.508,0.23-1,0.496-1.463,0.805c-0.121,0.082-0.232,0.176-0.352,0.262c-0.367,0.27-0.715,0.564-1.045,0.881     c-0.115,0.111-0.236,0.217-0.35,0.334c-0.369,0.393-0.707,0.822-1.02,1.277c-0.428,0.629-0.803,1.301-1.09,2.025     c-0.004,0.01-0.014,0.012-0.016,0.02c-0.719,1.826-0.902,3.82-0.506,5.783c1.355,1.15,2.447,2.602,3.189,4.257     c0.02,0.041,0.043,0.08,0.061,0.121c0.186,0.428,0.324,0.877,0.461,1.33c0.037,0.127,0.096,0.246,0.129,0.373     c0.473,0.369,0.949,0.676,1.439,0.938c1.049-0.805,2.223-1.436,3.488-1.854c0.014-0.006,0.025-0.01,0.035-0.016     c0.41-0.133,0.824-0.248,1.25-0.34c0.457-0.096,0.918-0.16,1.383-0.203c0.096-0.008,0.191-0.008,0.289-0.014     c0.273-0.02,0.549-0.045,0.822-0.045c0.082,0,0.156,0.02,0.236,0.021c0.541,0.014,1.08,0.057,1.615,0.141     c0.299,0.049,0.586,0.129,0.877,0.197c0.199,0.049,0.4,0.078,0.598,0.139c0.025-0.092,0.074-0.174,0.102-0.264     c0.133-0.416,0.293-0.818,0.473-1.212c0.059-0.127,0.107-0.258,0.17-0.383c0.838-1.67,2.092-3.076,3.631-4.113     c0.014-0.008,0.025-0.02,0.039-0.029c0.123-1.119,0.08-2.197-0.131-3.207c-0.684-3.23-2.891-5.82-5.744-7.162     c-0.025,0.02-0.047,0.039-0.072,0.059l-0.109-0.141c-1.119-0.5-2.33-0.803-3.596-0.869c-0.033,0-0.063,0.01-0.096,0.004     c-0.916-0.043-1.791,0.012-2.576,0.172C43.696,29.651,43.69,29.651,43.688,29.653z" fill="#BAA1B6"/><path d="M27.819,40.573c-0.016,0-0.027,0-0.041,0c-0.635,0.012-1.271,0.082-1.898,0.213     c-0.48,0.102-0.945,0.246-1.396,0.412c-0.074,0.029-0.15,0.057-0.225,0.086c-3.373,1.34-5.863,4.422-6.395,8.111     c-0.006,0.035-0.029,0.061-0.039,0.096c-0.07,0.516-0.105,1.037-0.096,1.566c0,0.012,0.01,0.02,0.01,0.031     c0.01,0.361,0.031,0.693,0.064,1.006c0.035,0.297,0.08,0.596,0.143,0.895c0.111,0.525,0.275,1.027,0.463,1.52     c0.043,0.113,0.086,0.227,0.135,0.338c0.186,0.443,0.402,0.871,0.648,1.279c0.1,0.16,0.213,0.314,0.318,0.471     c0.152,0.223,0.314,0.436,0.482,0.646c0.861,1.061,1.934,1.967,3.186,2.639c0.025,0.014,0.037,0.043,0.061,0.061     c0.938,0.494,1.945,0.865,3.012,1.053c0.045,0,0.088-0.014,0.133-0.006c1.291,0.205,2.564,0.186,3.76-0.068     c1.424-0.299,2.775-0.924,4.016-1.857c0.031-0.021,0.068-0.029,0.102-0.047c0.895-0.689,1.672-1.514,2.293-2.441     c0-0.004,0-0.006,0.002-0.006c0.879-1.314,1.445-2.895,1.635-4.572c0.01-0.063,0.045-0.119,0.066-0.18     c0.098-1.01,0.043-2.051-0.178-3.094c-0.014-0.07-0.045-0.133-0.063-0.203c-0.002-0.006-0.006-0.01-0.008-0.014     c-0.518-2.203-1.74-4.138-3.531-5.595c-0.027-0.021-0.031-0.059-0.053-0.084c-0.348-0.275-0.717-0.516-1.096-0.746     C31.655,41.063,29.741,40.543,27.819,40.573z" fill="#BAA1B6"/><path d="M16.44,47.844c0.965-3.675,3.648-6.769,7.322-8.166c0.092-0.037,0.184-0.072,0.277-0.107     c0.484-0.168,0.977-0.322,1.492-0.43c0.582-0.123,1.174-0.188,1.766-0.223c0.094-0.006,0.188-0.012,0.281-0.016     c0.148-0.004,0.295-0.023,0.441-0.023c0.268,0,0.523,0.053,0.787,0.07c0.275,0.02,0.547,0.033,0.82,0.074     c0.424,0.057,0.836,0.146,1.246,0.25c0.209,0.053,0.42,0.104,0.627,0.168c0.434,0.135,0.854,0.297,1.266,0.477     c0.102,0.047,0.207,0.068,0.307,0.117c0.033-0.824-0.031-1.607-0.195-2.375c-0.242-1.141-0.678-2.203-1.26-3.162     c-0.072-0.119-0.154-0.23-0.23-0.346c-0.201-0.307-0.422-0.598-0.654-0.879c-0.115-0.137-0.225-0.279-0.348-0.412     c-0.275-0.299-0.572-0.578-0.881-0.846c-0.236-0.201-0.488-0.389-0.744-0.568c-0.072-0.053-0.148-0.102-0.223-0.152     c-0.889-0.59-1.879-1.055-2.941-1.357c-0.023-0.006-0.039-0.023-0.061-0.031c-0.875-0.244-1.777-0.408-2.717-0.408     c-0.715,0-1.434,0.074-2.139,0.225c-5.553,1.178-9.113,6.652-7.938,12.203C13.245,44.293,14.544,46.355,16.44,47.844z" fill="#806875"/><path d="M70.997,47.9c-0.893-4.21-4.66-7.269-8.959-7.269c-0.637,0-1.279,0.068-1.91,0.201     c-1.041,0.221-2,0.631-2.875,1.164c-0.004,0.004-0.006,0.01-0.012,0.012c-1.037,0.635-1.924,1.469-2.625,2.432     c-0.031,0.045-0.063,0.09-0.094,0.135c-0.318,0.453-0.598,0.934-0.83,1.439c-0.014,0.027-0.029,0.053-0.041,0.08     c-0.186,0.416-0.313,0.859-0.436,1.303c0.17,0.076,0.324,0.17,0.488,0.256c0.205,0.104,0.408,0.199,0.604,0.314     c0.498,0.289,0.971,0.613,1.416,0.967c0.076,0.061,0.145,0.129,0.221,0.191c0.416,0.346,0.803,0.719,1.166,1.117     c0.07,0.078,0.141,0.152,0.207,0.229c0.807,0.932,1.463,1.986,1.951,3.135c0.057,0.131,0.109,0.262,0.162,0.396     c0.221,0.578,0.416,1.172,0.547,1.787c0.211,0.996,0.275,1.986,0.236,2.959c1.271,0.27,2.523,0.279,3.715,0.023     c2.398-0.508,4.451-1.916,5.787-3.969C71.052,52.748,71.505,50.297,70.997,47.9z" fill="#806875"/><path d="M42.788,68.873c-0.234-0.123-0.465-0.246-0.689-0.381c-0.402-0.244-0.791-0.508-1.16-0.795     c-0.172-0.131-0.33-0.273-0.492-0.414c-0.318-0.275-0.623-0.566-0.91-0.871c-0.135-0.145-0.268-0.287-0.395-0.438     c-0.359-0.42-0.693-0.861-0.99-1.328c-0.068-0.109-0.125-0.223-0.189-0.334c-0.256-0.432-0.482-0.881-0.684-1.344     c-0.053-0.121-0.107-0.236-0.156-0.359c-0.189-0.482-0.357-0.973-0.48-1.477c-0.555-0.217-1.137-0.379-1.732-0.498     c-1.289,0.912-2.777,1.584-4.416,1.934c-0.641,0.135-1.293,0.201-1.941,0.23c-0.018,0.002-0.033,0.004-0.033,0.004     c-0.184,0.006-0.348,0.025-0.514,0.025c-0.461,0-0.908-0.066-1.359-0.119c-0.053-0.008-0.107-0.002-0.164-0.008     c-2.299,1.855-3.662,4.594-3.826,7.459c0,0.006,0.002,0.01,0.002,0.016c-0.025,0.461-0.023,0.904,0.008,1.338     c0.033,0.439,0.092,0.879,0.184,1.316c0.119,0.563,0.289,1.104,0.496,1.625c0.076,0.189,0.178,0.365,0.264,0.551     c0.145,0.314,0.293,0.625,0.469,0.922c0.152,0.252,0.33,0.492,0.504,0.73c0.141,0.195,0.277,0.395,0.43,0.578     c0.229,0.271,0.479,0.527,0.738,0.781c1.877,1.834,4.408,2.975,7.16,2.975c0.715,0,1.436-0.076,2.141-0.225     c5.385-1.143,8.904-6.355,8.014-11.74C42.968,68.98,42.882,68.922,42.788,68.873z" fill="#806875"/><path d="M58.335,56.143c-0.002-0.002-0.002-0.004-0.002-0.004c-0.113-0.535-0.281-1.047-0.473-1.547     c-0.049-0.127-0.104-0.252-0.158-0.377c-0.174-0.402-0.369-0.791-0.592-1.164c-0.051-0.086-0.096-0.174-0.148-0.258     c-0.287-0.455-0.605-0.885-0.957-1.287c-0.039-0.043-0.082-0.08-0.121-0.123c-0.303-0.334-0.631-0.643-0.973-0.934     c-0.133-0.113-0.268-0.219-0.408-0.326c-0.256-0.197-0.529-0.377-0.807-0.549c-0.186-0.115-0.361-0.238-0.557-0.342     c-0.242-0.133-0.502-0.236-0.756-0.35c-0.156-0.068-0.303-0.148-0.465-0.209c-0.002-0.002-0.006-0.002-0.01-0.004     c-0.357-0.137-0.725-0.232-1.09-0.33c-0.141-0.035-0.279-0.082-0.422-0.113c-0.314-0.068-0.633-0.107-0.951-0.145     c-0.242-0.029-0.482-0.055-0.727-0.064c-0.338-0.018-0.676-0.025-1.012-0.01c-0.07,0.006-0.143,0.008-0.213,0.012     c-0.457,0.033-0.91,0.09-1.361,0.186c-0.531,0.113-1.035,0.289-1.535,0.479c-0.213,0.086-0.43,0.172-0.637,0.271     c-0.178,0.082-0.342,0.184-0.512,0.275c-0.605,0.336-1.195,0.723-1.752,1.193c-0.012,0.012-0.031,0.014-0.045,0.025     c-0.656,0.561-1.27,1.176-1.777,1.896c-0.229,1.793-0.848,3.496-1.809,4.986c-0.113,1.129-0.07,2.133,0.131,3.063     c0,0.004,0.002,0.008,0.002,0.01c0.008,0.027,0.018,0.051,0.021,0.078c0.107,0.486,0.258,0.955,0.432,1.412     c0.059,0.152,0.121,0.305,0.186,0.451c0.16,0.367,0.34,0.721,0.541,1.063c0.063,0.111,0.117,0.227,0.186,0.338     c0.254,0.396,0.539,0.77,0.84,1.127c0.137,0.16,0.283,0.314,0.43,0.465c0.197,0.209,0.406,0.404,0.619,0.594     c0.174,0.154,0.346,0.313,0.529,0.455c0.289,0.225,0.596,0.428,0.91,0.621c0.291,0.18,0.598,0.34,0.908,0.492     c1.365,0.664,2.869,1.064,4.455,1.064h0.002c0.715,0,1.436-0.076,2.143-0.225c4.408-0.936,7.551-4.586,8.07-8.83     c-0.01-0.068-0.021-0.137-0.016-0.207C58.575,58.129,58.534,57.098,58.335,56.143z" fill="#BAA1B6"/><path d="M23.657,78.217c-0.215-0.262-0.412-0.533-0.604-0.811c-0.156-0.227-0.311-0.449-0.449-0.686     c-0.217-0.367-0.402-0.75-0.58-1.137c-0.082-0.184-0.178-0.359-0.252-0.547c-0.236-0.604-0.434-1.221-0.57-1.859     c-0.1-0.475-0.162-0.969-0.197-1.469c-0.023-0.262-0.023-0.518-0.029-0.777c-0.002-0.135-0.014-0.264-0.012-0.4     c-0.645-0.473-1.334-0.854-2.057-1.137c-0.02,0.014-0.041,0.025-0.063,0.039c-0.277,0.191-0.559,0.377-0.854,0.545     c-0.367,0.209-0.74,0.393-1.123,0.557c-0.15,0.064-0.305,0.121-0.461,0.178c-0.502,0.189-1.012,0.354-1.535,0.463     c-0.758,0.16-1.535,0.242-2.307,0.242c-0.092,0-0.178-0.021-0.268-0.021c-0.068-0.004-0.137-0.016-0.205-0.021     c-0.838-0.035-1.648-0.174-2.436-0.393c-2.525,2.184-3.66,5.494-2.969,8.744c0.883,4.186,4.625,7.225,8.898,7.225h0.002     c0.633,0,1.271-0.068,1.898-0.201c3.699-0.779,6.494-3.773,7.068-7.52c-0.092-0.088-0.164-0.191-0.252-0.283     C24.079,78.713,23.864,78.471,23.657,78.217z" fill="#806875"/><path d="M9.726,69.25c0.738,0.238,1.486,0.375,2.232,0.434c0.086,0.008,0.17,0.021,0.258,0.023     c0.361,0.018,0.719,0.018,1.078-0.006c0.025-0.002,0.051-0.002,0.08-0.006c0.389-0.029,0.771-0.084,1.15-0.164     c0.428-0.09,0.834-0.225,1.236-0.369c0.178-0.064,0.354-0.135,0.529-0.211c0.158-0.068,0.307-0.148,0.461-0.225     c0.52-0.266,1.025-0.572,1.51-0.941c0.01-0.008,0.025-0.008,0.037-0.016c2.039-1.578,3.393-3.953,3.613-6.65     c-0.672-0.402-1.291-0.879-1.871-1.4c-0.162-0.143-0.311-0.293-0.461-0.441c-0.297-0.295-0.58-0.6-0.846-0.924     c-0.242-0.297-0.473-0.605-0.688-0.926c-0.107-0.162-0.215-0.318-0.314-0.484c-0.287-0.477-0.539-0.975-0.758-1.49     c-0.045-0.109-0.084-0.221-0.127-0.332c-0.223-0.58-0.416-1.172-0.549-1.787c-0.006-0.031-0.006-0.07-0.012-0.104     c-0.105-0.518-0.166-1.031-0.203-1.545c0-0.008,0-0.01,0-0.016c-1.154-0.473-2.355-0.709-3.574-0.709     c-0.629,0-1.26,0.064-1.879,0.193c-5.064,1.076-8.314,6.07-7.242,11.137c0.701,3.316,3.15,5.918,6.244,6.951     C9.663,69.25,9.694,69.24,9.726,69.25z" fill="#BAA1B6"/></g><g><path d="M50.962,31.375l-2.742-3.613c14.385-10.918,7.131-23.561,6.814-24.094l3.889-2.336     C59.022,1.497,68.655,17.946,50.962,31.375z" fill="#434B56"/><g><path d="M56.833,21.625c0,0,14.586-12.98,30.463,5.607c0,0-19.104,9.609-24.611-0.352" fill="#ACD263"/><path d="M71.749,33.657c-4.445,0-8.672-1.379-11.049-5.678c-0.607-1.098-0.209-2.477,0.887-3.084      c1.094-0.605,2.477-0.207,3.082,0.889c3.246,5.869,13.715,2.643,18.795,0.637c-4.268-4.266-8.74-6.584-13.328-6.898      c-6.895-0.473-11.746,3.756-11.795,3.799c-0.936,0.832-2.367,0.748-3.201-0.188s-0.75-2.369,0.186-3.201      c0.254-0.227,6.334-5.543,15.119-4.936c6.613,0.453,12.861,4.074,18.576,10.764l1.879,2.199l-2.584,1.301      C87.771,29.534,79.435,33.657,71.749,33.657z" fill="#434B56"/></g><path d="M28.03,64.008c-6.289,0-11.797-4.469-13.1-10.625c-1.531-7.227,3.104-14.353,10.33-15.886     c0.92-0.193,1.855-0.293,2.785-0.293c6.285,0,11.795,4.469,13.102,10.626c1.527,7.227-3.107,14.354-10.332,15.887     C29.897,63.91,28.962,64.008,28.03,64.008z M28.046,41.741c-0.615,0-1.236,0.064-1.846,0.193     c-4.779,1.016-7.844,5.73-6.832,10.509c0.861,4.074,4.504,7.029,8.662,7.029c0.615,0,1.236-0.064,1.846-0.193     c4.777-1.016,7.844-5.729,6.834-10.51C35.845,44.698,32.202,41.741,28.046,41.741z" fill="#434B56"/><path d="M12.593,72.598L12.593,72.598c-5.865,0-11.004-4.168-12.221-9.912c-1.426-6.74,2.898-13.389,9.641-14.818     c2.645-0.559,5.377-0.225,7.873,0.941c0.777,0.363,1.283,1.135,1.307,1.992c0.018,0.641,0.072,1.164,0.174,1.645     c0.533,2.518,2.178,4.68,4.512,5.928c0.756,0.404,1.219,1.203,1.197,2.061c-0.158,5.805-4.221,10.693-9.881,11.891     C14.339,72.506,13.462,72.598,12.593,72.598z M12.534,52.141c-0.529,0-1.063,0.055-1.584,0.164     c-4.293,0.91-7.049,5.146-6.141,9.441c0.775,3.66,4.049,6.316,7.783,6.316l0,0c0.555,0,1.113-0.059,1.662-0.176     c3.188-0.674,5.576-3.191,6.154-6.324c-2.809-1.941-4.775-4.85-5.48-8.18c-0.063-0.297-0.113-0.602-0.154-0.918     C14.04,52.248,13.292,52.141,12.534,52.141z" fill="#434B56"/><path d="M48.284,71.426L48.284,71.426c-6.289,0-11.797-4.469-13.1-10.625c-0.283-1.311-0.336-2.711-0.156-4.271     c0.041-0.359,0.166-0.703,0.367-1.002c0.764-1.143,1.236-2.469,1.402-3.939c0.041-0.359,0.168-0.703,0.367-1.004     c1.957-2.928,4.922-4.941,8.352-5.667c0.918-0.195,1.857-0.293,2.791-0.293c6.281,0,11.787,4.466,13.092,10.623     c1.531,7.227-3.104,14.354-10.328,15.887C50.153,71.326,49.216,71.426,48.284,71.426z M39.487,57.541     c-0.063,0.854-0.018,1.613,0.133,2.311c0.863,4.082,4.506,7.037,8.664,7.037l0,0c0.617,0,1.238-0.064,1.848-0.193     c4.777-1.014,7.842-5.729,6.83-10.51c-0.863-4.072-4.502-7.027-8.654-7.027c-0.617,0-1.24,0.066-1.852,0.195     c-2.104,0.445-3.943,1.627-5.23,3.346C40.952,54.438,40.358,56.092,39.487,57.541z" fill="#434B56"/><path d="M32.935,83.852L32.935,83.852c-6.285,0-11.795-4.469-13.102-10.625     c-1.072-5.051,0.92-10.338,5.078-13.469c0.492-0.371,1.113-0.527,1.725-0.428c1.125,0.184,2.217,0.164,3.236-0.053     c1.221-0.258,2.381-0.797,3.455-1.604c0.492-0.371,1.113-0.525,1.725-0.428c1.135,0.184,2.229,0.504,3.252,0.951     c0.697,0.307,1.195,0.939,1.326,1.689c0.002,0.018,0.006,0.035,0.008,0.055c0.621,2.748,2.521,5.041,5.111,6.18     c0.672,0.297,1.16,0.898,1.309,1.617c1.488,7.199-3.148,14.297-10.338,15.822C34.802,83.754,33.864,83.852,32.935,83.852z      M26.97,63.939c-2.295,2.109-3.348,5.295-2.699,8.344c0.865,4.076,4.508,7.033,8.664,7.033c0.615,0,1.236-0.064,1.846-0.193     c4.406-0.936,7.363-5.037,6.986-9.426c-3.002-1.68-5.256-4.447-6.273-7.707c-0.102-0.029-0.205-0.059-0.311-0.086     c-1.365,0.879-2.832,1.486-4.371,1.811C29.583,63.977,28.29,64.055,26.97,63.939z" fill="#434B56"/><path d="M15.614,89.811L15.614,89.811c-5.732,0-10.756-4.074-11.941-9.689c-0.967-4.549,0.727-9.188,4.416-12.1     c0.594-0.469,1.379-0.611,2.1-0.379c1.367,0.438,2.754,0.523,4.066,0.244c1.123-0.236,2.186-0.736,3.164-1.484     c0.6-0.459,1.387-0.588,2.104-0.35c1.348,0.455,2.607,1.148,3.742,2.061c0.57,0.457,0.885,1.162,0.846,1.893     c-0.045,0.818,0.006,1.564,0.158,2.279c0.383,1.803,1.326,3.428,2.729,4.703c0.537,0.488,0.807,1.203,0.729,1.924     c-0.574,5.273-4.42,9.545-9.57,10.631C17.319,89.721,16.464,89.811,15.614,89.811z M10.099,72.307     c-1.764,1.826-2.52,4.375-1.988,6.875c0.746,3.531,3.902,6.094,7.504,6.094l0,0c0.535,0,1.074-0.057,1.602-0.17     c2.893-0.609,5.127-2.826,5.822-5.666c-1.613-1.764-2.715-3.889-3.207-6.215c-0.148-0.697-0.236-1.426-0.264-2.176     c-0.164-0.1-0.332-0.193-0.502-0.279c-1.213,0.746-2.51,1.268-3.871,1.555C13.538,72.678,11.804,72.67,10.099,72.307z" fill="#434B56"/><path d="M62.177,61.818L62.177,61.818c-1.146,0-2.318-0.168-3.48-0.498c-1.057-0.303-1.746-1.316-1.635-2.41     c0.105-1.037,0.072-1.904-0.1-2.727c-0.625-2.943-2.693-5.35-5.535-6.43c-1.033-0.393-1.633-1.473-1.42-2.557     c0.951-4.841,4.682-8.632,9.504-9.654c0.84-0.178,1.699-0.268,2.553-0.268c5.758,0,10.805,4.094,12,9.734     c0.682,3.209,0.072,6.49-1.717,9.238c-1.787,2.748-4.537,4.637-7.744,5.316C63.812,61.732,62.995,61.818,62.177,61.818z      M61.646,57.264c0.18,0.012,0.355,0.02,0.531,0.02l0,0c0.5,0,0.998-0.053,1.48-0.156c2.025-0.43,3.76-1.619,4.887-3.352     s1.512-3.803,1.082-5.826c-0.754-3.556-3.934-6.138-7.563-6.138c-0.537,0-1.08,0.059-1.613,0.17     c-2.471,0.523-4.484,2.199-5.477,4.449c3.283,1.881,5.629,5.057,6.426,8.816C61.536,55.896,61.618,56.566,61.646,57.264z" fill="#434B56"/><path d="M17.058,51.295c-0.41,0-0.82-0.111-1.182-0.332c-3.195-1.951-5.379-5.019-6.146-8.642     c-1.531-7.225,3.104-14.352,10.332-15.887c0.918-0.193,1.854-0.293,2.783-0.293c6.289,0,11.799,4.471,13.1,10.629     c0.316,1.477,0.355,3.055,0.115,4.686c-0.111,0.754-0.592,1.4-1.281,1.725c-0.688,0.322-1.494,0.277-2.145-0.119     c-1.939-1.184-4.244-1.592-6.432-1.127c-3.598,0.764-6.371,3.744-6.898,7.416c-0.109,0.756-0.59,1.404-1.279,1.729     C17.718,51.223,17.388,51.295,17.058,51.295z M22.845,30.678c-0.615,0-1.234,0.064-1.844,0.193     c-4.781,1.016-7.848,5.729-6.834,10.51c0.287,1.357,0.879,2.6,1.727,3.656c1.736-3.791,5.184-6.652,9.367-7.541     c2.07-0.438,4.217-0.371,6.238,0.182C30.624,33.618,26.991,30.678,22.845,30.678z" fill="#434B56"/><path d="M41.183,51.803c-0.322,0-0.646-0.068-0.951-0.209c-0.967-0.447-1.912-1.041-2.807-1.766     c-0.391-0.316-0.666-0.754-0.781-1.244c-0.445-1.893-1.496-3.556-3.041-4.81c-0.354-0.289-0.611-0.676-0.742-1.109     c-0.051-0.139-0.09-0.271-0.121-0.41c-0.742-3.506-0.076-7.086,1.877-10.088c1.953-3,4.955-5.061,8.455-5.801     c0.918-0.195,1.857-0.295,2.789-0.295c6.283,0,11.791,4.469,13.098,10.627c0.309,1.49,0.35,3.057,0.117,4.668     c-0.096,0.67-0.484,1.262-1.063,1.613c-1.764,1.08-3.025,2.822-3.494,4.812c-0.08,1.182-1.063,2.115-2.264,2.115     c-0.264,0.002-0.559-0.045-0.83-0.148c-1.605-0.615-3.316-0.756-4.969-0.404c-1.369,0.289-2.65,0.934-3.809,1.912     C42.229,51.619,41.708,51.803,41.183,51.803z M40.839,46.727c0.053,0.037,0.107,0.074,0.16,0.109     c1.396-0.935,2.912-1.58,4.518-1.919c1.711-0.363,3.488-0.381,5.199-0.057c0.84-2.008,2.207-3.773,3.961-5.092     c0.035-0.744-0.018-1.459-0.158-2.139c-0.861-4.064-4.504-7.021-8.658-7.021c-0.617,0-1.238,0.064-1.848,0.195     c-2.316,0.49-4.303,1.854-5.594,3.838c-1.195,1.836-1.662,3.998-1.338,6.145C38.864,42.415,40.147,44.446,40.839,46.727z" fill="#434B56"/><path d="M35.501,37.659c-0.033,0-0.066,0-0.1-0.002c-1.006-0.045-2.031-0.213-3.047-0.504     c-0.643-0.184-1.172-0.641-1.447-1.25c-1.059-2.352-3.127-4.115-5.674-4.838c-0.646-0.184-1.178-0.645-1.453-1.258     c-0.412-0.922-0.705-1.813-0.898-2.721c-1.527-7.229,3.109-14.354,10.334-15.887c0.918-0.195,1.854-0.293,2.783-0.293     c6.289,0,11.799,4.469,13.102,10.625c0.547,2.574,0.322,5.238-0.654,7.697c-0.355,0.9-1.236,1.48-2.213,1.43     c-0.797-0.039-1.563,0.006-2.225,0.145c-2.904,0.615-5.297,2.643-6.4,5.424C37.265,37.094,36.427,37.659,35.501,37.659z      M27.571,27.063c2.84,1.072,5.211,3.041,6.748,5.596c1.896-3.213,5.049-5.508,8.752-6.293c0.514-0.109,1.039-0.182,1.588-0.221     c0.26-1.207,0.264-2.455,0.004-3.672c-0.863-4.074-4.506-7.029-8.664-7.029c-0.615,0-1.236,0.064-1.844,0.193     c-4.779,1.014-7.846,5.729-6.836,10.51C27.384,26.45,27.468,26.754,27.571,27.063z" fill="#434B56"/></g></g></g></svg>