<?xml version="1.0" ?><!DOCTYPE svg  PUBLIC '-//W3C//DTD SVG 1.1//EN'  'http://www.w3.org/Graphics/SVG/1.1/DTD/svg11.dtd'><svg enable-background="new 0 0 91 91" height="91px" id="Layer_1" version="1.1" viewBox="0 0 91 91" width="91px" xml:space="preserve" xmlns="http://www.w3.org/2000/svg" xmlns:xlink="http://www.w3.org/1999/xlink"><g><g><g><path d="M63.587,14.154c2.748,0,4.982-2.23,4.982-4.975c0-0.346-0.051-0.689-0.123-1.033     c-2.256-1.162-4.789-2.227-7.6-3.09c-1.377,0.918-2.242,2.447-2.242,4.123C58.604,11.924,60.839,14.154,63.587,14.154z" fill="#F3DBD2"/><path d="M56.952,49.53c-0.469-1.072-0.85-2.271-1.086-3.651c-2.053-11.986,7.996-14.209,8.1-14.229     c0.053-0.018,0.771-0.225,1.836-0.375c-1.334-2.189-6.836-9.615-20.271-9.615c-13.67,0-18.391,7.688-19.387,9.684     c0.873,0.135,1.449,0.305,1.514,0.326c0.025,0,10.078,2.223,8.023,14.209c-0.238,1.386-0.619,2.591-1.088,3.667l-4.029,24.322     c-0.031,0.133-1.309,4.973,1.563,8.732c2.375,3.113,6.885,4.691,13.402,4.691h0.486c6.52,0,11.029-1.578,13.406-4.691     c2.871-3.76,1.592-8.6,1.58-8.648L56.952,49.53z" fill="#F9BA8F"/><path d="M82.88,20.025c-0.082-0.121-4.158-6.055-12.637-10.906c0,0.021,0.006,0.041,0.006,0.061     c0,3.668-2.988,6.654-6.662,6.654c-3.672,0-6.662-2.986-6.662-6.654c0-1.779,0.715-3.457,1.93-4.689     c-3.805-0.986-8.078-1.598-12.84-1.598H45.53c-25.148,0-36.723,16.928-36.836,17.1c-0.096,0.129-7.1,9.785-4.484,22.055     c3.131,14.688,16.723,13.897,17.316,13.858c0.52,0.031,10.705,0.15,12.498-10.31c1.783-10.404-6.434-12.229-6.785-12.301     c-0.115-0.031-4.209-1.258-7.334,0.545c-1.662,0.959-2.781,2.631-3.324,4.971c-0.371,1.59-0.178,2.943,0.576,4.025     c1.617,2.314,5.232,2.789,5.27,2.793c0.461,0.059,0.787,0.479,0.729,0.938c-0.057,0.459-0.479,0.791-0.936,0.73     c-0.18-0.021-4.4-0.578-6.439-3.503c-1.039-1.488-1.32-3.293-0.838-5.365c0.656-2.816,2.047-4.852,4.135-6.051     c1.758-1.01,3.699-1.238,5.293-1.197c0.205-0.523,4.652-11.201,21.16-11.201c16.496,0,21.875,10.664,22.111,11.15     c1.746-0.035,3.82,0.238,5.564,1.373c1.912,1.244,3.061,3.266,3.412,6.01c0.273,2.127-0.184,3.957-1.359,5.436     c-2.287,2.882-6.465,3.335-6.643,3.353c-0.465,0.035-0.873-0.287-0.92-0.748c-0.049-0.462,0.289-0.874,0.748-0.923     c0.037-0.004,3.666-0.41,5.504-2.732c0.879-1.111,1.217-2.514,1.004-4.172c-0.287-2.229-1.18-3.848-2.656-4.811     c-3.113-2.027-7.875-0.652-7.92-0.639c-0.418,0.09-8.627,1.959-6.852,12.32c1.797,10.485,11.994,10.358,12.41,10.306     c0.662,0.035,14.27,0.844,17.4-13.856C89.952,29.777,82.95,20.121,82.88,20.025z" fill="#F3DBD2"/></g><g><path d="M63.343,17.764c-4.461,0-8.09-3.625-8.09-8.082c0-2.926,1.58-5.629,4.123-7.057l2.221,3.955     c-1.115,0.627-1.809,1.814-1.809,3.102c0,1.955,1.596,3.547,3.555,3.547s3.555-1.592,3.555-3.547c0-0.344-0.051-0.689-0.15-1.027     l4.35-1.285c0.223,0.756,0.336,1.533,0.336,2.313C71.433,14.139,67.804,17.764,63.343,17.764z" fill="#434B56"/><path d="M70.679,59.546c-0.355,0-0.693-0.01-1.016-0.031c-4.6,0.117-13.664-2.484-15.447-12.891     c-1.814-10.587,5.121-14.978,9.123-15.851c0.969-0.275,6.326-1.615,10.402,1.037c1.566,1.018,3.541,3.064,4.049,7.021     c0.32,2.49-0.254,4.74-1.656,6.508c-2.613,3.29-7.113,3.835-7.617,3.886c-1.242,0.123-2.359-0.781-2.486-2.027     c-0.127-1.243,0.775-2.354,2.018-2.485c0.855-0.096,3.34-0.678,4.543-2.207c0.635-0.809,0.865-1.82,0.701-3.096     c-0.234-1.822-0.896-3.064-2.023-3.799c-2.127-1.381-5.66-0.783-6.73-0.463l-0.188,0.047c-0.723,0.162-7.172,1.865-5.664,10.662     c1.576,9.19,10.602,9.151,10.975,9.12l0.105-0.002l0.115,0.008c0.516,0.037,12.949,0.701,15.813-12.731     c2.475-11.6-4.143-20.785-4.209-20.877l-0.063-0.09C80.974,20.617,70.054,4.822,45.771,4.822h-0.484     c-24.393,0-35.539,16.299-35.648,16.463l-0.066,0.094c-0.063,0.088-6.682,9.273-4.209,20.873     c2.885,13.524,15.281,12.772,15.814,12.731l0.115-0.01l0.115,0.004c0.365-0.008,9.389,0.072,10.965-9.122     c1.508-8.795-4.941-10.498-5.684-10.664l-0.193-0.051c-0.025-0.008-3.568-1.043-6.133,0.445c-1.318,0.766-2.182,2.09-2.637,4.049     c-0.277,1.195-0.16,2.139,0.359,2.885c1.037,1.486,3.494,2.098,4.273,2.195c1.242,0.154,2.125,1.287,1.971,2.532     c-0.154,1.242-1.297,2.119-2.529,1.971c-0.514-0.064-5.078-0.721-7.436-4.103c-0.879-1.262-1.777-3.416-1.057-6.508     c0.748-3.217,2.367-5.561,4.814-6.965c3.996-2.295,8.768-1.104,9.596-0.869c4.004,0.873,10.939,5.266,9.125,15.851     c-1.756,10.24-10.531,12.893-15.225,12.893c-0.076,0-0.15,0-0.223-0.002c-5.852,0.393-17.527-2.521-20.469-16.317     c-2.844-13.334,4.326-23.592,4.969-24.475C6.741,17.477,18.901,0.287,45.286,0.287h0.484c26.391,0,38.551,17.193,39.396,18.438     c0.641,0.881,7.809,11.139,4.963,24.473C87.353,56.233,76.782,59.546,70.679,59.546z" fill="#434B56"/><path d="M45.771,90.901h-0.486c-7.551,0-12.896-1.996-15.889-5.93c-3.525-4.637-2.365-10.229-2.127-11.205     l4.023-24.291l4.475,0.74l-4.09,24.623c-0.008,0.029-1.09,4.242,1.355,7.418c2.096,2.727,6.219,4.109,12.252,4.109h0.486     c6.059,0,10.191-1.395,12.279-4.141c2.41-3.17,1.342-7.346,1.33-7.387l-0.051-0.236L55.29,50.216l4.475-0.74l4.023,24.291     c0.238,0.977,1.398,6.566-2.127,11.203C58.669,88.905,53.323,90.901,45.771,90.901z" fill="#434B56"/><path d="M64.608,33.004c-0.191-0.385-4.875-9.414-19.322-9.414c-14.307,0-18.125,8.881-18.279,9.26l-4.215-1.678     c0.195-0.494,4.973-12.117,22.494-12.117c17.404,0,23.162,11.471,23.398,11.959L64.608,33.004z" fill="#434B56"/><path d="M20.8,21.975c-2.498,0-4.531-2.033-4.531-4.531c0-2.5,2.033-4.535,4.531-4.535     c2.502,0,4.535,2.035,4.535,4.535C25.335,19.941,23.302,21.975,20.8,21.975z" fill="#434B56"/></g></g></g></svg>