<?xml version="1.0" ?><!DOCTYPE svg  PUBLIC '-//W3C//DTD SVG 1.1//EN'  'http://www.w3.org/Graphics/SVG/1.1/DTD/svg11.dtd'><svg enable-background="new 0 0 91 91" height="91px" id="Layer_1" version="1.1" viewBox="0 0 91 91" width="91px" xml:space="preserve" xmlns="http://www.w3.org/2000/svg" xmlns:xlink="http://www.w3.org/1999/xlink"><g><g><g><path d="M27.264,66.67c-4.543,0-8.24,3.697-8.24,8.238c0,4.545,3.697,8.242,8.24,8.242     c4.545,0,8.24-3.697,8.24-8.242C35.504,70.367,31.81,66.67,27.264,66.67z" fill="#F69B77"/><path d="M38.892,3.638l-3.733,8.878c11.219,2.296,34.763,10.975,43.167,43.38l8.951-3.764     C78.984,8.063,43.771,3.989,38.892,3.638z" fill="#DABE92"/><path d="M34.503,14.076L3.722,87.27l15.542-6.535c-1.195-1.639-1.91-3.646-1.91-5.826     c0-5.465,4.446-9.908,9.91-9.908c4.905,0,8.976,3.582,9.763,8.266l39.745-16.715C68.544,24.458,45.198,16.184,34.503,14.076z" fill="#FAE58F"/></g><g><path d="M77.011,62.439C68.586,15.731,29.71,14.432,29.317,14.424l0.089-4.51     c0.441,0.008,10.951,0.286,22.669,6.82c10.79,6.018,24.646,18.691,29.375,44.907L77.011,62.439z" fill="#434B56"/><g><polygon fill="#ACD263" points="45.497,55.225 53.72,40.982 61.941,55.225     "/><path d="M61.941,57.479H45.497c-0.806,0-1.549-0.43-1.952-1.129c-0.404-0.697-0.404-1.557,0-2.254l8.222-14.24      c0.401-0.699,1.146-1.128,1.952-1.128l0,0c0.806,0,1.55,0.429,1.953,1.128l8.221,14.24c0.404,0.697,0.404,1.557,0,2.254      C63.491,57.049,62.748,57.479,61.941,57.479z M49.405,52.967h8.63l-4.315-7.472L49.405,52.967z" fill="#434B56"/></g><path d="M27.577,85.893c-6.249,0-11.33-5.086-11.33-11.334c0-6.246,5.081-11.328,11.33-11.328     c6.247,0,11.33,5.082,11.33,11.328C38.907,80.807,33.824,85.893,27.577,85.893z M27.577,67.74c-3.761,0-6.82,3.061-6.82,6.818     c0,3.762,3.059,6.822,6.82,6.822c3.76,0,6.82-3.061,6.82-6.822C34.397,70.801,31.337,67.74,27.577,67.74z" fill="#434B56"/><g><path d="M45.497,32.68c0,2.442-1.977,4.423-4.418,4.423c-2.445,0-4.427-1.981-4.427-4.423      c0-2.441,1.981-4.421,4.427-4.421C43.52,28.259,45.497,30.239,45.497,32.68z" fill="#F69B77"/><path d="M41.079,39.358c-3.685,0-6.682-2.995-6.682-6.678c0-3.681,2.997-6.678,6.682-6.678      c3.681,0,6.673,2.997,6.673,6.678C47.752,36.363,44.759,39.358,41.079,39.358z M41.079,30.515c-1.198,0-2.171,0.971-2.171,2.166      c0,1.195,0.973,2.166,2.171,2.166c1.193,0,2.164-0.971,2.164-2.166C43.243,31.486,42.271,30.515,41.079,30.515z" fill="#434B56"/></g><path d="M27.882,53.205c-2.028,0-3.677-1.65-3.677-3.68c0-2.031,1.649-3.681,3.677-3.681s3.677,1.65,3.677,3.681     C31.559,51.555,29.91,53.205,27.882,53.205z M27.882,48.693c-0.46,0-0.833,0.373-0.833,0.832c0,0.457,0.373,0.828,0.833,0.828     s0.833-0.371,0.833-0.828C28.715,49.066,28.342,48.693,27.882,48.693z" fill="#434B56"/><path d="M2.469,90.74c-0.586,0-1.163-0.229-1.594-0.66c-0.649-0.648-0.841-1.623-0.486-2.469L36.582,1.547     c0.354-0.837,1.173-1.381,2.08-1.381c0.014,0,0.029,0,0.045,0c0.441,0.01,10.951,0.288,22.669,6.822     c10.79,6.018,24.646,18.692,29.375,44.904c0.187,1.039-0.373,2.068-1.346,2.479L37.502,76.199l-1.748-4.158l50.218-21.119     C77.93,11.081,47.265,5.541,40.111,4.792L6.692,84.264l13.364-5.621l1.748,4.16l-18.46,7.762     C3.062,90.682,2.765,90.74,2.469,90.74z" fill="#434B56"/></g></g></g></svg>