<svg width="150" height="150" xmlns="http://www.w3.org/2000/svg">

 <title/>
 <g>
  <title>background</title>
  <rect fill="none" id="canvas_background" height="402" width="582" y="-1" x="-1"/>
 </g>
 <g>
  <title>Layer 1</title>
  <path stroke-width="3px" stroke-miterlimit="10" stroke="#000000" fill="#261c1a" id="svg_1" d="m103.95,77.5a6.06,6.06 0 0 1 2.8,1c16.72,10.75 29.41,0.47 35.62,-5.27c-7.57,-2.15 -21.37,-12.63 -34.74,-3.84c-10.21,6.72 -6.16,7.92 -3.68,8.11z" class="cls-1"/>
  <path stroke-width="3px" stroke-miterlimit="10" stroke="#000000" fill="#261c1a" id="svg_2" d="m46.05,77.5a6.06,6.06 0 0 0 -2.8,1c-16.71,10.75 -29.4,0.5 -35.61,-5.27c7.56,-2.15 21.36,-12.63 34.73,-3.84c10.21,6.72 6.16,7.92 3.68,8.11z" class="cls-1"/>
  <path stroke-width="1.98px" fill="#fceebb" stroke-miterlimit="10" stroke="#000000" id="svg_3" d="m113.94,15c12.36,5.56 23.69,40.07 0,50.9s-30.75,-14.39 -30.73,-17c11.94,6.26 43.63,5.1 30.73,-33.9z" class="cls-2"/>
  <path stroke-width="1.98px" fill="#fceebb" stroke-miterlimit="10" stroke="#000000" id="svg_4" d="m36.06,15c-12.36,5.56 -23.69,40.07 0,50.9s30.75,-14.39 30.73,-17c-11.94,6.26 -43.63,5.1 -30.73,-33.9z" class="cls-2"/>
  <path stroke-width="4px" stroke-miterlimit="10" stroke="#000000" fill="#261c1a" id="svg_5" d="m115.46,74.3c0,12.54 -13.09,19.06 -13.09,24.16c0,20.23 -0.08,29.8 -12.34,33.18a3.24,3.24 0 0 1 -3.24,3.16l-23.57,0a3.24,3.24 0 0 1 -3.22,-3.16c-12.26,-3.38 -12.34,-12.95 -12.34,-33.18c0,-5.1 -13.1,-11.62 -13.1,-24.16c0,-29.23 18.12,-33.75 40.46,-33.75s40.44,4.52 40.44,33.75z" class="cls-3"/>
  <path fill="#3f3432" stroke-width="4px" stroke-miterlimit="10" stroke="#000000" id="svg_6" d="m94.85,114.51c0,7.59 -4.39,12.46 -8.8,12.46s-7,-2.69 -10.08,-2.69c-3.38,0 -6.26,2.69 -11.11,2.69s-9.71,-4.86 -9.71,-12.46s7,-12.46 11.3,-12.46s2.81,2.17 9.52,2.17c6.08,0 4.69,-2.17 8.63,-2.17s10.25,4.86 10.25,12.46z" class="cls-4"/>
  <path stroke-width="2px" fill="#ffffff" stroke-miterlimit="10" stroke="#000000" id="svg_7" d="m102.36,71.59c0,3.92 -5.6,9.52 -9.52,9.52a7.09,7.09 0 0 1 -7.09,-7.11c0,-2.26 3.53,-4.54 5.89,-5.25c4.56,-1.36 10.72,-1.07 10.72,2.84z" class="cls-5"/>
  <circle id="svg_8" r="3.97" cy="72.7" cx="92.28"/>
  <path stroke-width="2px" fill="#ffffff" stroke-miterlimit="10" stroke="#000000" id="svg_9" d="m47.62,71.59c0,3.92 5.18,9.52 8.81,9.52a6.84,6.84 0 0 0 6.57,-7.11c0,-2.26 -3.27,-4.54 -5.45,-5.25c-4.23,-1.36 -9.93,-1.07 -9.93,2.84z" class="cls-5"/>
  <ellipse id="svg_10" ry="3.97" rx="3.67" cy="72.7" cx="56.94"/>
  <ellipse fill="#190e0c" id="svg_11" ry="1.71" rx="2.88" cy="116.22" cx="65.75" class="cls-6"/>
  <ellipse fill="#190e0c" id="svg_12" ry="1.71" rx="2.88" cy="116.22" cx="84.24" class="cls-6"/>
 </g>
</svg>