<svg width="150" height="150" xmlns="http://www.w3.org/2000/svg">

 <title/>
 <g>
  <title>background</title>
  <rect fill="none" id="canvas_background" height="402" width="582" y="-1" x="-1"/>
 </g>
 <g>
  <title>Layer 1</title>
  <path stroke-width="2px" stroke-linejoin="round" stroke-linecap="round" stroke="#000000" fill="#ffc533" id="svg_1" d="m69.31,19.83c-2.66,-4.83 -5.73,-13.44 -9.31,-14.54c6.17,0.07 14,3.81 15.56,9c1.91,-5.95 7,-5.95 10.25,-6.17c-4.92,4.4 -5.25,8.81 -5.25,10.8s-10.08,3.08 -11.25,0.91z" class="cls-1"/>
  <path stroke-width="4px" stroke-miterlimit="10" stroke="#000000" fill="#ffc533" id="svg_2" d="m136.24,94.23c0,28.23 -35.47,44.1 -61.24,44.1s-61.24,-15.86 -61.24,-44.1c0,-12.23 8.24,-20.23 14.59,-33.23c9.76,-20 13.92,-43.83 46.65,-43.83s36.89,23.83 46.65,43.83c6.35,13 14.59,21 14.59,33.23z" class="cls-2"/>
  <ellipse fill="#ffffff" stroke-miterlimit="10" stroke-width="2px" stroke="#000000" id="svg_3" transform="rotate(-79.70999908447266 -16.659999847412113,101.52999877929688) " ry="10.12" rx="15.94" cy="162.279999" cx="35.82" class="cls-3"/>
  <ellipse id="svg_4" transform="rotate(-79.70999908447266 -22.579999923706044,106.3300018310547) " ry="5.39" rx="6.96" cy="173.020002" cx="29.82"/>
  <ellipse fill="#ffffff" stroke-miterlimit="10" stroke-width="2px" stroke="#000000" id="svg_5" transform="rotate(-10.289999961853027 -9.289999961853008,18.399999618530273) " ry="15.94" rx="10.12" cy="79.15" cx="88.23" class="cls-3"/>
  <ellipse id="svg_6" transform="rotate(-10.289999961853027 -10.350000381469703,18.510000228881836) " ry="6.96" rx="5.39" cy="85.2" cx="87.25"/>
  <path fill="#ea6726" stroke-width="4px" stroke-miterlimit="10" stroke="#000000" id="svg_7" d="m118.82,114.66c-8.73,13.53 -6.28,29 -45.94,29c-36.53,0 -34.27,-15.52 -42.32,-29c-5,-8.42 -9.87,-15.56 -5.64,-19.27s16.65,-0.26 25.44,-0.26s9.92,-13.91 22.52,-13.91c13.69,0 14.91,13.91 24.45,13.91s22.9,-3.54 27.62,0.26s-0.7,10.85 -6.13,19.27z" class="cls-4"/>
  <path id="svg_8" d="m58.6,105.94c-1.71,-3 -1.25,-5.24 0.38,-6.17s3.8,-0.19 5.51,2.79s2.31,7.09 0.68,8s-4.86,-1.64 -6.57,-4.62z"/>
  <path id="svg_9" d="m91.4,105.94c1.71,-3 1.25,-5.24 -0.38,-6.17s-3.8,-0.19 -5.51,2.79s-2.31,7.09 -0.68,8s4.86,-1.64 6.57,-4.62z"/>
 </g>
</svg>