<svg width="150" height="150" xmlns="http://www.w3.org/2000/svg">

 <title/>
 <g>
  <title>background</title>
  <rect fill="none" id="canvas_background" height="402" width="582" y="-1" x="-1"/>
 </g>
 <g>
  <title>Layer 1</title>
  <path stroke-width="4px" stroke-miterlimit="10" stroke="#000000" fill="#9ea9ac" id="_Path_" d="m44.56,24.15c-7.48,-8.25 -26.56,-16.33 -37.75,6.71c-4.92,10.08 0.99,21.67 7.19,32.14c7.9,13.5 18.05,24 25.19,15.32c12.7,-15.47 5.37,-54.17 5.37,-54.17z" class="cls-1"/>
  <path stroke-width="4px" stroke-miterlimit="10" stroke="#000000" fill="#9ea9ac" id="_Path_2" d="m105.44,24.15c7.49,-8.25 26.53,-16.34 37.76,6.71c4.91,10.08 -1,21.67 -7.16,32.16c-7.93,13.48 -18.09,24 -25.23,15.31c-12.7,-15.48 -5.37,-54.18 -5.37,-54.18z" class="cls-1"/>
  <path fill="#5e6c70" id="svg_1" d="m53.4,30.14c-8.78,-10.67 -40.08,-11.87 -37,13.58c1.5,12.44 6.09,18.32 13.9,26.1c11.08,11 24.17,11.94 31.31,3.23c12.68,-15.47 -8.21,-42.91 -8.21,-42.91z" class="cls-2"/>
  <path fill="#5e6c70" id="svg_2" d="m96.6,30.14c8.78,-10.67 40.08,-11.87 37,13.58c-1.5,12.44 -6.09,18.32 -13.9,26.1c-11.08,11 -24.17,11.94 -31.31,3.23c-12.68,-15.47 8.21,-42.91 8.21,-42.91z" class="cls-2"/>
  <path fill="#b4bfc2" stroke-width="4px" stroke-miterlimit="10" stroke="#000000" id="svg_3" d="m114.24,61.62c-3.62,15.48 -0.66,24.42 -7.36,34.17c-5.43,7.91 -19.77,17.76 -31.88,17.76s-26.44,-9.85 -31.89,-17.76c-6.7,-9.76 -3.73,-18.7 -7.36,-34.17c-7.22,-30.9 12.94,-52.3 39.25,-52.3s46.48,21.4 39.24,52.3z" class="cls-3"/>
  <path stroke-width="2px" fill="#fceebb" stroke-miterlimit="10" stroke="#000000" id="svg_4" d="m95.92,96.4c5.14,-1.75 8.68,3.83 9.44,9.95s6.32,9.63 4.24,11.66c-2.44,2.37 -11.62,-3.83 -15.6,-10.08c-2.82,-4.43 -3.28,-9.76 1.92,-11.53z" class="cls-4"/>
  <path stroke-width="2px" fill="#fceebb" stroke-miterlimit="10" stroke="#000000" id="svg_5" d="m54.08,96.4c-5.14,-1.75 -8.68,3.83 -9.44,9.95s-6.33,9.65 -4.25,11.65c2.44,2.37 11.62,-3.83 15.6,-10.08c2.83,-4.42 3.29,-9.75 -1.91,-11.52z" class="cls-4"/>
  <path stroke-linejoin="round" stroke-linecap="round" fill="#b4bfc2" stroke-width="4px" stroke="#000000" id="svg_6" d="m57.69,92.72c3.19,9.09 4.26,34.87 -4.59,37c-4.31,1 -8,-1.75 -8.09,-4.25s-2.06,-7.22 -4.5,-3.37c-3,-1.08 -4.67,2 -2.34,4.25c-0.17,4.08 5.18,14.33 15.83,14.33c23.38,0 38.92,-17.19 37,-48.17" class="cls-5"/>
  <path stroke-width="1.89px" fill="#fcfcfc" stroke-linejoin="round" stroke-linecap="round" stroke="#000000" id="svg_7" d="m102.65,63.52c0,3.51 -3.19,7.25 -7.12,7.25s-7.12,-2 -7.12,-5.46s3.19,-7.25 7.13,-7.25s7.11,1.94 7.11,5.46z" class="cls-6"/>
  <ellipse id="svg_8" ry="3.08" rx="3.45" cy="64.41" cx="95.52"/>
  <path stroke-width="1.89px" fill="#fcfcfc" stroke-linejoin="round" stroke-linecap="round" stroke="#000000" id="svg_9" d="m61.6,65.3c0,3.51 -3.19,5.46 -7.12,5.46s-7.13,-3.76 -7.13,-7.24s3.19,-5.46 7.13,-5.46s7.12,3.73 7.12,7.24z" class="cls-6"/>
  <ellipse id="svg_10" ry="3.08" rx="3.45" cy="64.41" cx="54.48"/>
  <path fill="#5e6c70" id="svg_11" d="m94.5,29.15c-4.78,-2.22 -11.75,-3.62 -19.5,-3.62s-14.71,1.4 -19.49,3.62c3.49,-3.65 10.88,-6.15 19.49,-6.15s16,2.5 19.5,6.15z" class="cls-2"/>
  <path fill="#5e6c70" id="svg_12" d="m84.77,41.72a24.15,24.15 0 0 0 -9.77,-1.82a24.13,24.13 0 0 0 -9.77,1.81c1.77,-1.82 5.45,-3.08 9.77,-3.08s8,1.26 9.77,3.09z" class="cls-2"/>
  <path fill="#5e6c70" id="svg_13" d="m91.13,36c-4,-1.84 -9.72,-3 -16.13,-3s-12.17,1.16 -16.13,3c2.87,-3 9,-5.1 16.13,-5.1s13.26,2.1 16.13,5.1z" class="cls-2"/>
 </g>
</svg>