<svg width="150" height="150" xmlns="http://www.w3.org/2000/svg">

 <title/>
 <g>
  <title>background</title>
  <rect fill="none" id="canvas_background" height="402" width="582" y="-1" x="-1"/>
 </g>
 <g>
  <title>Layer 1</title>
  <ellipse stroke-miterlimit="10" stroke="#000000" stroke-width="4px" fill="#cc5621" id="svg_1" ry="23.09" rx="19.83" cy="49.24" cx="124" class="cls-1"/>
  <ellipse stroke-miterlimit="10" stroke="#000000" stroke-width="4px" fill="#cc5621" id="svg_2" ry="23.09" rx="19.83" cy="49.24" cx="26" class="cls-1"/>
  <ellipse fill="#a53620" id="svg_3" ry="16.83" rx="13.83" cy="50.54" cx="120.33" class="cls-2"/>
  <ellipse fill="#a53620" id="svg_4" ry="16.83" rx="13.83" cy="50.54" cx="29.67" class="cls-2"/>
  <path stroke-miterlimit="10" stroke="#000000" stroke-width="4px" fill="#cc5621" id="_Path_" d="m100.93,93.23c1.82,3.38 10.59,34.7 -25.93,34.7s-27.76,-31.32 -25.93,-34.7c-8.15,-6.34 -17.35,-17.67 -17.35,-30.4c0,-21.44 15.47,-39 37.68,-40.76c1.18,-0.09 4.39,3.47 5.61,3.47s4.42,-3.57 5.61,-3.47c22.21,1.73 37.68,19.32 37.68,40.76c-0.01,12.74 -9.22,24.07 -17.37,30.4z" class="cls-1"/>
  <path fill="#e5c1a1" id="svg_5" d="m99.51,95c1.1,3.14 3.55,13.4 -1.09,21.17c-3.86,6.47 -11.74,9.75 -23.42,9.75s-19.56,-3.28 -23.42,-9.75c-4.64,-7.77 -2.19,-18 -1.09,-21.17a33.19,33.19 0 0 1 6.69,-7.58c-6.72,-3.81 -16.62,-14.23 -16.62,-30.22c0,-9.6 8.78,-17.39 18.39,-17.39c8.43,0 13.69,5.07 16,5.07s7.61,-5.07 16,-5.07c9.6,0 18.39,7.79 18.39,17.39c0,16 -9.91,26.42 -16.62,30.24a33.16,33.16 0 0 1 6.79,7.56z" class="cls-3"/>
  <circle stroke-linecap="round" fill="#f2cfc9" stroke-miterlimit="10" stroke="#000000" id="svg_6" r="7.11" cy="56.7" cx="57.13" class="cls-4"/>
  <circle id="svg_7" r="3.25" cy="57.7" cx="58.13"/>
  <circle stroke-linecap="round" fill="#f2cfc9" stroke-miterlimit="10" stroke="#000000" id="svg_8" r="7.11" cy="56.7" cx="92.88" class="cls-4"/>
  <circle id="svg_9" r="3.25" cy="57.7" cx="91.87"/>
  <circle id="svg_10" r="2.5" cy="83.16" cx="70.69"/>
  <circle id="svg_11" r="2.5" cy="83.16" cx="79.31"/>
  <path stroke-width="3px" fill="none" stroke-linecap="round" stroke-miterlimit="10" stroke="#000000" id="svg_12" d="m90,100.23s-6.69,6.06 -14.62,6.06l0,0c-7.94,0 -14.62,-6.06 -14.62,-6.06" class="cls-5"/>
 </g>
</svg>