<svg width="150" height="150" xmlns="http://www.w3.org/2000/svg">

 <title/>
 <g>
  <title>background</title>
  <rect fill="none" id="canvas_background" height="402" width="582" y="-1" x="-1"/>
 </g>
 <g>
  <title>Layer 1</title>
  <path stroke="#000000" stroke-width="4px" stroke-miterlimit="40" fill="#edb340" id="_Path_" d="m137.43,81.5s5.31,23.07 1.13,32.59l-3.32,-4.9s-7.79,18.89 -18.75,19.18l-0.29,-3.46a82.89,82.89 0 0 1 -82.4,0l-0.29,3.46c-11,-0.29 -18.75,-19.18 -18.75,-19.18l-3.31,4.9c-4.18,-9.52 1.13,-32.59 1.13,-32.59s0.31,-1.16 -4.74,0a97.52,97.52 0 0 1 13.83,-34.21c-4.67,-10.46 -7.67,-30 -5.17,-32.52c2.28,-2.29 24.29,2 32.92,5.55c7.17,-4 13.65,-6.2 21,-6.2c0.87,0 3.81,3.57 4.63,3.57s3.76,-3.57 4.63,-3.57c7.3,0 13.78,2.22 21,6.2c8.64,-3.57 30.62,-7.84 32.91,-5.55c2.54,2.53 -0.48,22.06 -5.16,32.52a97.51,97.51 0 0 1 13.74,34.21c-5.05,-1.16 -4.74,0 -4.74,0z" class="cls-1"/>
  <path fill="#d3d3d3" id="svg_1" d="m138.7,79c0.27,0 0.58,0 0.9,0c-0.21,-0.94 -0.44,-1.87 -0.69,-2.8c-0.1,-0.41 -0.21,-0.81 -0.32,-1.22c-0.18,-0.67 -0.37,-1.33 -0.57,-2s-0.41,-1.33 -0.62,-2c-0.16,-0.5 -0.33,-1 -0.5,-1.5s-0.4,-1.16 -0.61,-1.74l-0.07,-0.19c-0.18,-0.51 -0.38,-1 -0.57,-1.52c-0.06,-0.15 -0.11,-0.29 -0.17,-0.43c-0.21,-0.55 -0.43,-1.09 -0.65,-1.63l0,-0.07c-0.73,0.33 -1.67,0.71 -2.89,1.15c-4.09,1.48 1.06,11.67 -3.47,26.43l-0.3,0.94a17.57,17.57 0 0 1 -1.49,3.36a14.52,14.52 0 0 1 -6,5.74a16,16 0 0 1 -2.12,0.92c-4.35,1.57 -9.35,1.53 -13.66,1.07c-4.51,-11.82 -16.19,-26.32 -29.9,-26.32l0,0c-13.72,0 -25.4,14.5 -29.87,26.36c-4.31,0.46 -9.3,0.5 -13.66,-1.07a16,16 0 0 1 -2.12,-0.92a14.65,14.65 0 0 1 -6,-5.74a18.22,18.22 0 0 1 -1.49,-3.36l-0.3,-0.93l0,0c-4.53,-14.76 0.62,-25 -3.47,-26.43c-1.22,-0.44 -2.16,-0.82 -2.89,-1.15c-0.44,1.08 -0.87,2.16 -1.27,3.25c-0.18,0.48 -0.35,1 -0.52,1.45s-0.3,0.86 -0.44,1.29s-0.34,1 -0.49,1.48s-0.4,1.26 -0.58,1.89s-0.37,1.27 -0.54,1.9c-0.35,1.27 -0.67,2.55 -1,3.83c0.33,0 0.63,0 0.91,0a3.45,3.45 0 0 1 2.8,1.09a2.22,2.22 0 0 1 0.46,1.87s-0.06,0.24 -0.14,0.63c0,0.2 -0.09,0.44 -0.15,0.71l-0.06,0.29a1.29,1.29 0 0 1 0,0.19c-0.14,0.69 -0.3,1.55 -0.49,2.54s-0.44,2.27 -0.69,3.64q-0.11,0.7 -0.21,1.44a2.34,2.34 0 0 0 0,0.26c-0.07,0.48 -0.13,1 -0.19,1.46s-0.11,0.86 -0.16,1.3s-0.09,0.76 -0.13,1.15a56.64,56.64 0 0 0 -0.1,13.81l0,0l0.87,-1.28l2.11,-3.14l1.42,3.44l0.19,0.45c0.13,0.31 0.28,0.64 0.44,1l0.29,0.6c0.35,0.73 0.76,1.52 1.22,2.36a0.47,0.47 0 0 0 0,0.1s0,0 0,0l0.31,0.53c0.24,0.44 0.51,0.89 0.79,1.34c0.4,0.68 0.84,1.36 1.31,2.05c0.15,0.23 0.3,0.46 0.47,0.68l0.87,1.2a29.66,29.66 0 0 0 3.69,4.1l0.42,0.37c0.18,0.15 0.35,0.3 0.54,0.44s0.25,0.21 0.38,0.3a5.58,5.58 0 0 0 0.49,0.36a11.75,11.75 0 0 0 1.19,0.75l0.46,0.25l0.64,0.31l0,0a6.59,6.59 0 0 0 0.62,0.24q0.33,0.12 0.66,0.21l0.11,-1.35l0.27,-3.33l2.81,1.82s1.22,0.78 3.22,1.78l0.48,0.25l0.6,0.3c0.15,0.06 0.3,0.14 0.45,0.21l0,0c0.92,0.44 2,0.92 3.12,1.42l0.25,0.11l1,0.39l1.27,0.51l1.18,0.45c1,0.36 2,0.72 3.08,1.08l2.09,0.66l1.09,0.32c0.74,0.21 1.49,0.41 2.27,0.61l1.17,0.29c0.79,0.19 1.6,0.37 2.43,0.55l1.25,0.25c0.42,0.09 0.84,0.17 1.27,0.24l1.3,0.22l0.88,0.14l1.08,0.15c0.69,0.1 1.38,0.18 2.09,0.26l1.13,0.11l0.49,0.05l1,0.08q2,0.16 4,0.21c0.67,0 1.35,0 2,0s1.36,0 2,0a78.82,78.82 0 0 0 8.38,-0.66l1.67,-0.24c1.38,-0.21 2.72,-0.45 4,-0.72l1.68,-0.36l1.84,-0.44c1.14,-0.28 2.24,-0.58 3.3,-0.89c2,-0.59 3.88,-1.22 5.58,-1.85l1.55,-0.59l0.23,-0.09l0.84,-0.34q1.23,-0.51 2.31,-1l0.08,0l1.92,-0.9l0,0a50.84,50.84 0 0 0 4.68,-2.51l2.79,-1.81l0.28,3.32l0,0l0.11,1.35q0.33,-0.09 0.66,-0.21a6.58,6.58 0 0 0 0.62,-0.24l0,0l0.58,-0.28l0.4,-0.21l0.43,-0.25l0.54,-0.34l0.39,-0.27l0.47,-0.35c0.25,-0.18 0.49,-0.38 0.73,-0.58l0.54,-0.47l0,0l0.56,-0.53c0.37,-0.36 0.74,-0.73 1.09,-1.12a35.22,35.22 0 0 0 2.78,-3.28c0.22,-0.3 0.43,-0.61 0.64,-0.92c1,-1.41 1.83,-2.83 2.56,-4.16c0.62,-1.13 1.15,-2.18 1.58,-3.09l0.42,-0.95l0.19,-0.45l1.42,-3.44l2.09,3.08l0.9,1.32c1.61,-10.17 -2.27,-27.24 -2.3,-27.38a2.24,2.24 0 0 1 0.4,-1.94a3.45,3.45 0 0 1 2.8,-1.07z" class="cls-2"/>
  <path id="svg_2" d="m26.25,122.86a40.11,40.11 0 0 1 -7.44,-9.9s0,0 0,0a50.39,50.39 0 0 1 2.76,-21.41l0,0c1.92,-5.19 4.61,-9.38 7.64,-11.64a36.53,36.53 0 0 0 -5.85,15.94a59.14,59.14 0 0 0 2.89,27.01z"/>
  <path id="svg_3" d="m31.47,102.48a53.76,53.76 0 0 0 8.09,23.27a51.34,51.34 0 0 1 -4.67,-2.51l-1.67,0.82a49,49 0 0 1 -3.87,-22.5a22.24,22.24 0 0 1 2.93,-10.09a33.06,33.06 0 0 0 -0.81,11.01z"/>
  <path id="svg_4" d="m131.2,112.93a39.63,39.63 0 0 1 -7.45,9.93a59.14,59.14 0 0 0 2.9,-27a36.53,36.53 0 0 0 -5.85,-15.94c3,2.26 5.72,6.45 7.64,11.64a50.39,50.39 0 0 1 2.76,21.37z"/>
  <path id="svg_5" d="m116.79,124.06l-1.67,-0.82a50.84,50.84 0 0 1 -4.68,2.51a53.76,53.76 0 0 0 8.09,-23.27a33.06,33.06 0 0 0 -0.81,-11a22.24,22.24 0 0 1 2.93,10.09a49.11,49.11 0 0 1 -3.86,22.49z"/>
  <path stroke-width="2px" stroke-miterlimit="10" fill="#ffe7bd" stroke="#000000" id="svg_6" d="m98.61,63.18c7.24,-4.61 15,-6.6 15.58,-4.65s-2.81,15.09 -8.55,16.47s-21.64,-2.51 -7.03,-11.82z" class="cls-3"/>
  <circle id="svg_7" r="3.87" cy="65.9" cx="101.4"/>
  <path stroke-width="2px" stroke-miterlimit="10" fill="#ffe7bd" stroke="#000000" id="svg_8" d="m51.39,63.18c-7.24,-4.61 -15,-6.6 -15.58,-4.65s2.81,15.09 8.55,16.47s21.64,-2.51 7.03,-11.82z" class="cls-3"/>
  <circle id="svg_9" r="3.87" cy="65.9" cx="48.6"/>
  <line stroke-linejoin="round" stroke-linecap="round" fill="#020100" stroke-width="2px" stroke="#000000" id="svg_10" y2="108.52" y1="116.7" x2="75" x1="75" class="cls-4"/>
  <path stroke-linejoin="round" stroke-linecap="round" fill="#020100" stroke-width="2px" stroke="#000000" id="svg_11" d="m93.63,124.54c-6.82,10.06 -18.63,1.25 -18.63,1.25s-11.82,8.81 -18.63,-1.25c5.21,0.88 18.63,-2.21 18.63,-11.19c0,8.98 13.42,12.07 18.63,11.19z" class="cls-4"/>
  <path fill="#020100" id="svg_12" d="m103.43,39.73c-7,-4.62 -17.13,-7.54 -28.43,-7.54s-21.46,2.91 -28.43,7.54c5.06,-7.59 15.88,-12.84 28.43,-12.84s23.37,5.25 28.43,12.84z" class="cls-5"/>
  <path fill="#020100" id="svg_13" d="m94.28,49.37c-4.72,-3.14 -11.62,-5.12 -19.28,-5.12s-14.55,2 -19.28,5.11c3.43,-5.15 10.77,-8.7 19.28,-8.7s15.85,3.56 19.28,8.71z" class="cls-5"/>
  <path fill="#c45e35" id="svg_14" d="m106.25,24.39c8.71,-3.25 21,-4.91 22.49,-4.79c0.13,1.75 -1.87,15.92 -4.46,21.87c-5.83,-7.64 -18.03,-17.08 -18.03,-17.08z" class="cls-6"/>
  <path fill="#c45e35" id="svg_15" d="m43.75,24.39c-8.71,-3.25 -21,-4.91 -22.49,-4.79c-0.12,1.75 1.87,15.92 4.46,21.87c5.83,-7.64 18.03,-17.08 18.03,-17.08z" class="cls-6"/>
  <path fill="#dd8e2f" stroke-width="2px" stroke-miterlimit="10" stroke="#000000" id="_Path_2" d="m91.67,89.1c0,15.67 -16.67,17.17 -16.67,19.67c0,-2.5 -16.67,-4 -16.67,-19.67c0,-9.48 4.64,-21 9.18,-28.67c3,-5 3.54,-5.44 7.49,-5.44s4.53,0.46 7.51,5.48c4.54,7.65 9.16,19.17 9.16,28.63z" class="cls-7"/>
  <path fill="#d6512d" id="svg_16" d="m87.34,99.09c-2.76,3.4 -6.66,5.22 -9.46,6.52a19.18,19.18 0 0 0 -2.88,1.52a19.18,19.18 0 0 0 -2.88,-1.52c-2.8,-1.3 -6.7,-3.12 -9.46,-6.52a28.41,28.41 0 0 1 24.68,0z" class="cls-8"/>
 </g>
</svg>