<?xml version="1.0" ?><svg id="icone" viewBox="0 0 512 512" xmlns="http://www.w3.org/2000/svg"><title/><path d="M366.5,188.92v.1a57.73,57.73,0,0,0-49.58,87.3,57.73,57.73,0,0,0,87.3-49.57h.1V188.92Z" fill="#60c3e5"/><path d="M201.33,298.16v.12A74,74,0,0,0,140,413.58a74,74,0,0,0,115.3-61.34h.12V298.16Z" fill="#60c3e5"/><path d="M237.32,107.4a40.76,40.76,0,0,0-37,57.79,40.76,40.76,0,0,0,57.79-37h.07V107.33H237.32Z" fill="#60c3e5"/><path d="M112.78,324.47c-.09.21-.16.43-.25.65" fill="none" stroke="#02005c" stroke-linecap="round" stroke-linejoin="round" stroke-width="20"/><path d="M107.43,349.53c0,.9-.06,1.8-.06,2.71a74,74,0,1,0,147.92,0h.12V278.15H181.33A73.9,73.9,0,0,0,126,303.21" fill="none" stroke="#02005c" stroke-linecap="round" stroke-linejoin="round" stroke-width="20"/><path d="M179.61,112.68c-.09.21-.16.43-.25.64" fill="none" stroke="#02005c" stroke-linecap="round" stroke-linejoin="round" stroke-width="20"/><path d="M177.76,138a40.76,40.76,0,0,0,80.32-9.84h.07V87.33H217.32v.07a40.56,40.56,0,0,0-21.83,6.35" fill="none" stroke="#02005c" stroke-linecap="round" stroke-linejoin="round" stroke-width="20"/><path d="M293.32,204.23c-.1.25-.19.51-.3.77" fill="none" stroke="#02005c" stroke-linecap="round" stroke-linejoin="round" stroke-width="20"/><path d="M288.84,229.52a57.72,57.72,0,0,0,115.38-2.77h.1V168.92H346.49v.1a57.5,57.5,0,0,0-38.7,14.9" fill="none" stroke="#02005c" stroke-linecap="round" stroke-linejoin="round" stroke-width="20"/></svg>