<?xml version="1.0" ?><svg id="icone" viewBox="0 0 512 512" xmlns="http://www.w3.org/2000/svg"><title/><path d="M425.5,105.48a340,340,0,0,0-320,320h40.08A300,300,0,0,1,425.5,145.56Z" fill="#eb4b28"/><path d="M425.5,143.12A302.49,302.49,0,0,0,143.12,425.5h40.07A262.58,262.58,0,0,1,425.5,183.19Z" fill="#fff133"/><path d="M180.76,425.5H220.9A225,225,0,0,1,425.5,220.9V180.76A265,265,0,0,0,180.76,425.5Z" fill="#60c3e5"/><path d="M218.46,425.5h54.89A151.56,151.56,0,0,1,425.5,273.35V218.46a227.43,227.43,0,0,0-207,207Z" fill="#1740b5"/><path d="M105.2,310.79c-.17.46-.33.91-.49,1.36" fill="none" stroke="#02005c" stroke-linecap="round" stroke-linejoin="round" stroke-width="20"/><path d="M97.25,336.12A339.63,339.63,0,0,0,85.5,425v.47H273.35A151.56,151.56,0,0,1,425.5,273.35V85.5H425a339.53,339.53,0,0,0-310.52,202" fill="none" stroke="#02005c" stroke-linecap="round" stroke-linejoin="round" stroke-width="20"/></svg>