<?xml version="1.0" ?><svg id="icone" viewBox="0 0 512 512" xmlns="http://www.w3.org/2000/svg"><title/><line fill="none" stroke="#02005c" stroke-linecap="round" stroke-linejoin="round" stroke-width="20" x1="64.3" x2="447.7" y1="256" y2="256"/><polyline fill="none" points="419.35 301 374.35 256 419.35 211" stroke="#02005c" stroke-linecap="round" stroke-linejoin="round" stroke-width="20"/><polyline fill="none" points="92.2 301 137.2 256 92.2 211" stroke="#02005c" stroke-linecap="round" stroke-linejoin="round" stroke-width="20"/><line fill="none" stroke="#02005c" stroke-linecap="round" stroke-linejoin="round" stroke-width="20" x1="170.5" x2="170.5" y1="224.5" y2="287.5"/><line fill="none" stroke="#02005c" stroke-linecap="round" stroke-linejoin="round" stroke-width="20" x1="341.5" x2="341.5" y1="224.5" y2="287.5"/><line fill="none" stroke="#02005c" stroke-linecap="round" stroke-linejoin="round" stroke-width="20" x1="160.15" x2="351.85" y1="422.02" y2="89.98"/><polyline fill="none" points="376.64 137.04 315.17 153.51 298.7 92.04" stroke="#02005c" stroke-linecap="round" stroke-linejoin="round" stroke-width="20"/><polyline fill="none" points="213.07 420.36 196.6 358.89 135.13 375.36" stroke="#02005c" stroke-linecap="round" stroke-linejoin="round" stroke-width="20"/><line fill="none" stroke="#02005c" stroke-linecap="round" stroke-linejoin="round" stroke-width="20" x1="185.97" x2="240.53" y1="314.3" y2="345.8"/><line fill="none" stroke="#02005c" stroke-linecap="round" stroke-linejoin="round" stroke-width="20" x1="271.47" x2="326.03" y1="166.2" y2="197.7"/><path d="M216.34,187.3C197,155,179,122,160.15,90" fill="none" stroke="#02005c" stroke-linecap="round" stroke-linejoin="round" stroke-width="20"/><path d="M232.07,214.48c-.58-1-.17-.28-.76-1.27" fill="none" stroke="#02005c" stroke-linecap="round" stroke-linejoin="round" stroke-width="20"/><path d="M327.34,380.07C306,343.15,285,306,263.8,269q-8.92-15.51-17.92-31" fill="none" stroke="#02005c" stroke-linecap="round" stroke-linejoin="round" stroke-width="20"/><path d="M351.85,422q-5.66-9.56-11.26-19.15" fill="none" stroke="#02005c" stroke-linecap="round" stroke-linejoin="round" stroke-width="20"/><polyline fill="none" points="213.3 92.04 196.83 153.51 135.35 137.04" stroke="#02005c" stroke-linecap="round" stroke-linejoin="round" stroke-width="20"/><polyline fill="none" points="376.87 375.36 315.4 358.89 298.93 420.36" stroke="#02005c" stroke-linecap="round" stroke-linejoin="round" stroke-width="20"/><line fill="none" stroke="#02005c" stroke-linecap="round" stroke-linejoin="round" stroke-width="20" x1="271.47" x2="326.03" y1="345.8" y2="314.3"/><line fill="none" stroke="#02005c" stroke-linecap="round" stroke-linejoin="round" stroke-width="20" x1="185.97" x2="240.53" y1="197.7" y2="166.2"/></svg>