<?xml version="1.0" ?><svg id="icone" viewBox="0 0 512 512" xmlns="http://www.w3.org/2000/svg"><title/><path d="M276,170a106,106,0,0,0-84.28,170.28A106,106,0,0,0,340.28,191.72,105.53,105.53,0,0,0,276,170Z" fill="#f7ad1e"/><path d="M150.9,242.12A107.63,107.63,0,0,0,150,256a106,106,0,1,0,19.59-61.37" fill="none" stroke="#02005c" stroke-linecap="round" stroke-linejoin="round" stroke-width="20"/><path d="M157.56,216.68c-.17.41-.34.81-.5,1.22" fill="none" stroke="#02005c" stroke-linecap="round" stroke-linejoin="round" stroke-width="20"/><line fill="none" stroke="#02005c" stroke-linecap="round" stroke-linejoin="round" stroke-width="20" x1="256" x2="256" y1="64" y2="123"/><line fill="none" stroke="#02005c" stroke-linecap="round" stroke-linejoin="round" stroke-width="20" x1="256" x2="256" y1="389" y2="447.99"/><line fill="none" stroke="#02005c" stroke-linecap="round" stroke-linejoin="round" stroke-width="20" x1="120.24" x2="161.96" y1="120.24" y2="161.95"/><line fill="none" stroke="#02005c" stroke-linecap="round" stroke-linejoin="round" stroke-width="20" x1="350.04" x2="391.76" y1="350.04" y2="391.76"/><line fill="none" stroke="#02005c" stroke-linecap="round" stroke-linejoin="round" stroke-width="20" x1="64" x2="123" y1="256" y2="256"/><line fill="none" stroke="#02005c" stroke-linecap="round" stroke-linejoin="round" stroke-width="20" x1="389" x2="448" y1="256" y2="256"/><line fill="none" stroke="#02005c" stroke-linecap="round" stroke-linejoin="round" stroke-width="20" x1="120.24" x2="161.96" y1="391.76" y2="350.04"/><line fill="none" stroke="#02005c" stroke-linecap="round" stroke-linejoin="round" stroke-width="20" x1="350.04" x2="391.76" y1="161.95" y2="120.24"/></svg>