<?xml version="1.0" ?><!DOCTYPE svg  PUBLIC '-//W3C//DTD SVG 1.1//EN'  'http://www.w3.org/Graphics/SVG/1.1/DTD/svg11.dtd'><svg enable-background="new 0 0 64 64" version="1.1" viewBox="0 0 64 64" xml:space="preserve" xmlns="http://www.w3.org/2000/svg" xmlns:xlink="http://www.w3.org/1999/xlink"><g id="Flag40"/><g id="Flag39"/><g id="Flag38"/><g id="Flag37"/><g id="Flag36"/><g id="Flag35"/><g id="Flag34"/><g id="Flag33"/><g id="Flag32"/><g id="Flag31"/><g id="Flag30"/><g id="Flag29"/><g id="Flag28"/><g id="Flag27"/><g id="Flag26"/><g id="Flag25"/><g id="Flag24"/><g id="Flag23"/><g id="Flag22"/><g id="Flag21"/><g id="Flag20"/><g id="Flag19"/><g id="Flag18"/><g id="Flag17"/><g id="Flag16"><g><rect fill="#3265A2" height="36" width="60" x="2" y="14"/><path d="M62,51H2c-0.5522,0-1-0.4478-1-1V14c0-0.5522,0.4478-1,1-1h60c0.5522,0,1,0.4478,1,1v36    C63,50.5522,62.5522,51,62,51z M3,49h58V15H3V49z" fill="#414042"/></g><g><polygon fill="#FCFCFC" points="62,24.6 62,40.27 29,40.27 29,50 12.73,50 12.73,40.27 2,40.27 2,24.6 12.73,24.6 12.73,14 29,14     29,24.6   "/><path d="M29,51H12.73c-0.5522,0-1-0.4478-1-1v-8.73H2c-0.5522,0-1-0.4478-1-1V24.6001c0-0.5522,0.4478-1,1-1h9.73    V14c0-0.5522,0.4478-1,1-1H29c0.5522,0,1,0.4478,1,1v9.6001h32c0.5522,0,1,0.4478,1,1V40.27c0,0.5522-0.4478,1-1,1H30V50    C30,50.5522,29.5522,51,29,51z M13.73,49H28v-8.73c0-0.5522,0.4478-1,1-1h32V25.6001H29c-0.5522,0-1-0.4478-1-1V15H13.73v9.6001    c0,0.5522-0.4478,1-1,1H3V39.27h9.73c0.5522,0,1,0.4478,1,1V49z" fill="#414042"/></g><g><polygon fill="#D34A4B" points="62,28.6 62,36.27 25,36.27 25,50 16.73,50 16.73,36.27 2,36.27 2,28.6 16.73,28.6 16.73,14 25,14     25,28.6   "/><path d="M25,51h-8.27c-0.5522,0-1-0.4478-1-1V37.27H2c-0.5522,0-1-0.4478-1-1v-7.6699c0-0.5522,0.4478-1,1-1h13.73    V14c0-0.5522,0.4478-1,1-1H25c0.5522,0,1,0.4478,1,1v13.6001h36c0.5522,0,1,0.4478,1,1V36.27c0,0.5522-0.4478,1-1,1H26V50    C26,50.5522,25.5522,51,25,51z M17.73,49H24V36.27c0-0.5522,0.4478-1,1-1h36v-5.6699H25c-0.5522,0-1-0.4478-1-1V15h-6.27v13.6001    c0,0.5522-0.4478,1-1,1H3V35.27h13.73c0.5522,0,1,0.4478,1,1V49z" fill="#414042"/></g></g><g id="Flag15"/><g id="Flag14"/><g id="Flag13"/><g id="Flag12"/><g id="Flag11"/><g id="Flag10"/><g id="Flag09"/><g id="Flag08"/><g id="Flag07"/><g id="Flag06"/><g id="Flag05"/><g id="Flag04"/><g id="Flag03"/><g id="Flag02"/><g id="Flag01"/></svg>