<?xml version="1.0" ?><!DOCTYPE svg  PUBLIC '-//W3C//DTD SVG 1.1//EN'  'http://www.w3.org/Graphics/SVG/1.1/DTD/svg11.dtd'><svg enable-background="new 0 0 64 64" version="1.1" viewBox="0 0 64 64" xml:space="preserve" xmlns="http://www.w3.org/2000/svg" xmlns:xlink="http://www.w3.org/1999/xlink"><g id="Flag40"/><g id="Flag39"/><g id="Flag38"/><g id="Flag37"/><g id="Flag36"/><g id="Flag35"/><g id="Flag34"/><g id="Flag33"/><g id="Flag32"/><g id="Flag31"/><g id="Flag30"/><g id="Flag29"/><g id="Flag28"/><g id="Flag27"/><g id="Flag26"/><g id="Flag25"/><g id="Flag24"/><g id="Flag23"/><g id="Flag22"/><g id="Flag21"/><g id="Flag20"/><g id="Flag19"><g><rect fill="#FFFFFF" height="36" width="60" x="2" y="14"/><path d="M62,51H2c-0.5527,0-1-0.4478-1-1V14c0-0.5522,0.4473-1,1-1h60c0.5527,0,1,0.4478,1,1v36    C63,50.5522,62.5527,51,62,51z M3,49h58V15H3V49z" fill="#414042"/></g><g><circle cx="32" cy="32" fill="#D34A4B" r="10"/><path d="M32,43c-6.0654,0-11-4.9346-11-11s4.9346-11,11-11s11,4.9346,11,11S38.0654,43,32,43z M32,23    c-4.9629,0-9,4.0376-9,9s4.0371,9,9,9s9-4.0376,9-9S36.9629,23,32,23z" fill="#414042"/></g></g><g id="Flag18"/><g id="Flag17"/><g id="Flag16"/><g id="Flag15"/><g id="Flag14"/><g id="Flag13"/><g id="Flag12"/><g id="Flag11"/><g id="Flag10"/><g id="Flag09"/><g id="Flag08"/><g id="Flag07"/><g id="Flag06"/><g id="Flag05"/><g id="Flag04"/><g id="Flag03"/><g id="Flag02"/><g id="Flag01"/></svg>