<?xml version="1.0" encoding="iso-8859-1"?>
<!-- Generator: Adobe Illustrator 19.0.0, SVG Export Plug-In . SVG Version: 6.00 Build 0)  -->
<svg version="1.1" id="Layer_1" xmlns="http://www.w3.org/2000/svg" xmlns:xlink="http://www.w3.org/1999/xlink" x="0px" y="0px"
	 viewBox="0 0 512.001 512.001" style="enable-background:new 0 0 512.001 512.001;" xml:space="preserve">
<polygon style="fill:#E02E00;" points="244.54,299.869 160.06,503.83 139.874,467.173 195.804,264.471 "/>
<polygon style="fill:#FF4719;" points="147.859,226.413 51.571,458.894 123.785,437.967 139.874,467.173 217.633,279.421 "/>
<polygon style="fill:#C20035;" points="267.46,299.869 351.94,503.83 372.126,467.173 316.196,264.471 "/>
<polygon style="fill:#FF0F47;" points="364.141,226.413 294.368,279.421 372.126,467.173 388.216,437.967 460.43,458.894 "/>
<path style="fill:#E89330;" d="M256,8.17l-54.468,156.453L256,321.076c86.406,0,156.453-70.046,156.453-156.453
	S342.406,8.17,256,8.17z"/>
<path style="fill:#FFBE35;" d="M99.547,164.623c0,86.406,70.046,156.453,156.453,156.453V8.17
	C169.594,8.17,99.547,78.216,99.547,164.623z"/>
<path style="fill:#FFDB8A;" d="M256,40.851v247.547c68.249,0,123.773-55.525,123.773-123.773S324.249,40.851,256,40.851z"/>
<path style="fill:#FFEAB5;" d="M256,40.851c-68.248,0-123.773,55.525-123.773,123.773S187.752,288.398,256,288.398
	c56.233,0,101.986-55.525,101.986-123.773S312.233,40.851,256,40.851z"/>
<polygon style="fill:#E89330;" points="256,73.532 283.644,126.574 342.633,136.474 300.73,179.156 309.543,238.316 256,211.653 
	202.458,238.316 211.271,179.156 169.368,136.474 228.357,126.574 "/>
<path d="M467.98,455.765l-67.783-163.642c-1.727-4.168-6.506-6.149-10.675-4.422c-4.169,1.727-6.149,6.507-4.422,10.675
	l61.278,147.936l-55.894-16.196c-3.669-1.064-7.587,0.559-9.43,3.906l-28.072,50.974l-65.751-158.737
	c75.888-14.634,133.389-81.542,133.389-161.637C420.623,73.85,346.774,0,256,0S91.377,73.85,91.377,164.623
	c0,36.767,12.118,70.755,32.568,98.186L44.02,455.765c-1.202,2.902-0.634,6.236,1.461,8.575c2.094,2.34,5.346,3.272,8.362,2.399
	l65.942-19.108l33.117,60.14c1.442,2.618,4.191,4.229,7.155,4.229c0.15,0,0.302-0.004,0.453-0.012
	c3.136-0.174,5.895-2.13,7.097-5.032l63.331-152.894c1.727-4.169-0.253-8.948-4.422-10.675c-4.169-1.727-8.948,0.253-10.675,4.422
	l-56.827,137.19l-28.07-50.974c-1.843-3.348-5.764-4.971-9.431-3.906l-55.893,16.196l70.152-169.362
	c30.064,32.158,72.835,52.295,120.226,52.295c4.891,0,9.731-0.228,14.516-0.647l73.878,178.358c1.202,2.902,3.961,4.857,7.096,5.031
	c0.153,0.009,0.303,0.013,0.454,0.013c2.964,0,5.713-1.611,7.154-4.229l33.118-60.14l65.942,19.109
	c3.019,0.875,6.267-0.059,8.362-2.399C468.615,462,469.182,458.667,467.98,455.765z M107.718,164.623
	C107.718,82.86,174.237,16.34,256,16.34s148.282,66.52,148.282,148.283S337.762,312.906,256,312.906
	C174.237,312.905,107.718,246.386,107.718,164.623z"/>
<path d="M350.403,133.949c-0.94-2.897-3.415-5.029-6.419-5.533l-54.977-9.226l-25.762-49.434c-1.407-2.701-4.199-4.394-7.245-4.394
	c-3.045,0-5.838,1.694-7.245,4.394l-25.763,49.434l-54.976,9.226c-3.003,0.503-5.477,2.636-6.419,5.533
	c-0.941,2.897-0.194,6.075,1.94,8.249l39.054,39.778l-8.214,55.137c-0.449,3.012,0.815,6.023,3.279,7.814
	c2.462,1.789,5.718,2.06,8.445,0.704L256,220.78L305.9,245.63c1.154,0.574,2.4,0.857,3.642,0.857c1.696,0,3.381-0.527,4.803-1.56
	c2.464-1.79,3.728-4.802,3.279-7.814l-8.213-55.137l39.054-39.779C350.597,140.024,351.345,136.846,350.403,133.949z
	 M294.899,173.432c-1.795,1.829-2.629,4.393-2.251,6.927l6.503,43.655l-39.509-19.675c-2.293-1.143-4.991-1.143-7.285,0
	l-39.509,19.675l6.503-43.655c0.378-2.535-0.455-5.099-2.251-6.927l-30.922-31.496l43.528-7.305
	c2.527-0.424,4.709-2.009,5.893-4.281L256,91.21l20.398,39.141c1.185,2.272,3.366,3.857,5.893,4.281l43.529,7.305L294.899,173.432z"
	/>
<path d="M379.765,172.864c-4.474-0.598-8.581,2.552-9.172,7.026C363.014,237.09,313.75,280.225,256,280.225
	c-63.743,0-115.602-51.858-115.602-115.602c0-63.743,51.859-115.602,115.602-115.602c57.75,0,107.013,43.134,114.592,100.335
	c0.592,4.474,4.706,7.627,9.172,7.026c4.472-0.593,7.619-4.7,7.025-9.172C378.141,81.918,321.913,32.681,256,32.681
	c-72.753,0-131.942,59.189-131.942,131.942S183.246,296.566,256,296.566c65.913,0,122.14-49.237,130.791-114.529
	C387.384,177.564,384.238,173.457,379.765,172.864z"/>
<g>
</g>
<g>
</g>
<g>
</g>
<g>
</g>
<g>
</g>
<g>
</g>
<g>
</g>
<g>
</g>
<g>
</g>
<g>
</g>
<g>
</g>
<g>
</g>
<g>
</g>
<g>
</g>
<g>
</g>
</svg>
