<svg width="512" height="512" xmlns="http://www.w3.org/2000/svg">

 <g>
  <title>background</title>
  <rect fill="none" id="canvas_background" height="402" width="582" y="-1" x="-1"/>
 </g>
 <g>
  <title>Layer 1</title>
  <path fill="#ffffff" id="svg_3" d="m437.019,74.981c-48.352,-48.353 -112.64,-74.981 -181.019,-74.981s-132.667,26.628 -181.018,74.981c-48.354,48.352 -74.982,112.64 -74.982,181.019s26.628,132.667 74.982,181.019c48.351,48.353 112.639,74.981 181.018,74.981s132.667,-26.628 181.019,-74.981s74.981,-112.64 74.981,-181.019s-26.628,-132.667 -74.981,-181.019zm-181.019,-58.813c53.148,0 102.304,17.389 142.103,46.759l-142.103,107.484l-142.103,-107.484c39.799,-29.37 88.955,-46.759 142.103,-46.759zm-191.326,384.275c-30.428,-40.205 -48.506,-90.25 -48.506,-144.443c0,-49.856 15.297,-96.202 41.436,-134.606l7.069,5.547l0,273.502l0.001,0zm285.4,-217.751c-3.815,2.993 -4.154,8.648 -0.725,12.077c2.892,2.892 7.489,3.169 10.707,0.643l71.102,-55.787l0,280.013c-43.8,46.854 -106.112,76.193 -175.158,76.193c-69.046,0 -131.358,-29.339 -175.158,-76.193l0,-280.013l170.167,133.513c1.465,1.149 3.227,1.725 4.991,1.725c1.763,0 3.526,-0.575 4.991,-1.725l67.859,-53.242c3.815,-2.993 4.155,-8.648 0.727,-12.077c-2.892,-2.892 -7.489,-3.169 -10.707,-0.643l-62.87,49.327l-188.851,-148.172c10.016,-12.781 21.306,-24.513 33.664,-35.027l150.31,113.691c2.884,2.182 6.869,2.182 9.754,0l150.311,-113.692c12.358,10.514 23.648,22.247 33.664,35.027l-94.778,74.362zm97.252,-55.752l7.069,-5.547c26.139,38.404 41.436,84.75 41.436,134.606c0,54.193 -18.077,104.238 -48.505,144.443l0,-273.502z"/>
 </g>
</svg>