<svg width="449.956" height="449.956" xmlns="http://www.w3.org/2000/svg">

 <g>
  <title>background</title>
  <rect fill="none" id="canvas_background" height="402" width="582" y="-1" x="-1"/>
 </g>
 <g>
  <title>Layer 1</title>
  <path fill="#ffffff" id="svg_2" d="m449.956,85.657c-17.702,7.614 -35.408,12.369 -53.102,14.279c19.985,-11.991 33.503,-28.931 40.546,-50.819c-18.281,10.847 -37.787,18.268 -58.532,22.267c-18.274,-19.414 -40.73,-29.125 -67.383,-29.125c-25.502,0 -47.246,8.992 -65.24,26.98c-17.984,17.987 -26.977,39.731 -26.977,65.235c0,6.851 0.76,13.896 2.284,21.128c-37.688,-1.903 -73.042,-11.372 -106.068,-28.407c-33.024,-17.037 -61.051,-39.735 -84.081,-68.094c-8.375,14.272 -12.564,29.787 -12.564,46.536c0,15.798 3.711,30.456 11.138,43.97c7.422,13.512 17.417,24.455 29.98,32.831c-14.849,-0.572 -28.743,-4.475 -41.684,-11.708l0,1.142c0,22.271 6.995,41.824 20.983,58.674c13.99,16.848 31.645,27.453 52.961,31.833c-7.995,2.091 -16.086,3.138 -24.269,3.138c-5.33,0 -11.136,-0.475 -17.416,-1.42c5.9,18.459 16.75,33.633 32.546,45.535c15.799,11.896 33.691,18.028 53.677,18.418c-33.498,26.262 -71.66,39.393 -114.486,39.393c-8.186,0 -15.607,-0.373 -22.27,-1.139c42.827,27.596 90.03,41.394 141.612,41.394c32.738,0 63.478,-5.181 92.21,-15.557c28.746,-10.369 53.297,-24.267 73.665,-41.686c20.362,-17.415 37.925,-37.448 52.674,-60.097c14.75,-22.651 25.738,-46.298 32.977,-70.946c7.23,-24.653 10.848,-49.344 10.848,-74.092c0,-5.33 -0.096,-9.325 -0.287,-11.991c18.087,-13.127 33.504,-29.023 46.258,-47.672z"/>
 </g>
</svg>