<?xml version="1.0" ?><!DOCTYPE svg  PUBLIC '-//W3C//DTD SVG 1.1 Tiny//EN'  'http://www.w3.org/Graphics/SVG/1.1/DTD/svg11-tiny.dtd'><svg baseProfile="tiny" version="1.1" viewBox="0 0 128 128" xml:space="preserve" xmlns="http://www.w3.org/2000/svg" xmlns:xlink="http://www.w3.org/1999/xlink"><g><g id="BACKGROUND"/><g id="Layer_3"><g><path d="M60,51.2h33.5c17.5,0,19.8,11.1,20,12.9c2.8,0,5.1,2.3,5.1,5.1v0      c0,2.8-2.3,5.1-5.1,5.1H24.1C9.2,74.3,9.4,61.9,9.4,51.2V43c0-0.9,0.7-1.6,1.6-1.6h3.8c0.9,0,1.4,0.8,1.6,1.6l2.5,8.2H60z" fill="#E0ECC1" fill-rule="evenodd"/><path d="M108.3,55.4c2.4,1.9,3.7,4.1,4.4,5.8h-9.5c-1.4,0-2.6-1.2-2.6-2.6v-0.8      c0-1.3,1.1-2.4,2.4-2.4H108.3z" fill="#002535" fill-rule="evenodd"/><path d="M77.5,51.2l-5.8-27.7c-0.6-2.8-2.4-5.3-5.3-5.3h-3.6c-2.9,0-5.3,2.4-5.3,5.3v27.7      H60H77.5z" fill="#EE464A" fill-rule="evenodd"/><path d="M26.9,55.4h0.5c1.4,0,2.6,1.2,2.6,2.6v0.5c0,1.4-1.2,2.6-2.6,2.6h-0.5      c-1.4,0-2.6-1.2-2.6-2.6V58C24.2,56.6,25.4,55.4,26.9,55.4z" fill="#002535" fill-rule="evenodd"/><path d="M36.4,55.4h0.5c1.4,0,2.6,1.2,2.6,2.6v0.5c0,1.4-1.2,2.6-2.6,2.6h-0.5      c-1.4,0-2.6-1.2-2.6-2.6V58C33.8,56.6,35,55.4,36.4,55.4z" fill="#002535" fill-rule="evenodd"/><path d="M45.9,55.4h0.5c1.4,0,2.6,1.2,2.6,2.6v0.5c0,1.4-1.2,2.6-2.6,2.6h-0.5      c-1.4,0-2.6-1.2-2.6-2.6V58C43.3,56.6,44.5,55.4,45.9,55.4z" fill="#002535" fill-rule="evenodd"/><path d="M55.5,55.4H56c1.4,0,2.6,1.2,2.6,2.6v0.5c0,1.4-1.2,2.6-2.6,2.6h-0.5      c-1.4,0-2.6-1.2-2.6-2.6V58C52.8,56.6,54,55.4,55.5,55.4z" fill="#002535" fill-rule="evenodd"/><path d="M65,55.4h0.5c1.4,0,2.6,1.2,2.6,2.6v0.5c0,1.4-1.2,2.6-2.6,2.6H65      c-1.4,0-2.6-1.2-2.6-2.6V58C62.3,56.6,63.5,55.4,65,55.4z" fill="#002535" fill-rule="evenodd"/><path d="M74.5,55.4H75c1.4,0,2.6,1.2,2.6,2.6v0.5c0,1.4-1.2,2.6-2.6,2.6h-0.5      c-1.4,0-2.6-1.2-2.6-2.6V58C71.9,56.6,73.1,55.4,74.5,55.4z" fill="#002535" fill-rule="evenodd"/><path d="M84,55.4h0.5c1.4,0,2.6,1.2,2.6,2.6v0.5c0,1.4-1.2,2.6-2.6,2.6H84      c-1.4,0-2.6-1.2-2.6-2.6V58C81.4,56.6,82.6,55.4,84,55.4z" fill="#002535" fill-rule="evenodd"/><path d="M93.6,55.4h0.5c1.4,0,2.6,1.2,2.6,2.6v0.5c0,1.4-1.2,2.6-2.6,2.6h-0.5      c-1.4,0-2.6-1.2-2.6-2.6V58C90.9,56.6,92.1,55.4,93.6,55.4z" fill="#002535" fill-rule="evenodd"/><path d="M62.8,64h11.1c2.9,0,5.9,2.4,5.3,5.3l-7.4,35.2c-0.6,2.8-2.4,5.3-5.3,5.3h-3.6      c-2.9,0-5.3-2.4-5.3-5.3V69.3C57.5,66.4,59.9,64,62.8,64z" fill="#EE464A" fill-rule="evenodd"/><path d="M62.8,109.8V74.3V69v-5c-2.8,0-5.1,2.2-5.3,5c0,0.1,0,0.2,0,0.2v5.1v30.2      C57.5,107.4,59.9,109.8,62.8,109.8z" fill="#E53839" fill-rule="evenodd"/><path d="M24.1,74.3h33.4v-5.1c0-0.1,0-0.2,0-0.2l-45.1,0.1C14.5,72.3,18.1,74.3,24.1,74.3z" fill="#E53839" fill-rule="evenodd"/><path d="M79.1,69.3L78,74.3h35.5c2.8,0,5.1-2.3,5.1-5.1c0-2.8-2.3-5.1-5.1-5.1l-4.8,4.8      L79.1,69C79.1,69.1,79.1,69.2,79.1,69.3z" fill="#E53839" fill-rule="evenodd"/><path d="M62.8,51.2v-33c-2.9,0-5.3,2.4-5.3,5.3v27.7H60H62.8z" fill="#E53839" fill-rule="evenodd"/></g></g><g id="GUIDELINE"/></g></svg>