<?xml version="1.0" ?><!DOCTYPE svg  PUBLIC '-//W3C//DTD SVG 1.1 Tiny//EN'  'http://www.w3.org/Graphics/SVG/1.1/DTD/svg11-tiny.dtd'><svg baseProfile="tiny" version="1.1" viewBox="0 0 128 128" xml:space="preserve" xmlns="http://www.w3.org/2000/svg" xmlns:xlink="http://www.w3.org/1999/xlink"><g><g id="BACKGROUND"/><g id="Layer_3"><g><path d="M18.5,87.5h89.8c1.2,0,2.2,1,2.2,2.2v18.9H37.7c-11.1,0-20.2-9.1-20.2-20.2v0      C17.6,87.9,18,87.5,18.5,87.5z" fill="#ECE46F" fill-rule="evenodd"/><path d="M69.1,22.8l0,64.7H52.4H35.8C36,63.1,42.7,38.1,69.1,22.8z" fill="#F7D309" fill-rule="evenodd"/><polygon fill="#DBBC26" fill-rule="evenodd" points="72.3,39.6 72.1,87.5 88.8,87.5 102.8,87.5     "/><path d="M110.4,99.1l-89.7,0.1c3.6,5.6,9.9,9.3,17,9.3h72.7L110.4,99.1z" fill="#D2CB60" fill-rule="evenodd"/><path d="M69.1,87.5h3.2V21c0-0.9-0.7-1.6-1.6-1.6h0c-0.9,0-1.6,0.7-1.6,1.6V87.5z" fill="#005E5D" fill-rule="evenodd"/></g></g><g id="GUIDELINE"/></g></svg>