<?xml version="1.0" ?><!DOCTYPE svg  PUBLIC '-//W3C//DTD SVG 1.1 Tiny//EN'  'http://www.w3.org/Graphics/SVG/1.1/DTD/svg11-tiny.dtd'><svg baseProfile="tiny" version="1.1" viewBox="0 0 128 128" xml:space="preserve" xmlns="http://www.w3.org/2000/svg" xmlns:xlink="http://www.w3.org/1999/xlink"><g><g id="BACKGROUND"/><g id="Layer_3"><g><path d="M12.6,82.1h100.5c3.2,0,5.8-2.6,5.8-5.8V63.8c0-2.1-1.7-3.9-3.9-3.9H27.6      c-10.2,0-18.6,8.4-18.6,18.6v0C9.1,80.5,10.7,82.1,12.6,82.1z" fill="#B0CA4B" fill-rule="evenodd"/><path d="M17.3,63.1c-2.6,1.8-4.8,4.2-6.2,7c0.7,0.5,1.6,0.7,2.5,0.7c2.6,0,4.7-2.1,4.7-4.7      C18.4,64.9,18,63.9,17.3,63.1z" fill="#F7D309" fill-rule="evenodd"/><path d="M12.6,82.1h100.5c3.2,0,5.8-2.6,5.8-5.8V75H9.4c-0.2,1.1-0.3,2.3-0.3,3.5v0      C9.1,80.5,10.7,82.1,12.6,82.1z" fill="#9BB440" fill-rule="evenodd"/><path d="M37.2,61.3h68.6v0c0-14.8-11.5-26.9-25.6-26.9H62.8C48.7,34.4,37.2,46.5,37.2,61.3      L37.2,61.3z" fill="#E0ECC1" fill-rule="evenodd"/><path d="M105.8,62.6H37.2c-0.7,0-1.4-0.6-1.4-1.4v0c0-7.7,3-14.8,7.9-19.9c4.9-5.1,11.7-8.3,19.1-8.3h17.4      c7.4,0,14.2,3.2,19.1,8.3c4.9,5.1,7.9,12.2,7.9,19.9v0C107.2,62,106.6,62.6,105.8,62.6z M38.6,59.9h65.9      c-0.3-6.5-3-12.4-7.1-16.7c-4.4-4.6-10.5-7.5-17.1-7.5H62.8c-6.7,0-12.7,2.9-17.1,7.5C41.6,47.6,38.9,53.4,38.6,59.9z" fill="#9BB440"/><circle cx="30.9" cy="82.1" fill="#002535" fill-rule="evenodd" r="12.9"/><circle cx="30.9" cy="82.1" fill="#E0ECC1" fill-rule="evenodd" r="5.8"/><circle cx="97.5" cy="82.1" fill="#002535" fill-rule="evenodd" r="12.9"/><circle cx="97.5" cy="82.1" fill="#E0ECC1" fill-rule="evenodd" r="5.8"/><path d="M70.2,34.4c0-0.7,0.6-1.4,1.4-1.4c0.7,0,1.4,0.6,1.4,1.4v26.9c0,0.7-0.6,1.4-1.4,1.4      c-0.7,0-1.4-0.6-1.4-1.4V34.4z" fill="#9BB440"/></g></g><g id="GUIDELINE"/></g></svg>