<?xml version="1.0" ?><!DOCTYPE svg  PUBLIC '-//W3C//DTD SVG 1.1 Tiny//EN'  'http://www.w3.org/Graphics/SVG/1.1/DTD/svg11-tiny.dtd'><svg baseProfile="tiny" version="1.1" viewBox="0 0 128 128" xml:space="preserve" xmlns="http://www.w3.org/2000/svg" xmlns:xlink="http://www.w3.org/1999/xlink"><g><g id="BACKGROUND"/><g id="Layer_3"><g><path d="M60.7,48.9h31.1c12.1,0,22,9.9,22,22v6.7c0,2.7-2.2,4.9-4.9,4.9H65.6      c-2.7,0-4.9-2.2-4.9-4.9v-9.3l-42.8-7.5c-3.1-0.6-4.1-2.4-4.1-5.3v-0.2v-6.5v-7.6c0-0.8,0.7-1.5,1.5-1.5h3.6      c0.8,0,1.3,0.7,1.5,1.5l2.4,7.6H60.7z" fill="#EE464A" fill-rule="evenodd"/><path d="M113.9,77.7c0,2.7-2.2,4.9-4.9,4.9H65.6c-2.7,0-4.9-2.2-4.9-4.9H113.9z" fill="#E53839" fill-rule="evenodd"/><path d="M113.9,70.9H87.1c-2.7,0-4.9-2.2-4.9-4.9V48.9h9.7C104,48.9,113.9,58.8,113.9,70.9      L113.9,70.9z" fill="#E0ECC1" fill-rule="evenodd"/><path d="M67.9,92.7h44.4c1,0,1.8,0.8,1.8,1.8v0c0,1-0.8,1.8-1.8,1.8H67.9      c-1,0-1.8-0.8-1.8-1.8v0C66.1,93.5,66.9,92.7,67.9,92.7z" fill="#005E5D" fill-rule="evenodd"/><rect fill="#002535" fill-rule="evenodd" height="10.1" width="3.7" x="77.7" y="82.5"/><rect fill="#002535" fill-rule="evenodd" height="10.1" width="3.7" x="98.9" y="82.5"/><path d="M82.2,48.9H68v-0.5c0-2.7,2.2-4.9,4.9-4.9h3.9C79.8,43.5,82.2,45.9,82.2,48.9z" fill="#E53839" fill-rule="evenodd"/><rect fill="#002535" fill-rule="evenodd" height="6.7" width="3.9" x="72.8" y="36.8"/><path d="M37.6,33.2h74.5c1,0,1.8,0.8,1.8,1.8v0c0,1-0.8,1.8-1.8,1.8H37.6      c-1,0-1.8-0.8-1.8-1.8v0C35.8,34,36.6,33.2,37.6,33.2z" fill="#005E5D" fill-rule="evenodd"/><path d="M73.9,38.3h1.9c1.3,0,2.4-1.1,2.4-2.4v-1.8c0-1.3-1.1-2.4-2.4-2.4h-1.9      c-1.3,0-2.4,1.1-2.4,2.4v1.8C71.4,37.2,72.5,38.3,73.9,38.3z" fill="#005E5D" fill-rule="evenodd"/></g></g><g id="GUIDELINE"/></g></svg>