<?xml version="1.0" ?><!DOCTYPE svg  PUBLIC '-//W3C//DTD SVG 1.1 Tiny//EN'  'http://www.w3.org/Graphics/SVG/1.1/DTD/svg11-tiny.dtd'><svg baseProfile="tiny" version="1.1" viewBox="0 0 128 128" xml:space="preserve" xmlns="http://www.w3.org/2000/svg" xmlns:xlink="http://www.w3.org/1999/xlink"><g><g id="BACKGROUND"/><g id="Layer_3"><g><path d="M46.6,19.7h34.8c4.7,0,8.5,3.8,8.5,8.5v48.8c0,4.7-3.8,8.5-8.5,8.5H46.6      c-4.7,0-8.5-3.8-8.5-8.5V28.2C38.1,23.5,41.9,19.7,46.6,19.7z" fill="#F68C29" fill-rule="evenodd"/><path d="M42.7,28.2h42.5c1.6,0,2.8,1.3,2.8,2.8v35.7c0,1.6-1.3,2.8-2.8,2.8H42.7      c-1.6,0-2.8-1.3-2.8-2.8V31C39.9,29.4,41.2,28.2,42.7,28.2z" fill="#E0ECC1" fill-rule="evenodd"/><path d="M85.3,29.7H42.7c-0.4,0-0.7,0.2-0.9,0.4c-0.2,0.2-0.4,0.6-0.4,0.9v35.7c0,0.4,0.1,0.7,0.4,0.9l0,0      c0.2,0.2,0.6,0.4,0.9,0.4h42.5c0.4,0,0.7-0.1,0.9-0.4c0.2-0.2,0.4-0.6,0.4-0.9V31c0-0.4-0.1-0.7-0.4-0.9l0,0      C86,29.8,85.6,29.7,85.3,29.7z M42.7,26.7h42.5c1.2,0,2.3,0.5,3,1.3l0,0c0.8,0.8,1.3,1.9,1.3,3v35.7c0,1.2-0.5,2.3-1.3,3      c-0.8,0.8-1.9,1.3-3,1.3H42.7c-1.2,0-2.3-0.5-3-1.3l0,0l0,0l0,0c-0.8-0.8-1.3-1.9-1.3-3V31c0-1.2,0.5-2.3,1.3-3      C40.5,27.2,41.5,26.7,42.7,26.7z" fill="#D77827"/><path d="M49.1,72.6L49.1,72.6c2.7,0,4.9,2.2,4.9,4.9v0c0,2.7-2.2,4.9-4.9,4.9h0      c-2.7,0-4.9-2.2-4.9-4.9v0C44.2,74.8,46.4,72.6,49.1,72.6z" fill="#F7D309" fill-rule="evenodd"/><path d="      M49.1,72.6L49.1,72.6c2.7,0,4.9,2.2,4.9,4.9v0c0,2.7-2.2,4.9-4.9,4.9h0c-2.7,0-4.9-2.2-4.9-4.9v0C44.2,74.8,46.4,72.6,49.1,72.6      z" fill="none" stroke="#D77827" stroke-linecap="round" stroke-linejoin="round" stroke-miterlimit="2.6131" stroke-width="3.2067"/><path d="M78.9,72.6L78.9,72.6c2.7,0,4.9,2.2,4.9,4.9v0c0,2.7-2.2,4.9-4.9,4.9h0      c-2.7,0-4.9-2.2-4.9-4.9v0C74.1,74.8,76.3,72.6,78.9,72.6z" fill="#F7D309" fill-rule="evenodd"/><path d="      M78.9,72.6L78.9,72.6c2.7,0,4.9,2.2,4.9,4.9v0c0,2.7-2.2,4.9-4.9,4.9h0c-2.7,0-4.9-2.2-4.9-4.9v0C74.1,74.8,76.3,72.6,78.9,72.6      z" fill="none" stroke="#D77827" stroke-linecap="round" stroke-linejoin="round" stroke-miterlimit="2.6131" stroke-width="3.2067"/><path d="M79.1,91.2H48.9l-22.4,23.9h11.6h51.8h11.6L79.1,91.2z M48.3,88.3h31.5c0.5,0,0.9,0.2,1.2,0.5l25.1,26.8      c0.6,0.6,0.5,1.5-0.1,2.1c-0.3,0.3-0.7,0.4-1,0.4v0h-15H38.1h-15c-0.8,0-1.5-0.7-1.5-1.5c0-0.4,0.2-0.8,0.5-1.1l25.1-26.8      C47.5,88.4,47.9,88.3,48.3,88.3L48.3,88.3z" fill="#005E5D"/><path d="M94.8,108l-9.1-9.7H42.3l-9.1,9.7H94.8z M87.5,95.9l11.8,12.6c0.6,0.6,0.5,1.5-0.1,2.1      c-0.3,0.3-0.7,0.4-1,0.4v0H29.7c-0.8,0-1.5-0.7-1.5-1.5c0-0.4,0.2-0.8,0.5-1.1l11.8-12.6c0.3-0.3,0.7-0.5,1.1-0.5v0h44.8      C86.9,95.4,87.3,95.6,87.5,95.9z" fill="#005E5D"/><rect fill="#005E5D" height="8.3" width="3" x="62.5" y="11.4"/><path d="M51.2,12.9c-0.8,0-1.5-0.7-1.5-1.5s0.7-1.5,1.5-1.5h25.6c0.8,0,1.5,0.7,1.5,1.5s-0.7,1.5-1.5,1.5H51.2z" fill="#005E5D"/><path d="M46.6,85.4v2.7c0,0.9,0.8,1.7,1.7,1.7c0.9,0,1.7-0.8,1.7-1.7v-2.7H46.6z" fill="#002535" fill-rule="evenodd"/><path d="M78.1,85.4v2.7c0,0.9,0.8,1.7,1.7,1.7h0c0.9,0,1.7-0.8,1.7-1.7v-2.7H78.1z" fill="#002535" fill-rule="evenodd"/></g></g><g id="GUIDELINE"/></g></svg>