<?xml version="1.0" ?><!DOCTYPE svg  PUBLIC '-//W3C//DTD SVG 1.1 Tiny//EN'  'http://www.w3.org/Graphics/SVG/1.1/DTD/svg11-tiny.dtd'><svg baseProfile="tiny" version="1.1" viewBox="0 0 128 128" xml:space="preserve" xmlns="http://www.w3.org/2000/svg" xmlns:xlink="http://www.w3.org/1999/xlink"><g><g id="BACKGROUND"/><g id="Layer_3"><g><path d="M42.5,25.4L64,20.8l21.5,4.6c2.2,0.5,4.1,1.8,4.1,4.1v6c0,2.2-1.8,4.1-4.1,4.1H42.5      c-2.2,0-4.1-1.8-4.1-4.1v-6C38.4,27.2,40.3,25.8,42.5,25.4z" fill="#2DB5AC" fill-rule="evenodd"/><path d="M38.4,29.4h-7.5c-1.7,0-3,1.4-3,3v0c0,1.7,1.4,3,3,3h7.5V29.4z" fill="#002535" fill-rule="evenodd"/><path d="M89.6,29.4h7.5c1.7,0,3,1.4,3,3v0c0,1.7-1.4,3-3,3h-7.5V29.4z" fill="#002535" fill-rule="evenodd"/><path d="M53.2,40.6h21.5c5.1,0,9.3,4.2,9.3,9.3v32.5c0,5.1-4.2,9.3-9.3,9.3H53.2      c-5.1,0-9.3-4.2-9.3-9.3V49.8C44,44.7,48.2,40.6,53.2,40.6z" fill="#219F97" fill-rule="evenodd"/><path d="M56.9,50.5h14.2c2.8,0,5.2,2.3,5.2,5.2v21c0,2.8-2.3,5.2-5.2,5.2H56.9      c-2.8,0-5.2-2.3-5.2-5.2v-21C51.7,52.8,54.1,50.5,56.9,50.5z" fill="#2DB5AC" fill-rule="evenodd"/><path d="M64,72.8L64,72.8c4.5,0,8.2,3.7,8.2,8.2v18.1c0,4.5-3.7,8.2-8.2,8.2      c-4.5,0-8.2-3.7-8.2-8.2V81C55.8,76.5,59.5,72.8,64,72.8z" fill="#002535" fill-rule="evenodd"/><circle cx="64" cy="32" fill="#219F97" fill-rule="evenodd" r="11.3"/><circle cx="64" cy="32" fill="#F7D309" fill-rule="evenodd" r="7.5"/></g></g><g id="GUIDELINE"/></g></svg>