<?xml version="1.0" ?><!DOCTYPE svg  PUBLIC '-//W3C//DTD SVG 1.1 Tiny//EN'  'http://www.w3.org/Graphics/SVG/1.1/DTD/svg11-tiny.dtd'><svg baseProfile="tiny" version="1.1" viewBox="0 0 128 128" xml:space="preserve" xmlns="http://www.w3.org/2000/svg" xmlns:xlink="http://www.w3.org/1999/xlink"><g><g id="BACKGROUND"/><g id="Layer_3"><g><path d="M12.8,78.9h50.6l12.1-17.5h40.6l-8.3,19.9c-0.1,0.5-0.4,1-0.6,1.5l-7.1,16.9H31.7      c-10.9,0-19.9-8.9-19.9-19.9v0C11.9,79.3,12.3,78.9,12.8,78.9z" fill="#2DB5AC" fill-rule="evenodd"/><path d="M30.7,78.9h32.8l12.1-17.5h31.3l-3.4-6.7c-1.3-2.6-2.3-5.2-5.2-5.2H35.9      c-2.9,0-5.2,2.3-5.2,5.2V78.9z" fill="#E0ECC1" fill-rule="evenodd"/><path d="M103.5,54.7c-1.3-2.6-2.3-5.2-5.2-5.2H35.9l-0.1,0l-0.1,0l-0.1,0l-0.1,0h0l-0.1,0      l-0.1,0l-0.1,0l-0.1,0l-0.1,0l-0.1,0l-0.1,0l-0.1,0l-0.1,0h0l-0.1,0l-0.1,0h0l-0.1,0L33.7,50h0l-0.1,0.1h0l-0.1,0.1h0l-0.1,0.1      h0l-0.1,0.1l-0.1,0.1l-0.1,0.1L33,50.4h0l-0.1,0.1h0l-0.1,0.1h0l-0.1,0.1h0l-0.1,0.1h0l-0.1,0.1h0l-0.1,0.1h0L32.3,51h0      l-0.1,0.1h0l-0.1,0.1h0L32,51.3h0l-0.1,0.1h0l-0.1,0.1h0l-0.1,0.1h0l-0.1,0.1h0l-0.1,0.1l-0.1,0.1h0l-0.1,0.1h0L31.4,52h0      l-0.1,0.1h0l-0.1,0.1h0l-0.1,0.1h0l-0.1,0.1h0l-0.1,0.1h0l-0.1,0.1h0l0,0.1h0l0,0.1h0l0,0.1h0l0,0.1h0l0,0.1h0l0,0.1h0l0,0.1h0      l0,0.1h0l0,0.1h0l0,0.1h0l0,0.1l0,0.1l0,0.1h0c0,0,0,0.1,0,0.1h0l0,0.1l0,0.1L103.5,54.7L103.5,54.7z" fill="#2DB5AC" fill-rule="evenodd"/><path d="M37.4,58.5H38c1.4,0,2.6,1.2,2.6,2.6v0.5c0,1.4-1.2,2.6-2.6,2.6h-0.5      c-1.4,0-2.6-1.2-2.6-2.6v-0.5C34.8,59.6,36,58.5,37.4,58.5z" fill="#002535" fill-rule="evenodd"/><path d="M46.9,58.5h0.5c1.4,0,2.6,1.2,2.6,2.6v0.5c0,1.4-1.2,2.6-2.6,2.6h-0.5      c-1.4,0-2.6-1.2-2.6-2.6v-0.5C44.3,59.6,45.5,58.5,46.9,58.5z" fill="#002535" fill-rule="evenodd"/><path d="M56.5,58.5H57c1.4,0,2.6,1.2,2.6,2.6v0.5c0,1.4-1.2,2.6-2.6,2.6h-0.5      c-1.4,0-2.6-1.2-2.6-2.6v-0.5C53.9,59.6,55,58.5,56.5,58.5z" fill="#002535" fill-rule="evenodd"/><path d="M66,58.5h0.5c1.4,0,2.6,1.2,2.6,2.6v0.5c0,1.4-1.2,2.6-2.6,2.6H66      c-1.4,0-2.6-1.2-2.6-2.6v-0.5C63.4,59.6,64.5,58.5,66,58.5z" fill="#002535" fill-rule="evenodd"/><path d="M39.9,49.5h17.6v-11c0-2.9-2.3-5.2-5.2-5.2h-7.2c-2.9,0-5.2,2.3-5.2,5.2V49.5z" fill="#E0ECC1" fill-rule="evenodd"/><path d="M57.5,38.5c0-2.9-2.3-5.2-5.2-5.2h-7.2c-2.9,0-5.2,2.3-5.2,5.2H57.5z" fill="#2DB5AC" fill-rule="evenodd"/><path d="M67.6,49.5h26v-17c0-2.3-1.9-4.2-4.2-4.2H71.8c-2.3,0-4.2,1.9-4.2,4.2V49.5z" fill="#E0ECC1" fill-rule="evenodd"/><path d="M93.6,32.5c0-2.3-1.9-4.2-4.2-4.2H71.8c-2.3,0-4.2,1.9-4.2,4.2H93.6z" fill="#2DB5AC" fill-rule="evenodd"/><path d="M75.4,35.6h0.5c1.4,0,2.6,1.2,2.6,2.6v0.5c0,1.4-1.2,2.6-2.6,2.6h-0.5      c-1.4,0-2.6-1.2-2.6-2.6v-0.5C72.8,36.8,74,35.6,75.4,35.6z" fill="#002535" fill-rule="evenodd"/><path d="M85.3,35.6h0.5c1.4,0,2.6,1.2,2.6,2.6v0.5c0,1.4-1.2,2.6-2.6,2.6h-0.5      c-1.4,0-2.6-1.2-2.6-2.6v-0.5C82.7,36.8,83.8,35.6,85.3,35.6z" fill="#002535" fill-rule="evenodd"/><path d="M31.7,99.7h68.4l4-9.3L15,90.5C18.5,96,24.7,99.7,31.7,99.7z" fill="#219F97" fill-rule="evenodd"/></g></g><g id="GUIDELINE"/></g></svg>