<?xml version="1.0" ?><!DOCTYPE svg  PUBLIC '-//W3C//DTD SVG 1.1 Tiny//EN'  'http://www.w3.org/Graphics/SVG/1.1/DTD/svg11-tiny.dtd'><svg baseProfile="tiny" version="1.1" viewBox="0 0 128 128" xml:space="preserve" xmlns="http://www.w3.org/2000/svg" xmlns:xlink="http://www.w3.org/1999/xlink"><g><g id="BACKGROUND"/><g id="Layer_3"><g><path d="M32,98.8h64c2.9,0,5.3-2.4,5.3-5.3V77.5c0-2.9-2.4-5.3-5.3-5.3h-4.1V40.4      c0-2.5-2.1-4.6-4.6-4.6H40.7c-2.5,0-4.6,2.1-4.6,4.6v31.7H32c-2.9,0-5.3,2.4-5.3,5.3v15.9C26.7,96.4,29.1,98.8,32,98.8z" fill="#B0CA4B" fill-rule="evenodd"/><path d="M32,98.8h64c2.9,0,5.3-2.4,5.3-5.3H26.7C26.7,96.4,29.1,98.8,32,98.8z" fill="#9BB440" fill-rule="evenodd"/><path d="M32,72.2h4.1V40.4c0-2.5,2.1-4.6,4.6-4.6h46.5c2.5,0,4.6,2.1,4.6,4.6v31.7H96v-51      c0-2.2-1.8-3.9-3.9-3.9H36c-2.2,0-3.9,1.8-3.9,3.9V72.2z" fill="#C6D8A8" fill-rule="evenodd"/><path d="M52.6,35.9v-7.3c0-0.9,0.7-1.6,1.6-1.6h0c0.9,0,1.6,0.7,1.6,1.6v7.3H52.6z" fill="#002535" fill-rule="evenodd"/><path d="M59.1,35.9v-7.3c0-0.9,0.7-1.6,1.6-1.6h0c0.9,0,1.6,0.7,1.6,1.6v7.3H59.1z" fill="#002535" fill-rule="evenodd"/><path d="M65.7,35.9v-7.3c0-0.9,0.7-1.6,1.6-1.6h0c0.9,0,1.6,0.7,1.6,1.6v7.3H65.7z" fill="#002535" fill-rule="evenodd"/><path d="M72.2,35.9v-7.3c0-0.9,0.7-1.6,1.6-1.6h0c0.9,0,1.6,0.7,1.6,1.6v7.3H72.2z" fill="#002535" fill-rule="evenodd"/><path d="M46.7,41.8h34.6c2.5,0,4.6,2.1,4.6,4.6v21.2c0,2.5-2.1,4.6-4.6,4.6H46.7      c-2.5,0-4.6-2.1-4.6-4.6V46.4C42.1,43.9,44.2,41.8,46.7,41.8z" fill="#E0ECC1" fill-rule="evenodd"/><path d="M81.3,43.2H46.7c-0.9,0-1.7,0.4-2.2,0.9c-0.6,0.6-0.9,1.4-0.9,2.2v21.2c0,0.9,0.4,1.7,0.9,2.2      c0.6,0.6,1.4,0.9,2.2,0.9h34.6c0.8,0,1.6-0.3,2.2-0.9c0,0,0,0,0.1-0.1c0.6-0.6,0.9-1.4,0.9-2.2V46.4c0-0.9-0.4-1.7-0.9-2.2l0,0      l0,0C83,43.6,82.2,43.2,81.3,43.2z M46.7,40.4h34.6c1.6,0,3.1,0.7,4.2,1.8l0,0c1.1,1.1,1.8,2.6,1.8,4.2v21.2      c0,1.7-0.7,3.2-1.8,4.2c0,0-0.1,0.1-0.1,0.1c-1.1,1-2.5,1.7-4.1,1.7H46.7c-1.7,0-3.2-0.7-4.2-1.8c-1.1-1.1-1.8-2.6-1.8-4.2V46.4      c0-1.7,0.7-3.2,1.8-4.2C43.5,41.1,45,40.4,46.7,40.4z" fill="#9BB440"/><path d="M38.6,79.3L38.6,79.3c2.5,0,4.6,2.1,4.6,4.6v0c0,2.5-2.1,4.6-4.6,4.6h0      C36,88.6,34,86.5,34,84v0C34,81.4,36,79.3,38.6,79.3z" fill="#F7D309" fill-rule="evenodd"/><path d="M38.6,80.8L38.6,80.8c-0.9,0-1.7,0.4-2.3,0.9l0,0c-0.6,0.6-0.9,1.4-0.9,2.3v0c0,0.9,0.4,1.7,0.9,2.3l0,0      c0.6,0.6,1.4,0.9,2.3,0.9h0c0.9,0,1.7-0.4,2.3-0.9l0,0c0.6-0.6,0.9-1.4,0.9-2.3v0c0-0.9-0.4-1.7-0.9-2.3l0,0l0,0      C40.3,81.1,39.5,80.8,38.6,80.8z M38.6,77.9L38.6,77.9c1.7,0,3.2,0.7,4.3,1.8l0,0c1.1,1.1,1.8,2.6,1.8,4.3v0      c0,1.7-0.7,3.2-1.8,4.3l0,0l0,0l0,0c-1.1,1.1-2.6,1.8-4.3,1.8h0c-1.7,0-3.2-0.7-4.3-1.8l0,0l0,0l0,0c-1.1-1.1-1.8-2.6-1.8-4.3v0      c0-1.7,0.7-3.2,1.8-4.3l0,0l0,0l0,0C35.4,78.6,36.9,77.9,38.6,77.9z" fill="#9BB440"/><path d="M89.4,79.3L89.4,79.3c2.5,0,4.6,2.1,4.6,4.6v0c0,2.5-2.1,4.6-4.6,4.6h0      c-2.5,0-4.6-2.1-4.6-4.6v0C84.8,81.4,86.9,79.3,89.4,79.3z" fill="#F7D309" fill-rule="evenodd"/><path d="M89.4,80.8L89.4,80.8c-0.9,0-1.7,0.4-2.3,0.9l0,0c-0.6,0.6-0.9,1.4-0.9,2.3v0c0,0.9,0.4,1.7,0.9,2.3l0,0      c0.6,0.6,1.4,0.9,2.3,0.9h0c0.9,0,1.7-0.4,2.3-0.9c0.6-0.6,0.9-1.4,0.9-2.3v0c0-0.9-0.4-1.7-0.9-2.3l0,0      C91.1,81.1,90.3,80.8,89.4,80.8z M89.4,77.9L89.4,77.9c1.7,0,3.2,0.7,4.3,1.8l0,0l0,0l0,0c1.1,1.1,1.8,2.6,1.8,4.3v0      c0,1.7-0.7,3.2-1.8,4.3l0,0c-1.1,1.1-2.6,1.8-4.3,1.8h0c-1.7,0-3.2-0.7-4.3-1.8l0,0l0,0l0,0c-1.1-1.1-1.8-2.6-1.8-4.3v0      c0-1.7,0.7-3.2,1.8-4.3l0,0l0,0l0,0C86.3,78.6,87.8,77.9,89.4,77.9z" fill="#9BB440"/><path d="M32,98.8h16.9v5.1c0,3.8-3.1,6.9-6.9,6.9h-3.1c-3.8,0-6.9-3.1-6.9-6.9V98.8z" fill="#002535" fill-rule="evenodd"/><path d="M79.1,98.8H96v5.1c0,3.8-3.1,6.9-6.9,6.9H86c-3.8,0-6.9-3.1-6.9-6.9V98.8z" fill="#002535" fill-rule="evenodd"/><path d="M50.1,79.3h27.9c0.9,0,1.6,0.7,1.6,1.6v0c0,0.9-0.7,1.6-1.6,1.6H50.1      c-0.9,0-1.6-0.7-1.6-1.6v0C48.5,80.1,49.2,79.3,50.1,79.3z" fill="#002535" fill-rule="evenodd"/><path d="M50.1,85.4h27.9c0.9,0,1.6,0.7,1.6,1.6v0c0,0.9-0.7,1.6-1.6,1.6H50.1      c-0.9,0-1.6-0.7-1.6-1.6v0C48.5,86.1,49.2,85.4,50.1,85.4z" fill="#002535" fill-rule="evenodd"/><path d="M32.2,47.6h0.6c1.9,0,3.4,1.5,3.4,3.4V63c0,1.9-1.5,3.4-3.4,3.4h-0.6      c-1.9,0-3.4-1.5-3.4-3.4V50.9C28.8,49.1,30.3,47.6,32.2,47.6z" fill="#002535" fill-rule="evenodd"/><path d="M95.2,47.6h0.6c1.9,0,3.4,1.5,3.4,3.4V63c0,1.9-1.5,3.4-3.4,3.4h-0.6      c-1.9,0-3.4-1.5-3.4-3.4V50.9C91.8,49.1,93.4,47.6,95.2,47.6z" fill="#002535" fill-rule="evenodd"/></g></g><g id="GUIDELINE"/></g></svg>