<svg width="48" height="48" xmlns="http://www.w3.org/2000/svg">

 <title/>
 <g>
  <title>background</title>
  <rect fill="none" id="canvas_background" height="402" width="582" y="-1" x="-1"/>
 </g>
 <g>
  <title>Layer 1</title>
  <path fill="#724f3d" id="_Path_" d="m16.38,6.32a10.88,10.88 0 0 1 10.88,10.87l0,14.19a1.24,1.24 0 0 1 -0.77,1.14l0,0a27.09,27.09 0 0 1 -20.22,0l0,0a1.23,1.23 0 0 1 -0.77,-1.14l0,-14.19a10.88,10.88 0 0 1 10.88,-10.87z" class="cls-1"/>
  <path fill="#a86c4d" id="_Path_2" d="m16.38,6.32a10.88,10.88 0 0 0 -10.88,10.87l0,3a10.88,10.88 0 0 1 21.76,0l0,-3a10.88,10.88 0 0 0 -10.88,-10.87z" class="cls-2"/>
  <path stroke-linejoin="round" stroke-linecap="round" stroke="#45413c" fill="none" id="_Path_3" d="m16.38,6.32a10.88,10.88 0 0 1 10.88,10.87l0,14.19a1.24,1.24 0 0 1 -0.77,1.14l0,0a27.09,27.09 0 0 1 -20.22,0l0,0a1.23,1.23 0 0 1 -0.77,-1.14l0,-14.19a10.88,10.88 0 0 1 10.88,-10.87z" class="cls-3"/>
  <ellipse opacity="0.15" fill="#45413c" ry="1.5" rx="15" id="_Ellipse_" cy="45.5" cx="16.38" class="cls-4"/>
  <path fill="#ffffff" id="_Rectangle_" d="m16.38,31.22l0,0a11.88,11.88 0 0 1 11.88,11.88l0,1.9a0,0 0 0 1 0,0l-23.76,0a0,0 0 0 1 0,0l0,-1.9a11.88,11.88 0 0 1 11.88,-11.88z" class="cls-5"/>
  <path fill="#e0e0e0" id="_Path_4" d="m16.38,31.22l0,0a11.88,11.88 0 0 0 -11.88,11.88l0,1.9l0,0a11.88,11.88 0 0 1 11.88,-11l0,0a11.87,11.87 0 0 1 11.83,11l0.05,0l0,-1.9a11.88,11.88 0 0 0 -11.88,-11.88z" class="cls-6"/>
  <path stroke-linejoin="round" stroke-linecap="round" stroke="#45413c" fill="none" id="_Rectangle_2" d="m16.38,31.22l0,0a11.88,11.88 0 0 1 11.88,11.88l0,1.9a0,0 0 0 1 0,0l-23.76,0a0,0 0 0 1 0,0l0,-1.9a11.88,11.88 0 0 1 11.88,-11.88z" class="cls-3"/>
  <path fill="#f0f0f0" stroke-linejoin="round" stroke-linecap="round" stroke="#45413c" id="_Path_5" d="m12.63,45l-2,-5.29l1.2,-1.6l-1.1,-0.53a13.25,13.25 0 0 1 0.05,-3.75c0.22,-1.49 0.89,-3.83 5.6,-3.83s5.41,2.3 5.63,3.79a13,13 0 0 1 0.06,3.75l-1.07,0.57l1.21,1.6l-2,5.29l-7.58,0z" class="cls-7"/>
  <path fill="#00dfeb" stroke-linejoin="round" stroke-linecap="round" stroke="#45413c" id="_Path_6" d="m18.92,31.5a11.71,11.71 0 0 0 -5.09,0l0,1.07a46.11,46.11 0 0 0 1.42,12.43l2.25,0a46.11,46.11 0 0 0 1.42,-12.43l0,-1.07z" class="cls-8"/>
  <path fill="#ffe500" id="_Path_7" d="m16.38,35.86l0,0c-1.41,0 -2.55,-1.89 -2.55,-3.29l0,-2.85a2.55,2.55 0 0 1 2.55,-2.55l0,0a2.55,2.55 0 0 1 2.54,2.55l0,2.85c0,1.43 -1.14,3.29 -2.54,3.29z" class="cls-9"/>
  <path fill="#ebcb00" id="_Path_8" d="m16.38,27.69a2.55,2.55 0 0 0 -2.55,2.55l0,0.59a2.55,2.55 0 1 0 5.09,0l0,-0.59a2.55,2.55 0 0 0 -2.54,-2.55z" class="cls-10"/>
  <path stroke-linejoin="round" stroke-linecap="round" stroke="#45413c" fill="none" id="_Path_9" d="m16.38,35.86l0,0c-1.41,0 -2.55,-1.89 -2.55,-3.29l0,-2.85a2.55,2.55 0 0 1 2.55,-2.55l0,0a2.55,2.55 0 0 1 2.54,2.55l0,2.85c0,1.43 -1.14,3.29 -2.54,3.29z" class="cls-3"/>
  <line stroke-linejoin="round" stroke-linecap="round" stroke="#45413c" fill="none" y2="42.59" y1="45" x2="9.44" x1="9.44" id="_Path_10" class="cls-3"/>
  <line stroke-linejoin="round" stroke-linecap="round" stroke="#45413c" fill="none" y2="42.59" y1="45" x2="23.32" x1="23.32" id="_Path_11" class="cls-3"/>
  <path fill="#ffe500" stroke-linejoin="round" stroke-linecap="round" stroke="#45413c" id="_Path_12" d="m25.44,19.47a8.77,8.77 0 0 1 -5.67,-5l-0.62,-1.47a15.92,15.92 0 0 1 -9.95,6.13l-1.89,0.34a1.81,1.81 0 0 0 0,3.62l0.11,0a9.05,9.05 0 0 0 17.91,0l0.11,0a1.81,1.81 0 1 0 0,-3.62z" class="cls-11"/>
  <path fill="#45413c" stroke-linejoin="round" stroke-linecap="round" stroke="#45413c" id="_Path_13" d="m10.94,20.91a0.78,0.78 0 1 0 0.78,-0.77a0.77,0.77 0 0 0 -0.78,0.77z" class="cls-12"/>
  <path fill="#45413c" stroke-linejoin="round" stroke-linecap="round" stroke="#45413c" id="_Path_14" d="m21.81,20.91a0.77,0.77 0 1 1 -0.77,-0.77a0.76,0.76 0 0 1 0.77,0.77z" class="cls-12"/>
  <path fill="#ff6242" id="_Path_15" d="m13.54,25.6a0.42,0.42 0 0 0 -0.33,0.16a0.46,0.46 0 0 0 -0.11,0.35a3.32,3.32 0 0 0 6.55,0a0.45,0.45 0 0 0 -0.1,-0.35a0.44,0.44 0 0 0 -0.34,-0.16l-5.67,0z" class="cls-13"/>
  <path fill="#ffa694" id="_Path_16" d="m16.38,27a4,4 0 0 0 -2.52,0.77a3.36,3.36 0 0 0 5,0a4,4 0 0 0 -2.48,-0.77z" class="cls-14"/>
  <path stroke-linejoin="round" stroke-linecap="round" stroke="#45413c" fill="none" id="_Path_17" d="m13.54,25.6a0.42,0.42 0 0 0 -0.33,0.16a0.46,0.46 0 0 0 -0.11,0.35a3.32,3.32 0 0 0 6.55,0a0.45,0.45 0 0 0 -0.1,-0.35a0.44,0.44 0 0 0 -0.34,-0.16l-5.67,0z" class="cls-3"/>
  <ellipse fill="#ffaa54" ry="0.6" rx="1" id="_Ellipse_2" cy="24.19" cx="10.44" class="cls-15"/>
  <ellipse fill="#ffaa54" ry="0.6" rx="1" id="_Ellipse_3" cy="24.19" cx="22.32" class="cls-15"/>
  <path fill="#ffe500" id="_Path_18" d="m24.42,36.26l-0.36,3.67a3.93,3.93 0 0 0 2.31,4l1.8,0.83a3.08,3.08 0 0 0 4.23,-1.86l1.23,-3l-6.7,-2.68l-0.47,1.19l0.08,-1.09a1.45,1.45 0 0 0 -1.54,-1.65l0,0a0.66,0.66 0 0 0 -0.58,0.59z" class="cls-9"/>
  <path fill="#fff48c" id="_Path_19" d="m24.42,37.67a0.64,0.64 0 0 1 0.62,-0.58a1.43,1.43 0 0 1 1.43,1l0.07,-0.87a1.45,1.45 0 0 0 -1.54,-1.55a0.66,0.66 0 0 0 -0.62,0.59l-0.36,3.67a3.66,3.66 0 0 0 0.05,1l0.35,-3.26z" class="cls-16"/>
  <path stroke-linejoin="round" stroke-linecap="round" stroke="#45413c" fill="none" id="_Path_20" d="m24.42,36.26l-0.36,3.67a3.93,3.93 0 0 0 2.31,4l1.8,0.83a3.08,3.08 0 0 0 4.23,-1.86l1.23,-3l-6.7,-2.68l-0.47,1.19l0.08,-1.09a1.45,1.45 0 0 0 -1.54,-1.65l0,0a0.66,0.66 0 0 0 -0.58,0.59z" class="cls-3"/>
  <rect fill="#80ddff" y="19.04" x="44.79" width="3.13" transform="rotate(21.770000457763672 14.609999656677239,-9.399999618530275) " id="_Rectangle_3" height="9.68" class="cls-17"/>
  <polygon fill="#ff6196" points="30.77 31.52 28.5 37.2 31.41 38.36 34.14 31.52 30.77 31.52" id="_Path_21" class="cls-18"/>
  <rect stroke-linejoin="round" stroke-linecap="round" stroke="#45413c" fill="none" y="19.04" x="44.79" width="3.13" transform="rotate(21.770000457763672 14.609999656677239,-9.399999618530275) " id="_Rectangle_4" height="9.68" class="cls-3"/>
  <rect fill="#f0f0f0" stroke-linejoin="round" stroke-linecap="round" stroke="#45413c" y="15.28" x="45.77" width="1.84" transform="rotate(21.770000457763672 12.609999656677237,-10.689999580383299) " id="_Rectangle_5" height="2.92" class="cls-7"/>
  <line stroke-linejoin="round" stroke-linecap="round" stroke="#45413c" fill="none" y2="22.48" y1="26.07" x2="36.06" x1="34.63" id="_Path_22" class="cls-3"/>
  <rect fill="#f0f0f0" stroke-linejoin="round" stroke-linecap="round" stroke="#45413c" y="29.64" x="45.07" width="1.84" transform="rotate(21.770000457763672 16.829999923706048,-7.980000019073479) " id="_Rectangle_6" height="4.27" class="cls-7"/>
  <line stroke-linejoin="round" stroke-linecap="round" stroke="#45413c" fill="none" y2="38.99" y1="36.57" x2="32.99" x1="26.92" id="_Path_23" class="cls-3"/>
  <line stroke-linejoin="round" stroke-linecap="round" stroke="#45413c" fill="none" y2="42.42" y1="41.06" x2="30.07" x1="26.67" id="_Path_24" class="cls-3"/>
  <path fill="#ffe500" transform="rotate(8.75 5.960000038146976,-3.779999971389768) " id="_Rectangle_7" d="m33.64,31.22l0,0a1.13,1.13 0 0 1 1.13,1.13l0,1.87a1.12,1.12 0 0 1 -1.12,1.12l0,0a1.13,1.13 0 0 1 -1.14,-1.12l0,-1.85a1.12,1.12 0 0 1 1.13,-1.15z" class="cls-9"/>
  <path fill="#fff48c" id="_Path_25" d="m26.71,37.52a1.12,1.12 0 0 1 1.29,-0.94a1.1,1.1 0 0 1 0.81,0.6l0.13,-0.85a1.12,1.12 0 0 0 -2.23,-0.33l-0.28,1.85a1.07,1.07 0 0 0 0.13,0.68l0.15,-1.01z" class="cls-16"/>
  <path stroke-linejoin="round" stroke-linecap="round" stroke="#45413c" fill="none" transform="rotate(8.75 5.960000038146976,-3.779999971389768) " id="_Rectangle_8" d="m33.64,31.22l0,0a1.13,1.13 0 0 1 1.13,1.13l0,1.87a1.12,1.12 0 0 1 -1.12,1.12l0,0a1.13,1.13 0 0 1 -1.14,-1.12l0,-1.85a1.12,1.12 0 0 1 1.13,-1.15z" class="cls-3"/>
  <rect fill="#ffe500" stroke-linejoin="round" stroke-linecap="round" stroke="#45413c" y="24.57" x="70.839999" width="2.13" transform="rotate(49.599998474121094 39.959999084472656,-11.060000419616703) " ry="1.06" rx="1.06" id="_Rectangle_9" height="4.16" class="cls-11"/>
  <rect fill="#ffe500" stroke-linejoin="round" stroke-linecap="round" stroke="#45413c" y="26.79" x="73.549998" width="2.13" transform="rotate(49.599998474121094 41.849998474121094,-10.939999580383306) " ry="1.06" rx="1.06" id="_Rectangle_10" height="4.16" class="cls-11"/>
  <path fill="#ff6196" stroke-linejoin="round" stroke-linecap="round" stroke="#45413c" id="_Path_26" d="m38.84,18.81a4.44,4.44 0 0 1 2.43,-2.24c1.73,-0.47 3.07,1.16 1.79,2.14c-1.51,1.16 -2.31,-0.63 -4.22,0.1z" class="cls-19"/>
  <path fill="#ff6196" stroke-linejoin="round" stroke-linecap="round" stroke="#45413c" id="_Path_27" d="m36.33,20a3.73,3.73 0 0 0 0.67,-2.71c-0.38,-1.46 -2.13,-1.77 -2.32,-0.41c-0.25,1.59 1.39,1.42 1.65,3.12z" class="cls-19"/>
 </g>
</svg>