<svg width="48" height="48" xmlns="http://www.w3.org/2000/svg">

 <title/>
 <g>
  <title>background</title>
  <rect fill="none" id="canvas_background" height="402" width="582" y="-1" x="-1"/>
 </g>
 <g>
  <title>Layer 1</title>
  <path fill="#724f3d" id="_Path_" d="m24,6.32a10.88,10.88 0 0 1 10.88,10.87l0,14.19a1.24,1.24 0 0 1 -0.77,1.14l0,0a27.09,27.09 0 0 1 -20.22,0l0,0a1.24,1.24 0 0 1 -0.77,-1.14l0,-14.19a10.88,10.88 0 0 1 10.88,-10.87z" class="cls-1"/>
  <path fill="#a86c4d" id="_Path_2" d="m24,6.32a10.88,10.88 0 0 0 -10.88,10.87l0,3a10.88,10.88 0 0 1 21.76,0l0,-3a10.88,10.88 0 0 0 -10.88,-10.87z" class="cls-2"/>
  <path stroke-linejoin="round" stroke-linecap="round" stroke="#45413c" fill="none" id="_Path_3" d="m24,6.32a10.88,10.88 0 0 1 10.88,10.87l0,14.19a1.24,1.24 0 0 1 -0.77,1.14l0,0a27.09,27.09 0 0 1 -20.22,0l0,0a1.24,1.24 0 0 1 -0.77,-1.14l0,-14.19a10.88,10.88 0 0 1 10.88,-10.87z" class="cls-3"/>
  <ellipse opacity="0.15" fill="#45413c" ry="1.5" rx="15" id="_Ellipse_" cy="45.5" cx="24" class="cls-4"/>
  <path fill="#ffffff" id="_Rectangle_" d="m24,31.22l0,0a11.88,11.88 0 0 1 11.88,11.88l0,1.9a0,0 0 0 1 0,0l-23.76,0a0,0 0 0 1 0,0l0,-1.9a11.88,11.88 0 0 1 11.88,-11.88z" class="cls-5"/>
  <path fill="#e0e0e0" id="_Path_4" d="m24,31.22a11.88,11.88 0 0 0 -11.88,11.88l0,1.9l0.06,0a11.87,11.87 0 0 1 23.64,0l0.06,0l0,-1.9a11.88,11.88 0 0 0 -11.88,-11.88z" class="cls-6"/>
  <path stroke-linejoin="round" stroke-linecap="round" stroke="#45413c" fill="none" id="_Rectangle_2" d="m24,31.22l0,0a11.88,11.88 0 0 1 11.88,11.88l0,1.9a0,0 0 0 1 0,0l-23.76,0a0,0 0 0 1 0,0l0,-1.9a11.88,11.88 0 0 1 11.88,-11.88z" class="cls-3"/>
  <path fill="#f0f0f0" stroke-linejoin="round" stroke-linecap="round" stroke="#45413c" id="svg_1" d="m30.67,33.26s-1.91,-2.85 -6.67,-2.85s-6.67,2.85 -6.67,2.85l2,1.85l-0.77,2.83l5.44,4.39l5.43,-4.39l-0.77,-2.83l2.01,-1.85z" class="cls-7"/>
  <path fill="#00dba8" stroke-linejoin="round" stroke-linecap="round" stroke="#45413c" id="_Path_5" d="m26.54,32.57l0,1.82a5.49,5.49 0 0 1 -2.54,4.61l0,0a5.49,5.49 0 0 1 -2.54,-4.65l0,-1.78l5.08,0z" class="cls-8"/>
  <rect fill="#ffe500" y="27.17" x="21.46" width="5.09" ry="2.54" rx="2.54" id="_Rectangle_3" height="7.94" class="cls-9"/>
  <path fill="#ebcb00" id="_Path_6" d="m24,27.17a2.54,2.54 0 0 0 -2.54,2.54l0,0.6a2.54,2.54 0 0 0 5.08,0l0,-0.59a2.54,2.54 0 0 0 -2.54,-2.55z" class="cls-10"/>
  <rect stroke-linejoin="round" stroke-linecap="round" stroke="#45413c" fill="none" y="27.17" x="21.46" width="5.09" ry="2.54" rx="2.54" id="_Rectangle_4" height="7.94" class="cls-3"/>
  <line stroke-linejoin="round" stroke-linecap="round" stroke="#45413c" fill="none" y2="42.59" y1="45" x2="17.06" x1="17.06" id="_Path_7" class="cls-3"/>
  <line stroke-linejoin="round" stroke-linecap="round" stroke="#45413c" fill="none" y2="42.59" y1="45" x2="30.94" x1="30.94" id="_Path_8" class="cls-3"/>
  <line stroke-linejoin="round" stroke-linecap="round" stroke="#45413c" fill="none" y2="45" y1="39.04" x2="24" x1="24" id="_Path_9" class="cls-3"/>
  <path fill="#80ddff" id="_Rectangle_5" d="m34.87,29l4.73,0a0,0 0 0 1 0,0l0,15.68a2.36,2.36 0 0 1 -2.36,2.32l0,0a2.36,2.36 0 0 1 -2.36,-2.36l0,-15.64a0,0 0 0 1 -0.01,0z" class="cls-11"/>
  <path fill="#b8ecff" id="_Path_10" d="m39.6,29.48l-4.73,6.78l0,8.42a2.37,2.37 0 0 0 4.73,0l0,-15.2z" class="cls-12"/>
  <path stroke-linejoin="round" stroke-linecap="round" stroke="#45413c" fill="none" id="_Rectangle_6" d="m34.87,29l4.73,0a0,0 0 0 1 0,0l0,15.68a2.36,2.36 0 0 1 -2.36,2.32l0,0a2.36,2.36 0 0 1 -2.36,-2.36l0,-15.64a0,0 0 0 1 -0.01,0z" class="cls-3"/>
  <path fill="#ff6196" id="_Rectangle_7" d="m34.87,32.74l4.73,0a0,0 0 0 1 0,0l0,11.94a2.36,2.36 0 0 1 -2.36,2.32l0,0a2.36,2.36 0 0 1 -2.36,-2.36l0,-11.9a0,0 0 0 1 -0.01,0z" class="cls-13"/>
  <path fill="#ff87af" id="_Path_11" d="m34.87,36.26l0,8.42a2.37,2.37 0 0 0 4.73,0l0,-11.94l-2.27,0l-2.46,3.52z" class="cls-14"/>
  <path stroke-linejoin="round" stroke-linecap="round" stroke="#45413c" fill="none" id="_Rectangle_8" d="m34.87,32.74l4.73,0a0,0 0 0 1 0,0l0,11.94a2.36,2.36 0 0 1 -2.36,2.32l0,0a2.36,2.36 0 0 1 -2.36,-2.36l0,-11.9a0,0 0 0 1 -0.01,0z" class="cls-3"/>
  <rect fill="#80ddff" stroke-linejoin="round" stroke-linecap="round" stroke="#45413c" y="27.07" x="34.1" width="6.27" ry="0.96" rx="0.96" id="_Rectangle_9" height="1.92" class="cls-15"/>
  <rect fill="#00dba8" y="36.44" x="37.43" width="4.33" ry="1.15" rx="1.15" id="_Rectangle_10" height="2.31" class="cls-16"/>
  <path fill="#00f5bc" id="svg_2" d="m38.59,37.59l2,0a1.16,1.16 0 0 1 1,0.58a1.15,1.15 0 0 0 0.16,-0.58a1.16,1.16 0 0 0 -1.16,-1.15l-2,0a1.16,1.16 0 0 0 -1.16,1.15a1.15,1.15 0 0 0 0.16,0.58a1.16,1.16 0 0 1 1,-0.58z" class="cls-17"/>
  <rect stroke-linejoin="round" stroke-linecap="round" stroke="#45413c" fill="none" y="36.44" x="37.43" width="4.33" ry="1.15" rx="1.15" id="_Rectangle_11" height="2.31" class="cls-3"/>
  <rect fill="#00dba8" stroke-linejoin="round" stroke-linecap="round" stroke="#45413c" y="38.75" x="37.43" width="4.33" ry="1.15" rx="1.15" id="_Rectangle_12" height="2.31" class="cls-8"/>
  <rect fill="#00dba8" stroke-linejoin="round" stroke-linecap="round" stroke="#45413c" y="41.05" x="37.43" width="4.33" ry="1.15" rx="1.15" id="_Rectangle_13" height="2.31" class="cls-8"/>
  <path fill="#00dba8" id="_Rectangle_14" d="m33.33,35l0,0a1.54,1.54 0 0 1 1.54,1.54l0,6.73a0,0 0 0 1 0,0l0,0a2.34,2.34 0 0 1 -2.34,-2.34l0,-5.13a0.79,0.79 0 0 1 0.8,-0.8z" class="cls-16"/>
  <path fill="#00f5bc" id="_Path_12" d="m33.33,35a0.79,0.79 0 0 0 -0.79,0.8l0,1.91a0.79,0.79 0 0 1 0.79,-0.79a1.54,1.54 0 0 1 1.54,1.54l0,-1.91a1.54,1.54 0 0 0 -1.54,-1.55z" class="cls-17"/>
  <path stroke-linejoin="round" stroke-linecap="round" stroke="#45413c" fill="none" id="_Rectangle_15" d="m33.33,35l0,0a1.54,1.54 0 0 1 1.54,1.54l0,6.73a0,0 0 0 1 0,0l0,0a2.34,2.34 0 0 1 -2.34,-2.34l0,-5.13a0.79,0.79 0 0 1 0.8,-0.8z" class="cls-3"/>
  <circle fill="#e5feff" stroke-linejoin="round" stroke-linecap="round" stroke="#45413c" r="0.94" id="_Path_13" cy="24.21" cx="38.04" class="cls-18"/>
  <circle fill="#e5feff" stroke-linejoin="round" stroke-linecap="round" stroke="#45413c" r="0.94" id="_Path_14" cy="16.68" cx="37.79" class="cls-18"/>
  <circle fill="#e5feff" stroke-linejoin="round" stroke-linecap="round" stroke="#45413c" r="1.5" id="_Path_15" cy="19.54" cx="40.89" class="cls-18"/>
  <path fill="#ffe500" stroke-linejoin="round" stroke-linecap="round" stroke="#45413c" id="_Path_16" d="m33.07,19.47a8.77,8.77 0 0 1 -5.68,-5l-0.62,-1.47a15.92,15.92 0 0 1 -9.95,6.18l-1.88,0.34a1.81,1.81 0 1 0 0,3.62l0.11,0a9,9 0 0 0 17.9,0l0.12,0a1.81,1.81 0 1 0 0,-3.62l0,-0.05z" class="cls-19"/>
  <path fill="#ff6242" id="_Path_17" d="m21.16,25.6a0.44,0.44 0 0 0 -0.33,0.16a0.42,0.42 0 0 0 -0.1,0.35a3.32,3.32 0 0 0 6.54,0a0.42,0.42 0 0 0 -0.1,-0.35a0.44,0.44 0 0 0 -0.33,-0.16l-5.68,0z" class="cls-20"/>
  <path fill="#ffa694" id="_Path_18" d="m24,27a4,4 0 0 0 -2.52,0.77a3.36,3.36 0 0 0 5,0a4,4 0 0 0 -2.48,-0.77z" class="cls-21"/>
  <path stroke-linejoin="round" stroke-linecap="round" stroke="#45413c" fill="none" id="_Path_19" d="m21.16,25.6a0.44,0.44 0 0 0 -0.33,0.16a0.42,0.42 0 0 0 -0.1,0.35a3.32,3.32 0 0 0 6.54,0a0.42,0.42 0 0 0 -0.1,-0.35a0.44,0.44 0 0 0 -0.33,-0.16l-5.68,0z" class="cls-3"/>
  <ellipse fill="#ffaa54" ry="0.6" rx="1" id="_Ellipse_2" cy="24.79" cx="18.06" class="cls-22"/>
  <ellipse fill="#ffaa54" ry="0.6" rx="1" id="_Ellipse_3" cy="24.79" cx="29.94" class="cls-22"/>
  <path fill="#00b8f0" id="_Path_20" d="m16,19l0,3.55a1,1 0 0 0 0.88,1l4.07,0.51a2.07,2.07 0 0 0 1.53,-0.42l0.88,-0.67a1.14,1.14 0 0 1 1.38,0l0.88,0.67a2.07,2.07 0 0 0 1.53,0.42l4.07,-0.51a1,1 0 0 0 0.88,-1l0,-3.55a1,1 0 0 0 -1,-1l-14.1,0a1,1 0 0 0 -1,1z" class="cls-23"/>
  <path fill="#4acfff" id="_Path_21" d="m32.05,19a1,1 0 0 0 -1,-1l-6.59,0l-4.17,6l0.61,0.08a2.07,2.07 0 0 0 1.53,-0.42l0.88,-0.67a1.14,1.14 0 0 1 1.38,0l0.88,0.67a2.07,2.07 0 0 0 1.53,0.42l4.07,-0.51a1,1 0 0 0 0.88,-1l0,-3.57z" class="cls-24"/>
  <path stroke-linejoin="round" stroke-linecap="round" stroke="#45413c" fill="none" id="_Path_22" d="m16,19l0,3.55a1,1 0 0 0 0.88,1l4.07,0.51a2.07,2.07 0 0 0 1.53,-0.42l0.88,-0.67a1.14,1.14 0 0 1 1.38,0l0.88,0.67a2.07,2.07 0 0 0 1.53,0.42l4.07,-0.51a1,1 0 0 0 0.88,-1l0,-3.55a1,1 0 0 0 -1,-1l-14.1,0a1,1 0 0 0 -1,1z" class="cls-3"/>
  <path fill="#45413c" stroke-linejoin="round" stroke-linecap="round" stroke="#45413c" id="_Path_23" d="m18.82,20.91a0.77,0.77 0 1 0 0.77,-0.77a0.76,0.76 0 0 0 -0.77,0.77z" class="cls-25"/>
  <path fill="#45413c" stroke-linejoin="round" stroke-linecap="round" stroke="#45413c" id="_Path_24" d="m29.18,20.91a0.77,0.77 0 1 1 -0.77,-0.77a0.76,0.76 0 0 1 0.77,0.77z" class="cls-25"/>
 </g>
</svg>