<svg width="47.99999999999999" height="47.99999999999999" xmlns="http://www.w3.org/2000/svg">

 <title/>
 <g>
  <title>background</title>
  <rect fill="none" id="canvas_background" height="402" width="582" y="-1" x="-1"/>
 </g>
 <g>
  <title>Layer 1</title>
  <ellipse opacity="0.15" fill="#45413c" ry="1.5" rx="15" id="_Ellipse_" cy="45.5" cx="24" class="cls-1"/>
  <path fill="#6dd627" id="_Rectangle_" d="m24,31.22l0,0a11.88,11.88 0 0 1 11.88,11.88l0,1.9a0,0 0 0 1 0,0l-23.76,0a0,0 0 0 1 0,0l0,-1.9a11.88,11.88 0 0 1 11.88,-11.88z" class="cls-2"/>
  <path fill="#46b000" id="_Path_" d="m24,31.22a11.88,11.88 0 0 0 -11.88,11.88l0,1.9l0.15,0a11.87,11.87 0 0 1 23.46,0l0.15,0l0,-1.9a11.88,11.88 0 0 0 -11.88,-11.88z" class="cls-3"/>
  <path stroke-linejoin="round" stroke-linecap="round" stroke="#45413c" fill="none" id="_Rectangle_2" d="m24,31.22l0,0a11.88,11.88 0 0 1 11.88,11.88l0,1.9a0,0 0 0 1 0,0l-23.76,0a0,0 0 0 1 0,0l0,-1.9a11.88,11.88 0 0 1 11.88,-11.88z" class="cls-4"/>
  <path fill="#00b8f0" id="svg_1" d="m29.94,32.81l0,6.36a1,1 0 0 1 -1,1l-9.88,0a1,1 0 0 1 -1,-1l0,-6.36a12.41,12.41 0 0 0 -2.19,1.62l0,10.57l16.26,0l0,-10.57a12.41,12.41 0 0 0 -2.19,-1.62z" class="cls-5"/>
  <path fill="#009fd9" id="svg_2" d="m29.94,36.52a12,12 0 0 1 2.19,1.63l0,-3.72a12.41,12.41 0 0 0 -2.19,-1.62l0,3.71z" class="cls-6"/>
  <path fill="#009fd9" id="svg_3" d="m18.06,36.52l0,-3.71a12.41,12.41 0 0 0 -2.19,1.62l0,3.72a12,12 0 0 1 2.19,-1.63z" class="cls-6"/>
  <path stroke-linejoin="round" stroke-linecap="round" stroke="#45413c" fill="none" id="svg_4" d="m29.94,32.81l0,6.36a1,1 0 0 1 -1,1l-9.88,0a1,1 0 0 1 -1,-1l0,-6.36a12.41,12.41 0 0 0 -2.19,1.62l0,10.57l16.26,0l0,-10.57a12.41,12.41 0 0 0 -2.19,-1.62z" class="cls-4"/>
  <path stroke-linejoin="round" stroke-linecap="round" stroke="#45413c" fill="#46b000" id="svg_5" d="m24,30s-5,-0.06 -5,2.79a10,10 0 0 0 2.16,5.77l2.84,-2.43l2.89,2.43a10,10 0 0 0 2.16,-5.77c0,-2.85 -5.05,-2.79 -5.05,-2.79z" class="cls-7"/>
  <path fill="#ffe500" id="_Path_2" d="m24,36.13l0,0l-2.25,-2.25a1,1 0 0 1 -0.29,-0.71l0,-3a2.54,2.54 0 0 1 2.54,-2.54l0,0a2.54,2.54 0 0 1 2.54,2.55l0,3a1,1 0 0 1 -0.29,0.71l-2.25,2.24z" class="cls-8"/>
  <path fill="#ebcb00" id="_Path_3" d="m24,27.63a2.54,2.54 0 0 0 -2.54,2.55l0,0.59a2.54,2.54 0 0 0 5.08,0l0,-0.59a2.54,2.54 0 0 0 -2.54,-2.55z" class="cls-9"/>
  <path stroke-linejoin="round" stroke-linecap="round" stroke="#45413c" fill="none" id="_Path_4" d="m24,36.13l0,0l-2.25,-2.25a1,1 0 0 1 -0.29,-0.71l0,-3a2.54,2.54 0 0 1 2.54,-2.54l0,0a2.54,2.54 0 0 1 2.54,2.55l0,3a1,1 0 0 1 -0.29,0.71l-2.25,2.24z" class="cls-4"/>
  <line stroke-linejoin="round" stroke-linecap="round" stroke="#45413c" fill="none" y2="40.17" y1="36.13" x2="24" x1="24" id="_Path_5" class="cls-4"/>
  <path fill="#724f3d" stroke-linejoin="round" stroke-linecap="round" stroke="#45413c" id="_Rectangle_3" d="m24,6.91l0,0a9.82,9.82 0 0 1 9.82,9.82l0,5.14a0,0 0 0 1 0,0l-19.64,0a0,0 0 0 1 0,0l0,-5.14a9.82,9.82 0 0 1 9.82,-9.82z" class="cls-10"/>
  <path fill="#ffe500" stroke-linejoin="round" stroke-linecap="round" stroke="#45413c" id="svg_6" d="m34.87,21.12a1.83,1.83 0 0 0 -1.39,-1.54l-0.59,-0.16a2.06,2.06 0 0 1 -1.5,-2l0,-2.04a1.88,1.88 0 0 0 -1.39,-1.81a15.34,15.34 0 0 1 -6,1.09a15.34,15.34 0 0 1 -6,-1.09a1.88,1.88 0 0 0 -1.4,1.81l0,2.06a2.06,2.06 0 0 1 -1.5,2l-0.59,0.16a1.83,1.83 0 0 0 -1.39,1.54a1.81,1.81 0 0 0 1.81,2l0.11,0a9,9 0 0 0 17.9,0l0.11,0a1.81,1.81 0 0 0 1.82,-2.02z" class="cls-11"/>
  <path stroke-linejoin="round" stroke-linecap="round" stroke="#45413c" fill="#45413c" id="_Path_6" d="m18.57,20.91a0.77,0.77 0 1 0 0.77,-0.77a0.76,0.76 0 0 0 -0.77,0.77z" class="cls-12"/>
  <path stroke-linejoin="round" stroke-linecap="round" stroke="#45413c" fill="#45413c" id="_Path_7" d="m29.43,20.91a0.77,0.77 0 1 1 -0.77,-0.77a0.76,0.76 0 0 1 0.77,0.77z" class="cls-12"/>
  <path fill="#ff6242" id="_Path_8" d="m21.16,25.6a0.42,0.42 0 0 0 -0.33,0.16a0.42,0.42 0 0 0 -0.1,0.35a3.32,3.32 0 0 0 6.54,0a0.42,0.42 0 0 0 -0.1,-0.35a0.44,0.44 0 0 0 -0.33,-0.16l-5.68,0z" class="cls-13"/>
  <path fill="#ffa694" id="_Path_9" d="m24,27a4,4 0 0 0 -2.52,0.77a3.36,3.36 0 0 0 5,0a4,4 0 0 0 -2.48,-0.77z" class="cls-14"/>
  <path stroke-linejoin="round" stroke-linecap="round" stroke="#45413c" fill="none" id="_Path_10" d="m21.16,25.6a0.42,0.42 0 0 0 -0.33,0.16a0.42,0.42 0 0 0 -0.1,0.35a3.32,3.32 0 0 0 6.54,0a0.42,0.42 0 0 0 -0.1,-0.35a0.44,0.44 0 0 0 -0.33,-0.16l-5.68,0z" class="cls-4"/>
  <ellipse fill="#ffaa54" ry="0.6" rx="1" id="_Ellipse_2" cy="24.19" cx="18.06" class="cls-15"/>
  <ellipse fill="#ffaa54" ry="0.6" rx="1" id="_Ellipse_3" cy="24.19" cx="29.94" class="cls-15"/>
  <path fill="#debb7e" id="_Rectangle_4" d="m24,4.36l0,0a9.82,9.82 0 0 1 9.82,9.82l0,0.19a0,0 0 0 1 0,0l-19.64,0a0,0 0 0 1 0,0l0,-0.19a9.82,9.82 0 0 1 9.82,-9.82z" class="cls-16"/>
  <path fill="#f0d5a8" id="_Path_11" d="m24,4.36l0,0a9.83,9.83 0 0 0 -9.82,9.83l0,0.18l0.3,0a9.81,9.81 0 0 1 9.52,-7.46l0,0a9.81,9.81 0 0 1 9.52,7.46l0.3,0l0,-0.18a9.83,9.83 0 0 0 -9.82,-9.83z" class="cls-17"/>
  <path stroke-linejoin="round" stroke-linecap="round" stroke="#45413c" fill="none" id="_Rectangle_5" d="m24,4.36l0,0a9.82,9.82 0 0 1 9.82,9.82l0,0.19a0,0 0 0 1 0,0l-19.64,0a0,0 0 0 1 0,0l0,-0.19a9.82,9.82 0 0 1 9.82,-9.82z" class="cls-4"/>
  <path fill="#debb7e" id="_Path_12" d="m24,9.37c-10,0 -18.13,3.14 -18.13,7c0,2.33 2.94,4.38 7.43,5.66a1.77,1.77 0 0 1 0.88,-2.39l0,-1.52l0,0c0,-1.91 4.4,-3.46 9.82,-3.46s9.82,1.55 9.82,3.46l0,1.61a1.75,1.75 0 0 1 1,1.39a1.8,1.8 0 0 1 -0.17,0.93c4.49,-1.28 7.43,-3.33 7.43,-5.66c0.05,-3.88 -8.08,-7.02 -18.08,-7.02z" class="cls-16"/>
  <path fill="#f0d5a8" id="_Path_13" d="m24,9.37c-10,0 -18.13,3.14 -18.13,7c0,1.89 1.93,3.59 5.05,4.85a3.4,3.4 0 0 1 -1.63,-2.6c0,-3.15 6.59,-5.7 14.71,-5.7s14.71,2.55 14.71,5.7a3.4,3.4 0 0 1 -1.63,2.6c3.12,-1.26 5.05,-3 5.05,-4.85c0,-3.86 -8.13,-7 -18.13,-7z" class="cls-17"/>
  <path stroke-linejoin="round" stroke-linecap="round" stroke="#45413c" fill="none" id="_Path_14" d="m24,9.37c-10,0 -18.13,3.14 -18.13,7c0,2.33 2.94,4.38 7.43,5.66a1.77,1.77 0 0 1 0.88,-2.39l0,-1.52l0,0c0,-1.91 4.4,-3.46 9.82,-3.46s9.82,1.55 9.82,3.46l0,1.61a1.75,1.75 0 0 1 1,1.39a1.8,1.8 0 0 1 -0.17,0.93c4.49,-1.28 7.43,-3.33 7.43,-5.66c0.05,-3.88 -8.08,-7.02 -18.08,-7.02z" class="cls-4"/>
  <rect fill="#bf8256" stroke-linejoin="round" stroke-linecap="round" stroke="#45413c" y="34.21" x="38.09" width="2.33" id="_Rectangle_6" height="10.79" class="cls-18"/>
  <path fill="#adc4d9" stroke-linejoin="round" stroke-linecap="round" stroke="#45413c" id="_Path_15" d="m43.93,18.37l0,0a0.93,0.93 0 0 0 -0.93,0.93l0,7.82a1.82,1.82 0 0 1 -1.81,1.82l-1,0l0,-9.64a0.93,0.93 0 1 0 -1.86,0l0,9.64l-1,0a1.82,1.82 0 0 1 -1.81,-1.82l0,-7.82a0.93,0.93 0 0 0 -0.93,-0.93l0,0a0.93,0.93 0 0 0 -0.93,0.93l0,7.5a4,4 0 0 0 4,4l0.69,0l0,3.41l1.86,0l0,-3.41l0.67,0a4,4 0 0 0 4,-4l0,-7.5a0.93,0.93 0 0 0 -0.95,-0.93z" class="cls-19"/>
  <path fill="#ffe500" id="_Rectangle_7" d="m36.55,36.73l0,0a1.54,1.54 0 0 1 1.54,1.54l0,6.73a0,0 0 0 1 0,0l0,0a2.34,2.34 0 0 1 -2.34,-2.34l0,-5.14a0.79,0.79 0 0 1 0.79,-0.79l0.01,0z" class="cls-8"/>
  <path fill="#fff48c" id="_Path_16" d="m36.55,36.73a0.79,0.79 0 0 0 -0.79,0.79l0,1.92a0.79,0.79 0 0 1 0.79,-0.79a1.54,1.54 0 0 1 1.54,1.54l0,-1.92a1.54,1.54 0 0 0 -1.54,-1.54z" class="cls-20"/>
  <path stroke-linejoin="round" stroke-linecap="round" stroke="#45413c" fill="none" id="_Rectangle_8" d="m36.55,36.73l0,0a1.54,1.54 0 0 1 1.54,1.54l0,6.73a0,0 0 0 1 0,0l0,0a2.34,2.34 0 0 1 -2.34,-2.34l0,-5.14a0.79,0.79 0 0 1 0.79,-0.79l0.01,0z" class="cls-4"/>
  <path fill="#ffe500" id="_Path_17" d="m40.68,38.11l-2,0a1.15,1.15 0 0 0 -0.06,2.29a1.15,1.15 0 0 0 0.06,2.29a1.16,1.16 0 0 0 0,2.31l2,0a2.19,2.19 0 0 0 2.19,-2.19l0,-2.51a2.19,2.19 0 0 0 -2.19,-2.19z" class="cls-8"/>
  <path fill="#fff48c" id="_Path_18" d="m40.68,38.11l-2,0a1.15,1.15 0 0 0 -1.15,1.15a1.13,1.13 0 0 0 0.18,0.57a1.13,1.13 0 0 1 1,-0.58l2,0a2.19,2.19 0 0 1 2.19,2.19l0,-1.14a2.19,2.19 0 0 0 -2.22,-2.19z" class="cls-20"/>
  <path stroke-linejoin="round" stroke-linecap="round" stroke="#45413c" fill="none" id="_Path_19" d="m40.68,38.11l-2,0a1.15,1.15 0 0 0 -0.06,2.29a1.15,1.15 0 0 0 0.06,2.29a1.16,1.16 0 0 0 0,2.31l2,0a2.19,2.19 0 0 0 2.19,-2.19l0,-2.51a2.19,2.19 0 0 0 -2.19,-2.19z" class="cls-4"/>
  <line stroke-linejoin="round" stroke-linecap="round" stroke="#45413c" fill="none" y2="40.4" y1="40.4" x2="40.2" x1="38.62" id="_Path_20" class="cls-4"/>
  <line stroke-linejoin="round" stroke-linecap="round" stroke="#45413c" fill="none" y2="42.69" y1="42.69" x2="40.2" x1="38.68" id="_Path_21" class="cls-4"/>
 </g>
</svg>