<svg width="48" height="48" xmlns="http://www.w3.org/2000/svg">

 <title/>
 <g>
  <title>background</title>
  <rect fill="none" id="canvas_background" height="402" width="582" y="-1" x="-1"/>
 </g>
 <g>
  <title>Layer 1</title>
  <ellipse opacity="0.15" fill="#45413c" ry="1.5" rx="13.5" id="_Ellipse_" cy="45.5" cx="23.98" class="cls-1"/>
  <path fill="#ffe500" id="svg_1" d="m24,27.17a2.54,2.54 0 0 0 -2.54,2.55l0,2.85c0,1.4 2.54,3.59 2.54,3.59s2.54,-2.19 2.54,-3.59l0,-2.85a2.54,2.54 0 0 0 -2.54,-2.55z" class="cls-2"/>
  <path fill="#ebcb00" id="_Path_" d="m24,27.17a2.54,2.54 0 0 0 -2.54,2.54l0,0.6a2.54,2.54 0 0 0 5.08,0l0,-0.59a2.54,2.54 0 0 0 -2.54,-2.55z" class="cls-3"/>
  <path stroke-linejoin="round" stroke-linecap="round" stroke="#45413c" fill="none" id="svg_2" d="m24,27.17a2.54,2.54 0 0 0 -2.54,2.55l0,2.85c0,1.4 2.54,3.59 2.54,3.59s2.54,-2.19 2.54,-3.59l0,-2.85a2.54,2.54 0 0 0 -2.54,-2.55z" class="cls-4"/>
  <path fill="#656769" id="svg_3" d="m31.54,32.84l-7.54,-2.84l-7.54,2.87a6.76,6.76 0 0 0 -4.35,6.31l0,5.82l23.78,0l0,-5.85a6.76,6.76 0 0 0 -4.35,-6.31z" class="cls-5"/>
  <path fill="#525252" id="svg_4" d="m31.54,32.84l-7.54,-2.84l-7.54,2.87a6.76,6.76 0 0 0 -4.35,6.31l0,3a6.76,6.76 0 0 1 4.35,-6.31l7.54,-2.87l7.54,2.87a6.76,6.76 0 0 1 4.35,6.31l0,-3a6.76,6.76 0 0 0 -4.35,-6.34z" class="cls-6"/>
  <path stroke-linejoin="round" stroke-linecap="round" stroke="#45413c" fill="none" id="svg_5" d="m31.54,32.84l-7.54,-2.84l-7.54,2.87a6.76,6.76 0 0 0 -4.35,6.31l0,5.82l23.78,0l0,-5.85a6.76,6.76 0 0 0 -4.35,-6.31z" class="cls-4"/>
  <polygon fill="#525252" stroke-linejoin="round" stroke-linecap="round" stroke="#45413c" id="svg_6" points="17.43 32.47 15.53 36.84 17.96 37.78 16.46 39.09 18.96 45 21.28 45 18.63 32.01 17.43 32.47" class="cls-7"/>
  <polygon fill="#525252" stroke-linejoin="round" stroke-linecap="round" stroke="#45413c" id="svg_7" points="30.57 32.47 32.47 36.84 30.04 37.78 31.54 39.09 29.04 45 26.72 45 29.37 32.01 30.57 32.47" class="cls-7"/>
  <polygon fill="#ffffff" stroke-linejoin="round" stroke-linecap="round" stroke="#45413c" id="svg_8" points="24 29.97 18.63 32.01 21.28 45 26.72 45 29.37 32.01 24 29.97" class="cls-8"/>
  <path fill="#724f3d" id="_Path_2" d="m24,6.91a9.83,9.83 0 0 0 -2.44,0.31c-1.86,0.42 -4.28,1.12 -6.47,0.7a4.2,4.2 0 0 0 0.84,3.21a9.81,9.81 0 0 0 -1.75,5.6l0,5.14l19.64,0l0,-5.14a9.82,9.82 0 0 0 -9.82,-9.82z" class="cls-9"/>
  <path fill="#a86c4d" id="_Path_3" d="m24,6.91a9.83,9.83 0 0 0 -2.44,0.31c-1.86,0.42 -4.28,1.12 -6.47,0.7a4.47,4.47 0 0 0 0.68,3a19.4,19.4 0 0 0 5.79,-0.79a9.81,9.81 0 0 1 12.26,9.51l0,-2.91a9.82,9.82 0 0 0 -9.82,-9.82z" class="cls-10"/>
  <path stroke-linejoin="round" stroke-linecap="round" stroke="#45413c" fill="none" id="_Path_4" d="m24,6.91a9.83,9.83 0 0 0 -2.44,0.31c-1.86,0.42 -4.28,1.12 -6.47,0.7a4.2,4.2 0 0 0 0.84,3.21a9.81,9.81 0 0 0 -1.75,5.6l0,5.14l19.64,0l0,-5.14a9.82,9.82 0 0 0 -9.82,-9.82z" class="cls-4"/>
  <path stroke-linejoin="round" stroke-linecap="round" stroke="#45413c" fill="#ffe500" id="svg_9" d="m34.87,21.12a1.83,1.83 0 0 0 -1.39,-1.54l-0.59,-0.16a2.06,2.06 0 0 1 -1.5,-2l0,-2.04a1.88,1.88 0 0 0 -1.39,-1.81a15.34,15.34 0 0 1 -6,1.09a15.34,15.34 0 0 1 -6,-1.09a1.88,1.88 0 0 0 -1.4,1.81l0,2.06a2.06,2.06 0 0 1 -1.5,2l-0.59,0.16a1.83,1.83 0 0 0 -1.39,1.54a1.81,1.81 0 0 0 1.81,2l0.11,0a9,9 0 0 0 17.9,0l0.11,0a1.81,1.81 0 0 0 1.82,-2.02z" class="cls-11"/>
  <path stroke-linejoin="round" stroke-linecap="round" stroke="#45413c" fill="#45413c" id="_Path_5" d="m18.57,20.91a0.77,0.77 0 1 0 0.77,-0.77a0.76,0.76 0 0 0 -0.77,0.77z" class="cls-12"/>
  <path stroke-linejoin="round" stroke-linecap="round" stroke="#45413c" fill="#45413c" id="_Path_6" d="m29.43,20.91a0.77,0.77 0 1 1 -0.77,-0.77a0.76,0.76 0 0 1 0.77,0.77z" class="cls-12"/>
  <path fill="#ff6242" id="_Path_7" d="m21.16,25.6a0.42,0.42 0 0 0 -0.33,0.16a0.42,0.42 0 0 0 -0.1,0.35a3.32,3.32 0 0 0 6.54,0a0.42,0.42 0 0 0 -0.1,-0.35a0.44,0.44 0 0 0 -0.33,-0.16l-5.68,0z" class="cls-13"/>
  <path fill="#ffa694" id="_Path_8" d="m24,27a4,4 0 0 0 -2.52,0.77a3.36,3.36 0 0 0 5,0a4,4 0 0 0 -2.48,-0.77z" class="cls-14"/>
  <path stroke-linejoin="round" stroke-linecap="round" stroke="#45413c" fill="none" id="_Path_9" d="m21.16,25.6a0.42,0.42 0 0 0 -0.33,0.16a0.42,0.42 0 0 0 -0.1,0.35a3.32,3.32 0 0 0 6.54,0a0.42,0.42 0 0 0 -0.1,-0.35a0.44,0.44 0 0 0 -0.33,-0.16l-5.68,0z" class="cls-4"/>
  <ellipse fill="#ffaa54" ry="0.6" rx="1" id="_Ellipse_2" cy="24.19" cx="18.06" class="cls-15"/>
  <ellipse fill="#ffaa54" ry="0.6" rx="1" id="_Ellipse_3" cy="24.19" cx="29.94" class="cls-15"/>
  <rect fill="#daedf7" y="30.45" x="21.09" width="5.81" ry="1.7" rx="1.7" id="_Rectangle_" height="8.13" class="cls-16"/>
  <path fill="#e8f4fa" id="_Path_10" d="m25.2,30.45l-2.4,0a1.71,1.71 0 0 0 -1.71,1.7l0,1.72a1.71,1.71 0 0 1 1.71,-1.7l2.4,0a1.71,1.71 0 0 1 1.71,1.7l0,-1.72a1.71,1.71 0 0 0 -1.71,-1.7z" class="cls-17"/>
  <rect stroke-linejoin="round" stroke-linecap="round" stroke="#45413c" fill="none" y="30.45" x="21.09" width="5.81" ry="1.7" rx="1.7" id="_Rectangle_2" height="8.13" class="cls-4"/>
  <line stroke-linejoin="round" stroke-linecap="round" stroke="#45413c" fill="none" y2="32.64" y1="32.64" x2="26.91" x1="25.32" id="_Path_11" class="cls-4"/>
  <line stroke-linejoin="round" stroke-linecap="round" stroke="#45413c" fill="none" y2="34.51" y1="34.51" x2="26.91" x1="25.32" id="_Path_12" class="cls-4"/>
  <line stroke-linejoin="round" stroke-linecap="round" stroke="#45413c" fill="none" y2="36.39" y1="36.39" x2="26.91" x1="25.32" id="_Path_13" class="cls-4"/>
  <line stroke-linejoin="round" stroke-linecap="round" stroke="#45413c" fill="none" y2="32.64" y1="32.64" x2="22.68" x1="21.09" id="_Path_14" class="cls-4"/>
  <line stroke-linejoin="round" stroke-linecap="round" stroke="#45413c" fill="none" y2="34.51" y1="34.51" x2="22.68" x1="21.09" id="_Path_15" class="cls-4"/>
  <line stroke-linejoin="round" stroke-linecap="round" stroke="#45413c" fill="none" y2="36.39" y1="36.39" x2="22.68" x1="21.09" id="_Path_16" class="cls-4"/>
  <path fill="#c0dceb" stroke-linejoin="round" stroke-linecap="round" stroke="#45413c" id="_Rectangle_3" d="m22.17,38.57l3.67,0a0,0 0 0 1 0,0l0,1.1a0.68,0.68 0 0 1 -0.68,0.68l-2.31,0a0.68,0.68 0 0 1 -0.68,-0.68l0,-1.1a0,0 0 0 1 0,0z" class="cls-18"/>
  <rect fill="#87898c" stroke-linejoin="round" stroke-linecap="round" stroke="#45413c" y="40.36" x="23.07" width="1.86" id="_Rectangle_4" height="4.64" class="cls-19"/>
  <path stroke="#48cf3e" stroke-linejoin="round" stroke-linecap="round" fill="none" id="_Path_17" d="m38.14,30.34a1.3,1.3 0 1 1 -1.3,-1.28a1.3,1.3 0 0 1 1.3,1.28z" class="cls-20"/>
  <path stroke="#48cf3e" stroke-linejoin="round" stroke-linecap="round" fill="none" id="_Path_18" d="m44.61,29a1.3,1.3 0 0 1 -2.61,0a1.3,1.3 0 0 1 1.29,-1.31a1.29,1.29 0 0 1 1.32,1.31z" class="cls-20"/>
  <polyline stroke="#48cf3e" stroke-linejoin="round" stroke-linecap="round" fill="none" points="38.14 30.34 38.1 24.51 44.56 21.86 44.62 29" id="_Path_19" class="cls-20"/>
  <path stroke="#ff4064" stroke-linejoin="round" stroke-linecap="round" fill="none" id="_Path_20" d="m6.17,23.94a1.64,1.64 0 1 1 -1.65,-1.62a1.63,1.63 0 0 1 1.65,1.62z" class="cls-21"/>
  <polyline stroke="#ff4064" stroke-linejoin="round" stroke-linecap="round" fill="none" points="6.17 23.94 6.11 16.57 8.58 18.19" id="_Path_21" class="cls-21"/>
  <path stroke="#ffb700" stroke-linejoin="round" stroke-linecap="round" fill="none" id="_Path_22" d="m37.18,9.32a1.28,1.28 0 0 1 -1.27,1.29a1.3,1.3 0 0 1 -1.29,-1.27a1.28,1.28 0 0 1 2.56,0l0,-0.02z" class="cls-22"/>
  <polyline stroke="#ffb700" stroke-linejoin="round" stroke-linecap="round" fill="none" points="37.18 9.32 37.14 3.56 39.07 4.82" id="_Path_23" class="cls-22"/>
 </g>
</svg>